<?xml version="1.0" standalone="no"?>
<!DOCTYPE svg PUBLIC "-//W3C//DTD SVG 1.1//EN" "http://www.w3.org/Graphics/SVG/1.1/DTD/svg11.dtd" >
<svg xmlns="http://www.w3.org/2000/svg" xmlns:xlink="http://www.w3.org/1999/xlink" version="1.1">
<metadata>
Created by FontForge 20170731 at Mon Jul 25 13:55:55 2005
 By Aleksey,,,
Copyright (c) Alexandra Leopoldovna Gophmann rusifikation, 2005. All rights reserved.
</metadata>
<defs>
<font id="Scriptorama" horiz-adv-x="470" >
  <font-face 
    font-family="Scriptorama"
    font-weight="400"
    font-stretch="normal"
    units-per-em="1000"
    panose-1="3 0 5 5 0 0 0 2 0 3"
    ascent="800"
    descent="-200"
    x-height="305"
    cap-height="733"
    bbox="-1857.04 -947 1888 1206.62"
    underline-thickness="50"
    underline-position="-175"
    unicode-range="U+0005-2122"
  />
<missing-glyph horiz-adv-x="550" 
 />
    <glyph glyph-name=".notdef" horiz-adv-x="550" 
 />
    <glyph glyph-name=".null" horiz-adv-x="0" 
 />
    <glyph glyph-name="nonmarkingreturn" horiz-adv-x="329" 
 />
    <glyph glyph-name="breve" horiz-adv-x="346" 
d="M36 788q-2 -23 8.5 -46t28 -41.5t41 -30.5t48.5 -12q24 0 48.5 8.5t44 24.5t33 39.5t16.5 54.5q1 6 -8 6t-11 -6q-12 -27 -28.5 -43t-33.5 -25t-32 -11.5t-23 -2.5q-9 0 -20.5 2t-26 10t-31 25.5t-35.5 47.5q-3 5 -11 5q-7 0 -8 -5z" />
    <glyph glyph-name="dotaccent" horiz-adv-x="286" 
d="M144 625q27 0 47.5 18t20.5 47q0 27 -19 45.5t-47 18.5q-26 0 -47 -17.5t-21 -44.5t19 -47t47 -20z" />
    <glyph glyph-name="ring" horiz-adv-x="143" 
d="M119 727q0 17 -12.5 29t-29.5 12t-29 -12t-12 -29t12 -28.5t29 -11.5t29.5 11.5t12.5 28.5zM77 695q-14 0 -23 9.5t-9 22.5q0 14 9 23.5t23 9.5t23.5 -9.5t9.5 -23.5q0 -13 -9.5 -22.5t-23.5 -9.5z" />
    <glyph glyph-name="hungarumlaut" unicode="&#xa;" horiz-adv-x="275" 
d="M28 638q84 72 102 122q3 10 -3 33q-7 23 -15 24q-7 2 -25 -12q-19 -14 -14 -20q5 -12 8.5 -21t2.5 -17q-6 -57 -65 -98q-4 -3 -4 -7q0 -6 7 -6q2 0 6 2zM150 638q84 72 102 122q3 10 -3 33q-7 23 -15 24q-7 2 -25 -12q-19 -14 -14 -20q5 -12 8.5 -21t2.5 -17
q-6 -57 -65 -98q-4 -4 -4 -7q0 -6 7 -6q2 0 6 2z" />
    <glyph glyph-name="ogonek" horiz-adv-x="118" 
d="M96 -106q-4 9 -9 1q-4 -5 -10.5 -11t-14.5 -9t-15.5 -1t-12.5 13q-3 6 -4 19t0 28.5t4.5 32.5t8.5 31q5 9 8.5 8.5t0.5 -8.5q-5 -11 -7 -24.5t-2.5 -26t0.5 -22.5t4 -16q7 -14 19.5 -9.5t27.5 24.5q7 12 9 1z" />
    <glyph glyph-name="caron" horiz-adv-x="201" 
d="M91 605q16 7 36 19t43 30q8 7 8 -2q0 -4 -3 -10q-5 -4 -17.5 -15.5t-33.5 -30.5q-34 -34 -35 -32q-2 1 -59 82q-2 6 -2 8q0 4 3 6q2 1 5 -3q15 -18 30 -33q19 -20 25 -19z" />
    <glyph glyph-name="dotlessi" unicode="&#xd;" horiz-adv-x="230" 
d="M302 130q-12 -12 -36.5 -31t-54 -39.5t-59.5 -38.5t-52 -28q-6 -2 -18.5 0t-25 9.5t-22 20t-9.5 30.5q0 16 8 41.5t20 54t26 58t26 54t20 42t9 21.5q2 12 12 16.5t19 1.5t13 -14t-5 -29q-34 -64 -52.5 -98.5t-26.5 -50.5t-9.5 -19.5t-2.5 -6.5t-4.5 -11t-15.5 -33
t-12.5 -38.5t6.5 -19.5t17.5 -5.5t20.5 2.5q19 4 47.5 19t58.5 34t56 38t40 32q9 9 13 10t4.5 -2t-2.5 -9t-9 -11z" />
    <glyph glyph-name="fraction" horiz-adv-x="409" 
d="M-42 -78q9 36 76.5 114t192.5 198q113 109 209.5 193t177.5 144q12 9 12 16q0 8 -9 8t-20 -8q-78 -57 -174.5 -143t-214.5 -201q-256 -251 -263 -318q0 -18 2 -24q6 0 11 21z" />
    <glyph glyph-name="fi" horiz-adv-x="446" 
d="M508 101q-12 -12 -37 -31t-54.5 -39t-59 -38t-51.5 -28q-6 -3 -18.5 -0.5t-25.5 9.5t-22 19.5t-9 30.5q0 16 8 41.5t20 54t26 58t26 54.5t20 42t9 22q0 1 -21 3.5t-47.5 3t-50 -2.5t-28.5 -11q-25 -43 -65 -115.5t-90.5 -158t-109 -176.5t-121.5 -170.5t-128.5 -140
t-128.5 -85.5q-75 -30 -132 -23.5t-93.5 36t-50.5 75t-3 93.5q7 33 25.5 63t43.5 55t53.5 43.5t56.5 28.5q14 5 14.5 1.5t-13.5 -9.5q-51 -23 -92 -70.5t-58 -113.5q-14 -55 0.5 -97t49 -66t84.5 -26.5t108 22.5q57 25 115 79.5t114.5 126.5t109.5 154.5t99.5 162.5
t84.5 151.5t65 121.5q8 14 2 21.5t-13 12.5q-8 5 -17.5 9.5t-5.5 13.5q2 8 12 7.5t16 -0.5q11 0 22 -1t23 1q17 25 36.5 52t40.5 53t43 49t44 40q21 16 46.5 30.5t53 25t55.5 15t54 0.5q12 -2 20.5 -11.5t8.5 -15.5q0 -2 -2 -6.5t-5 -9t-6.5 -7t-6.5 -0.5q-17 17 -39 26
t-45 6q-41 -6 -79.5 -35t-72.5 -67t-61.5 -77.5t-44.5 -67.5h149q20 -2 25 -14.5t-4 -29.5q-34 -64 -52.5 -98.5t-27 -51t-10 -20t-3 -6t-5 -10.5t-15.5 -33t-12.5 -38.5t6.5 -19.5t18 -6t20 2q19 4 48 19t59 34t56 38t40 32q9 9 13 10t4 -2t-3 -8.5t-8 -11.5z" />
    <glyph glyph-name="fl" horiz-adv-x="0" 
d="M-553 -39q-2 -5 -1.5 -10t2.5 -8.5t5 -4t6 4.5q22 42 49 91.5t55.5 100t56 99t51 89t40.5 69.5t24 41q73 -2 168 5t205 28t233 58t253 96q79 36 127 82t69.5 95.5t18.5 99.5t-26 93.5t-64 77t-96 50t-122 13t-142 -34.5q-71 -29 -136.5 -72t-125 -94t-111.5 -107
t-97 -110q-88 -1 -183 -72q-72 -54 -164 -194h-45q-26 0 -28 -7q-3 -8 5.5 -13.5t17.5 -9.5q16 -10 16 -25q0 -7 -3 -14q-103 -192 -206 -353l-34 2t-35 1q-189 0 -382 -39q-231 -46 -407 -141q-210 -113 -210 -275q0 -95 79 -163q79 -67 204 -67q79 0 163 30
q184 66 390 299q42 48 84.5 101.5t86.5 115.5q143 24 182 66q4 4 4 10q0 7 -3.5 15.5t-9 16.5t-11.5 14t-11 7q-14 2 -28.5 3t-30.5 2q13 20 25 40.5t26 42.5q47 78 93.5 157t89.5 158q5 8 17 8q36 0 65.5 -1t53.5 1q-9 -16 -12 -20.5t-2 -2.5q-23 -39 -47.5 -83.5
t-49 -89.5t-47.5 -88t-42 -79.5t-33 -64t-20 -40.5zM-256 450q30 52 68.5 110.5t84.5 120.5q1 0 1.5 -0.5t1.5 -0.5q28 -17 26 -19q6 0 12 10t6 14q-1 8 -8 14.5t-17 10.5q44 56 94 111t106.5 104t118 90t127.5 68q54 22 111 25.5t108.5 -8t95.5 -36.5t72 -60t37.5 -77.5
t-8 -88.5t-64 -94.5t-130.5 -95.5t-167.5 -79.5t-163.5 -54.5t-154.5 -35t-140.5 -19.5t-121 -8t-96 -1.5zM-1330 -615q-69 -29 -143 -29q-112 0 -196 60q-83 56 -83 144q0 134 208 254q347 202 781 202q14 0 28 -0.5t28 -0.5q-327 -504 -623 -630zM-295 447h-123
q77 109 139 172.5t118 74.5q16 3 34 -2q-62 -79 -105 -144.5t-63 -100.5zM-677 14q18 -2 33 -3.5t29 -3.5q20 -5 20 -19q0 -11 -10 -20q-61 -51 -150 -69q20 28 39.5 56.5t38.5 58.5zM-312 409q1 0 1 3q0 -1 -0.5 -2z" />
    <glyph glyph-name="Lslash" horiz-adv-x="703" 
d="M223 274q24 7 47 13t45 13q-19 -30 -36 -58t-31 -51t-24 -39t-14 -23q-17 -24 -35 -49.5t-30 -33.5q-1 -1 -3.5 -2t-7.5 1q-18 6 -45 13.5t-46 11.5q-19 5 -25.5 -1.5t1.5 -23.5q1 -5 6 -12.5t12 -15t15 -13t17 -5.5q13 0 26 6.5t18 5.5q16 -6 47.5 -17t72.5 -23
t87.5 -24.5t92 -22.5t87 -16t71.5 -5q22 0 37.5 3.5t26 9t18 12t14.5 14.5q10 11 8 15.5t-16 -8.5q-8 -7 -15.5 -12t-16.5 -8.5t-21 -4.5t-31 -1q-23 0 -56 5.5t-71 14t-78 19.5t-77.5 23t-70.5 24t-55 21q-13 5 -11.5 7t7.5 6q31 16 49.5 38.5t41.5 53.5q38 51 66 95.5
t52 85.5l40 12t39 12q32 8 25 22q-2 9 -23 1l-65 -18q29 50 60 94.5t76 89.5q42 42 75.5 54.5t47.5 3.5q16 -11 17.5 -19.5t5.5 -19.5q4 -15 14 -12.5t12 19.5q2 8 2.5 19t-4.5 24q-7 19 -30 18.5t-51 -11.5t-57 -28.5t-48 -32.5q-20 -15 -42 -38.5t-44 -52t-44.5 -60
t-43.5 -63.5l-100 -28q-38 -9 -33 -25q1 -8 22 -3z" />
    <glyph glyph-name="lslash" horiz-adv-x="394" 
d="M431 667q10 14 1.5 25t-22.5 11q-27 0 -32.5 -13.5t-5.5 -29.5q0 -10 -8 -22q-29 -49 -74 -119t-93 -148l-79 -32q-18 -7 -25 -14.5t-5 -13.5q3 -7 21 -1q18 8 35.5 15.5t34.5 15.5q-32 -53 -61 -106t-50.5 -100.5t-33 -88t-8.5 -68.5q5 -33 25 -44t34 -9l10.5 3t7 2.5
t8 4t12.5 7.5q26 14 21 21.5t-28 -5.5q-32 -16 -50.5 -8.5t-14.5 38.5q3 34 18.5 77.5t40 92t55 100t63.5 103.5q15 6 21.5 8.5t8 3t2 1t4.5 2t14.5 6t32.5 13.5q28 12 22 23q-2 9 -22 0l-63 -26l1 1q52 79 101 150.5t81 123.5z" />
    <glyph glyph-name="Zcaron" horiz-adv-x="741" 
d="M265 381q2 -6 3 -11.5t0 -8t-5 0t-11 12.5q-8 12 -17 29.5t-17 37t-14 38t-7 30.5q-2 12 -1.5 31t9 38t29 35.5t60.5 24.5q29 6 68 6t83 -3.5t90.5 -9t90.5 -11t82 -9.5t66 -4q5 0 13.5 4t12.5 5q9 3 15.5 -0.5t9 -9.5t0.5 -13.5t-11 -11.5q-8 -4 -14.5 -6t-14.5 -2
q-5 0 -9 -2t-10 -6q-35 -13 -63 -34t-54 -49t-52.5 -62.5t-57.5 -74.5q-3 -5 -4 -8t5 -3h50q9 0 11.5 -3t0 -6t-8.5 -5.5t-13 -2.5h-54q-5 0 -7 -1t-4 -5q-18 -27 -46 -63.5t-59 -72t-62.5 -65t-57.5 -41.5q-10 -5 -10.5 -9.5t7.5 -6.5q38 -13 80.5 -26.5t85.5 -25t84 -19.5
t77 -11q22 -2 48 -0.5t43 12.5q15 11 19 6.5t-9 -12.5q-12 -7 -21 -11.5t-19 -7t-24.5 -3t-36.5 0.5q-48 1 -103 10t-106 21t-94 24.5t-67 21.5q-7 3 -18 -3q-14 -9 -39.5 -15.5t-51.5 -7.5q-11 -1 -29.5 2.5t-38 11t-37 19t-26.5 28.5q-11 18 -2.5 34t38.5 16
q19 1 45.5 -3.5t53.5 -12t52 -15.5t41 -14q5 -2 10 -2.5t13 4.5q23 15 51 43t56 60.5t54 66t45 60.5q3 5 6.5 8t-7.5 3h-72q-6 0 -9 2.5t-2.5 6.5t4.5 7t11 3h16h25h26h16q5 2 6 1.5t3 3.5q70 94 131 149t119 80q7 3 12 5.5t5.5 5t-3.5 5t-15 5.5q-23 4 -71.5 11.5
t-107.5 12.5t-121 4t-113 -13q-27 -6 -43.5 -17t-25.5 -24t-11.5 -26t-1.5 -22q5 -68 27 -135zM32 65q10 -12 28 -20.5t39 -12t43 -3t40 6.5q9 3 14 6t-6 8q-15 5 -36 11l-42 12t-39.5 10.5t-28.5 6.5q-8 3 -16 -3.5t4 -21.5zM505 712q16 7 36 19t43 30q8 7 8 -2
q0 -6 -4 -10q-5 -4 -17.5 -15.5t-32.5 -30.5q-34 -34 -35 -32q-2 1 -60 81q-2 8 -2 9q0 4 3 6q3 1 6 -4q15 -18 30 -33q19 -19 25 -18z" />
    <glyph glyph-name="zcaron" horiz-adv-x="429" 
d="M419 338q-29 -23 -73 -59t-90.5 -75.5t-87.5 -76t-62 -59.5q-13 -11 -7.5 -14t14.5 2q16 9 39.5 15.5t48 9t47 1t37.5 -8.5q17 -9 27.5 -25t14.5 -30q2 -11 0.5 -14.5t-4.5 -2.5t-6.5 5t-4.5 10q-1 5 -5.5 11t-12 10.5t-17.5 7t-22 0.5q-19 0 -46 -4.5t-56.5 -12.5
t-57.5 -19.5t-49 -26.5q-23 -14 -34.5 -6.5t1.5 27.5q4 6 12.5 11.5t17 10.5t15 9t8.5 8q6 11 24 32t43 46.5t55 54t59 54.5t54.5 47.5t42.5 34.5q11 8 6.5 16.5t-18.5 3.5q-16 -2 -39.5 -5.5t-49 -7t-49 -6t-38.5 -3.5q-5 -1 -12 4t-13 11.5t-7.5 13.5t6.5 11q11 3 27.5 9
t31.5 9q7 3 9 -4t9 -7q12 0 37 0.5t52 2t51.5 3t37.5 4.5q5 4 8.5 8t6.5 6q8 3 14.5 -1t10 -11.5t2.5 -16t-8 -13.5zM276 480q16 6 36.5 19.5t43.5 32.5q8 7 8 -2q0 -7 -3 -11q-5 -4 -17.5 -16.5t-34.5 -32.5q-34 -37 -35 -35q-2 1 -16.5 22.5t-45.5 64.5q-2 8 -2 10
q0 4 3 6q3 1 6 -3q9 -11 16.5 -19.5t15.5 -16.5q19 -20 25 -19z" />
    <glyph glyph-name="space" unicode=" " horiz-adv-x="329" 
 />
    <glyph glyph-name="space" unicode="&#xa0;" horiz-adv-x="329" 
 />
    <glyph glyph-name="exclam" unicode="!" horiz-adv-x="217" 
d="M121 141q15 27 41.5 77t64.5 124q27 54 49.5 94t39.5 69q1 2 5.5 2.5t9 1.5l9 2t5.5 4q6 9 3 35t-9 27q-10 4 -28 -1t-22 -14q-27 -75 -73.5 -177.5t-112.5 -233.5q-1 -3 -1 -7q0 -11 9 -11q6 0 10 8zM82 18q0 53 -8 61q-2 2 -6 2q-10 0 -25.5 -7.5t-19.5 -12.5
q-3 -4 0 -30q5 -23 7.5 -27.5t9.5 -4.5q12 0 27 6.5t15 12.5z" />
    <glyph glyph-name="quotedbl" unicode="&#x22;" horiz-adv-x="288" 
d="M218 408q64 90 102 138q3 4 3 7q0 19 -23 19q-10 0 -14 -8l-80 -149q-1 -1 -1 -5q0 -3 5 -5t8 3zM323 405q32 45 57.5 79t45.5 58q3 6 3 8q0 19 -23 19q-9 0 -14 -8l-81 -150q-1 -1 -1 -4q0 -4 6 -5q3 -2 7 3z" />
    <glyph glyph-name="numbersign" unicode="#" horiz-adv-x="485" 
d="M29 43q-7 -11 -7 -17q0 -3 2 -3q5 0 19 20q28 44 50 76.5t38 55.5h111q-54 -87 -81 -132q-7 -11 -7 -17q0 -3 2 -3q7 0 19 20q29 45 51 77.5t37 54.5q10 0 22 0.5t26 0.5h35q5 0 15 6t10 11t-16 5h-78l45 67.5t32 47.5q9 0 19.5 1t22.5 1h32q4 0 14 6t10 10q0 6 -15 6
h-67q42 58 68 94t37 51q13 17 -3 17q-10 0 -17 -5l-66.5 -91t-45.5 -66h-105q47 66 73 101.5t32 43.5q13 17 -3 17q-10 0 -17 -5q-26 -34 -53.5 -73t-58.5 -84h-95q-6 0 -18 -7.5t-12 -11.5q0 -5 12 -5q4 0 14.5 1t27.5 1h57q-25 -39 -43 -68t-31 -49h-88q-3 0 -8 -2t-10 -5
t-9 -6.5t-4 -5.5q0 -4 12 -4q4 0 13.5 0.5t25.5 0.5h55q-26 -44 -46.5 -77t-34.5 -56zM222 313q9 0 22.5 1t31.5 1h52q-28 -43 -46.5 -72t-27.5 -45h-109q39 58 58 86.5z" />
    <glyph glyph-name="dollar" unicode="$" horiz-adv-x="464" 
d="M153 46q-3 -4 -10 -4q-54 4 -92 29q-1 2 -5 2q-8 0 -16.5 -6t-8.5 -14q0 -24 104 -39q5 -1 4 -4q-9 -15 -18 -29t-20 -28q-3 -6 -3 -8q0 -4 8 -4q11 0 15 7q26 40 37 59q7 5 5 5q115 0 189 51q47 31 47 78q0 19 -7 33q-13 24 -72 80q-5 5 -1 10q29 50 62 103t71 110
q6 6 8 4q59 4 70 -21q3 -8 11 -8q12 0 12 13q0 6 -3 11q-20 28 -76 28h-3q-1 0 0 1q0 1 1 2q11 16 19 28t14 22q1 1 1 2t1 2q0 4 -6 4q-8 0 -16 -8q-20 -30 -35 -50q-4 -4 -7 -4q-124 -25 -184 -77q-41 -34 -41 -78q0 -54 61 -107q6 -3 -1 -10q-35 -58 -63.5 -104t-51.5 -81
zM284 220q3 5 6 2q15 -15 25 -27t16 -22q18 -32 18 -52q0 -26 -25 -45q-11 -9 -28 -17t-37 -13t-41.5 -6.5t-40.5 0.5q-4 0 -3 4l54 88t56 88zM296 278q-3 -5 -7 -1q-38 43 -38 82q0 14 4.5 26.5t15.5 23.5q38 42 140 66q6 1 7 0l-1 -4q-48 -76 -77.5 -124t-43.5 -69z" />
    <glyph glyph-name="percent" unicode="%" horiz-adv-x="686" 
d="M353 510q-16 14 -33 14q-16 0 -34 -18q-29 0 -32 -8q-4 -14 -3 -18q-2 -5 -14 -20t-32 -41q-29 -35 -39 -70q-5 -23 -5 -37q0 -60 59 -60q12 0 26 3q27 8 50.5 22.5t46.5 37.5q21 20 34 43t21 48q7 36 4 66q-2 6 3.5 9.5t10.5 6.5q4 8 219 8q15 0 14 -1
q-81 -66 -158 -136.5t-152 -148.5q-170 -177 -177 -235q0 -11 0.5 -16.5t1.5 -8.5q6 0 11 21q18 71 217 264q88 86 171 158t163 132q12 7 12 16q0 8 -9 8q-4 0 -10.5 -3.5t-16.5 -8.5q-14 -8 -21 -12.5t-8 -5.5q-29 -14 -38 -14q-71 1 -135 1t-123 1h-5t-8 0.5t-7.5 1.5z
M549 241q-39 -13 -74 -57q-29 -38 -43 -84q-5 -20 -5 -35q0 -62 61 -62q14 0 27 4q53 14 95 59q39 40 54 91q8 23 8 45q0 68 -64 62q-27 -3 -59 -23zM603 246q50 3 50 -52q0 -19 -6 -38q-17 -56 -54 -92t-78 -44q-23 -5 -41.5 10.5t-18.5 48.5q0 6 1 12t2 11q10 60 69 111
q38 32 76 33zM339 490q48 1 48 -47q0 -17 -6 -38q-17 -56 -54.5 -92.5t-77.5 -44.5q-23 -5 -41.5 11t-18.5 49q0 5 0.5 11t1.5 12q12 60 70 111q16 14 35 20t43 8z" />
    <glyph glyph-name="ampersand" unicode="&#x26;" horiz-adv-x="646" 
d="M574 300q21 0 37.5 -0.5t28.5 -1.5q45 -6 45 -43q0 -49 -54 -104q-8 -10 -8 -15q0 -1 2 -1q4 0 13 9q48 45 58 69q5 10 5 24q0 20 -11 38t-26 30q6 1 4 2t-7 2.5t-11 3t-8 3.5q-21 4 -38 4.5t-44 -1.5q-53 1 -115 1h-126t-124.5 -0.5t-109.5 -0.5q36 52 83 80.5t94 40.5
t89 12t66 -4q10 -1 17.5 3t10.5 9.5t0.5 11t-12.5 8.5q-21 5 -42.5 17t-39 31t-28 45t-8.5 59q2 36 19.5 59.5t41.5 36.5t49 15t43 -5q21 -7 33.5 -24t14.5 -38q2 -13 8.5 -13.5t11.5 6.5t7.5 19t-3.5 24q-8 20 -27.5 37t-47.5 18q-26 1 -56 -7.5t-56.5 -25.5t-47 -41.5
t-28.5 -55.5q-6 -26 -2 -47t12.5 -37t19 -27.5t16.5 -18.5q4 -3 0.5 -10.5t-12.5 -10.5q-35 -8 -71.5 -24t-71 -38t-64.5 -48.5t-52 -56.5q-34 -1 -57 -1h-32q-20 -1 -26.5 -3.5t-10.5 -16.5q-2 -6 2 -13t10 -12t12.5 -7.5t10.5 2.5q6 7 11.5 13.5t13.5 9.5q4 2 17 2.5
t33 1.5q-32 -52 -41 -104t3.5 -94.5t45 -70t83.5 -30.5h17t18 1q4 -28 11.5 -52.5t19 -42.5t27 -28t35.5 -8q34 3 62 30t49 60q6 8 11.5 16.5t9.5 17.5q8 15 15 29.5t13 26.5q17 33 35 69.5t34.5 70t30 63t22.5 49.5zM180 190q-14 -29 -20.5 -72t-2.5 -88q-5 1 -11 1
q-5 0 -10 1q-35 4 -59 27t-34 57.5t-6 77t25 84.5q2 5 4.5 9.5t4.5 9.5q34 1 76.5 1.5t85.5 0.5h86h76h57h30q11 0 12.5 -4.5t-3.5 -16.5q-6 -14 -14.5 -29.5t-17.5 -30t-17 -26t-13 -16.5q-17 -18 -42 -42.5t-57.5 -47t-72 -39t-84.5 -17.5q-2 38 2 79.5t13 76.5zM375 9
q-12 -23 -26 -46t-30 -41t-32.5 -30t-33.5 -13t-30.5 8t-23 25.5t-15.5 38.5t-9 48q36 6 66.5 15.5t62.5 29t67.5 52t82.5 84.5zM180 190l8 -3q2 13 0 14.5t-8 -11.5z" />
    <glyph glyph-name="quotesingle" unicode="'" horiz-adv-x="178" 
d="M218 408q64 90 102 138q3 4 3 7q0 19 -23 19q-10 0 -14 -8l-80 -149q-1 -1 -1 -5q0 -3 5 -5t8 3z" />
    <glyph glyph-name="parenleft" unicode="(" horiz-adv-x="409" 
d="M562 595q-186 -45 -312 -211q-127 -166 -127 -358q0 -60 17 -122q3 -13 14 -13t21.5 9.5t12.5 22.5q1 9 -7.5 14.5t-8.5 7.5q-6 24 -9.5 49t-3.5 51q0 174 116 335q120 165 291 201q15 3 15 10q0 5 -10 5h-5q-2 0 -4 -1z" />
    <glyph glyph-name="parenright" unicode=")" horiz-adv-x="409" 
d="M-61 -99q184 45 312 210q126 166 126 358q0 65 -16 123q-3 13 -15 13q-11 0 -21 -9.5t-13 -22.5q-1 -9 8 -14.5t9 -7.5q12 -48 12 -101q0 -88 -28 -171t-87 -163q-121 -165 -291 -201q-14 -3 -14 -10q0 -5 10 -5q5 0 8 1z" />
    <glyph glyph-name="asterisk" unicode="*" horiz-adv-x="363" 
d="M255 580q-14 -29 -27 -55.5t-28 -58.5q32 11 68 27t70 28q8 5 9.5 -0.5t-3.5 -8.5q-34 -18 -74.5 -36.5t-70.5 -31.5q23 -20 41.5 -35.5t33.5 -30.5q11 -10 7 -14.5t-9 -1.5q-22 17 -41.5 32t-46.5 37q-8 -17 -18 -40.5t-18 -45t-11.5 -37t2.5 -15.5q3 0 -0.5 -2.5
t-7.5 -4.5q-11 -3 -10.5 9.5t6.5 34t15 47.5t16 49q-29 -17 -60.5 -32t-55.5 -33q-2 -1 -1 -4.5t-5 -4.5q-14 -2 -17.5 9.5t10.5 22.5q9 7 24 15t33.5 16t38 16.5t36.5 17.5q-19 11 -35.5 23t-37.5 22q-1 0 -4 -2.5t-6 2.5q-5 4 -5 10q0 7 4 11.5t10.5 6.5t15.5 -2
q19 -8 36 -24t36 -31q11 26 22 49.5t19 44.5q3 7 3 15t10 13q18 11 23 4.5t3 -11.5z" />
    <glyph glyph-name="plus" unicode="+" horiz-adv-x="418" 
d="M394 265q-36 -8 -84.5 -11t-98.5 -4q-20 -37 -37 -72.5t-28 -66.5q-2 -4 -3.5 -9.5t-1 -10t3.5 -6t10 1.5q5 2 10 5t11 5q3 5 4.5 3.5t-2.5 -6.5q-4 -6 -19 -15t-24 -11q-8 -2 -12 -0.5t-5.5 5t-0.5 8.5t2 9q11 34 31.5 76t43.5 84q-45 0 -82 2t-60 5q-3 0 -8 4t-10.5 9
t-10.5 9.5t-8 7.5q-3 5 -2 7t2 1q7 -6 17.5 -10t18.5 -7q31 -5 70 -8t81 -4q29 54 58 99t48 70q1 2 7 6t13.5 7.5t14.5 6.5t11 4q5 1 6.5 -1.5t-0.5 -3.5q-8 -3 -18 -11t-15 -15q-24 -32 -52.5 -74.5t-54.5 -87.5q41 0 78.5 2.5t67.5 10.5q4 0 8.5 1.5t8 4t3.5 5.5q0 4 -5 9
q-7 9 -17 13q-5 2 -4 4t6 2q6 -1 19 -10t18 -17q10 -12 4 -18.5t-13 -7.5z" />
    <glyph glyph-name="comma" unicode="," horiz-adv-x="178" 
d="M22 -114q93 78 111 132q1 2 1 8q0 16 -6 34t-14 20q-7 2 -27 -13t-16 -22q7 -14 10.5 -24t2.5 -18q-8 -61 -71 -105q-4 -4 -4 -7q0 -8 7 -8q4 0 6 3z" />
    <glyph glyph-name="hyphen" unicode="-" horiz-adv-x="229" 
d="M37 166h147q26 0 26 17q0 10 -17 10h-141q-32 0 -32 -18q0 -9 17 -9z" />
    <glyph glyph-name="period" unicode="." horiz-adv-x="178" 
d="M124 18q0 53 -8 61q-4 2 -6 2q-5 0 -12 -2t-14 -5t-12.5 -6.5t-6.5 -6.5q-3 -4 0 -30q4 -23 7 -27.5t9 -4.5q13 0 28 6.5t15 12.5z" />
    <glyph glyph-name="slash" unicode="/" horiz-adv-x="409" 
d="M-42 -78q9 36 76.5 114t192.5 198q113 109 209.5 193t177.5 144q12 9 12 16q0 8 -9 8t-20 -8q-78 -57 -174.5 -143t-214.5 -201q-256 -251 -263 -318q0 -18 2 -24q6 0 11 21z" />
    <glyph glyph-name="zero" unicode="0" horiz-adv-x="541" 
d="M205 442q-130 -112 -172 -256q-6 -19 -8.5 -36.5t-2.5 -33.5q0 -63 35.5 -96t92.5 -33q13 0 26.5 2t27.5 5q55 15 103.5 44.5t92.5 77.5q82 87 113 188q7 26 11 49t4 43q0 67 -36 100t-95 28q-49 -5 -92 -29q-13 -5 -28.5 -12t-30 -15t-26 -15t-15.5 -11zM392 498
q106 1 106 -116q0 -41 -13 -81q-32 -105 -113 -192q-95 -102 -193 -102q-44 0 -71 30q-16 18 -24 41.5t-8 55.5q0 13 1.5 26t3.5 27q5 27 17.5 57t31.5 62q40 71 97 119q86 73 165 73z" />
    <glyph glyph-name="one" unicode="1" horiz-adv-x="381" 
d="M196 -2q72 0 101 1t29 12q0 9 -20 7q-30 -3 -119 11q-39 5 -39 25q0 4 2 9t4 11q17 34 51 84.5t85 117.5q50 66 84 105.5t52 53.5q2 11 3.5 19.5t5.5 10.5q17 11 29 18t21 13q7 4 7 14q0 12 -12 12q-5 0 -11 -3q-45 -26 -118.5 -58.5t-178.5 -71.5q-15 -4 -18 -11
q-2 -6 8 -6q4 0 15 3l80 26t81 29q6 2 10 2q7 0 7 -7t-4 -12q-85 -122 -146.5 -216.5t-99.5 -163.5q-48 -2 -80.5 -5t-52.5 -5q-18 -2 -18 -22q0 -11 18 -9q49 6 192 6h32z" />
    <glyph glyph-name="two" unicode="2" horiz-adv-x="497" 
d="M395 0q23 -2 23 11q0 14 -24 14q-250 0 -250 20q0 7 13 11q58 21 115 52t114 76q142 108 142 203q0 48 -29 83q-17 20 -42.5 32.5t-59.5 14.5q-91 8 -181 -42q-21 -10 -21 -31q0 -5 5 -2q73 41 140 41q11 0 21.5 -1t20.5 -3q46 -10 75 -50q25 -36 19 -68
q-15 -92 -126 -179q-75 -58 -164 -100q-70 -31 -149 -48q-36 -6 -36 -32q0 -13 18 -11q151 12 281 12q56 0 95 -3z" />
    <glyph glyph-name="three" unicode="3" horiz-adv-x="475" 
d="M410 105q15 27 15 56q0 23 -9 44t-25 36.5t-37 25.5t-46 12q-9 1 -9 7t8 9q138 51 186 125q13 19 13 44q0 61 -79 61q-92 0 -158 -39q-16 -9 -16 -25q0 -8 7 -4q72 34 143 34q44 0 44 -43q0 -23 -14 -45q-12 -21 -35 -40t-56 -39q-71 -41 -129 -41q-9 0 -16.5 -6.5
t-7.5 -12.5q0 -4 7 -4q90 5 136 -31q38 -29 38 -79q0 -11 -2.5 -21.5t-6.5 -21.5q-34 -78 -151 -131q-96 -44 -170 -44q-57 0 -58 31q-2 22 -16 22q-10 0 -17 -11t-7 -22q0 -36 99 -33q87 1 196 47q66 28 109.5 62t63.5 77z" />
    <glyph glyph-name="four" unicode="4" horiz-adv-x="555" 
d="M239 -90q5 44 56 124q5 9 22.5 33t44.5 63q10 -1 31.5 -1.5t55.5 -0.5q9 0 20 8.5t11 13.5q0 3 -5 2q-13 -3 -98 2q11 18 40.5 58t77.5 103q49 62 86.5 109.5t66.5 80.5q1 1 1 3q0 5 -11 5q-41 0 -59 -23q-75 -101 -136 -184t-109 -149q-1 0 -16 1t-44 3q-59 3 -101 3
q-55 0 -88 -6q25 32 163 141q72 58 126.5 97.5t90.5 61.5q8 4 8 11q0 12 -12 12q-4 0 -6 -1q-38 -23 -88.5 -61.5t-116.5 -92.5t-112 -96t-73 -73q-6 -4 -10.5 -6.5t-9.5 -4.5q-18 -9 -21 -14q-6 -8 -6 -19q0 -16 8 -16q4 0 15 14q11 15 22 17q20 3 55 4.5t88 0.5
q83 0 113 -3q-46 -72 -69.5 -125.5t-26.5 -91.5q-2 -15 8 -15q6 0 8 12z" />
    <glyph glyph-name="five" unicode="5" horiz-adv-x="480" 
d="M406 77q29 34 29 74t-30 67q-17 16 -43 30.5t-61 29.5q-8 4 -34 14t-72 27q-15 4 -4 23q35 59 107 126q69 2 141 3.5t147 1.5q23 0 23 14q0 6 -10 6h-119q-51 0 -86 1q-7 2 -12 5.5t-8 5.5q-19 8 -30.5 11t-16.5 3q-15 0 -22 -10q-28 -33 -61 -75.5t-71 -96.5
q-23 -32 -23 -44q0 -10 11 -14q154 -39 209 -93q22 -22 22 -54q0 -59 -50 -91q-59 -36 -152 -36q-98 0 -135 42q-3 5 -12 5q-13 0 -24.5 -9t-11.5 -20q0 -21 50 -36q48 -15 102 -15q156 0 247 105z" />
    <glyph glyph-name="six" unicode="6" horiz-adv-x="475" 
d="M419 95q40 55 40 114q0 72 -67 93q-10 5 -33 5q-82 0 -179 -39q35 53 72.5 98t81.5 84q109 98 210 116q19 4 19 9t-11 5h-6q-3 0 -6 -1q-170 -30 -341 -216q-130 -140 -130 -269q0 -45 20 -72.5t61 -41.5q11 -3 23.5 -5.5t25.5 -2.5q63 0 131 41q29 18 51 38.5t38 43.5z
M370 269q38 -18 38 -84q0 -18 -4 -36.5t-13 -36.5q-26 -53 -83 -88q-59 -35 -110 -35q-36 0 -58 19q-28 24 -28 78q0 95 60 167q30 14 63.5 20.5t70.5 6.5q41 0 64 -11z" />
    <glyph glyph-name="seven" unicode="7" horiz-adv-x="505" 
d="M53 -92q-6 27 43 97t159 179l297 290q11 11 11 27q0 28 -21 24q-11 -5 -18.5 -9t-11.5 -7q-15 -3 -20 -2q-89 -2 -159.5 -3.5t-122.5 -2.5q-16 -3 -41 -15q-30 -14 -30 -26q0 -8 8 -8q7 0 12 5q19 7 32 11.5t22 5.5q22 3 108 2q97 -1 130 -6q19 -3 19 -12q0 -5 -4 -8
q-434 -460 -446 -540q-3 -23 13 -23q8 0 15 6.5t5 14.5z" />
    <glyph glyph-name="eight" unicode="8" horiz-adv-x="584" 
d="M481 157q-2 23 -12 52.5t-27 65.5q-15 33 -51 96q263 153 263 183q0 4 -3 4q-5 0 -20 -12q-17 -16 -46 -37t-71 -47t-75 -44t-57 -29q-18 39 -18 72q0 52 46 87q14 11 34.5 15.5t37.5 4.5q30 0 51 -15q6 -4 12.5 -8.5t12.5 -8.5q2 -1 4.5 -2t5.5 -1q9 0 7 20q2 14 -23 24
q-22 12 -44 10q-24 -1 -48 -5.5t-50 -15.5q-55 -20 -81 -52q-17 -19 -17 -50q0 -40 29 -95q-60 -36 -101.5 -62.5t-66.5 -43.5q-51 -36 -82 -70t-44 -64q-11 -30 -11 -58q0 -31 11.5 -54.5t31.5 -40t47 -25t58 -8.5q97 0 198 69q103 73 99 145zM84 122q55 111 265 226
q22 -35 35.5 -57t18.5 -31q16 -31 23 -57.5t7 -50.5q0 -98 -106 -158q-90 -49 -151 -39q-106 18 -106 110q0 31 14 57z" />
    <glyph glyph-name="nine" unicode="9" horiz-adv-x="563" 
d="M165 486q-43 -59 -43 -122q0 -69 66 -90q9 -2 20.5 -4t25.5 -2q94 0 169 37q-65 -111 -163 -192q-106 -87 -209 -105q-20 -5 -20 -11q0 -5 11 -5q7 0 11 1q89 16 175.5 70.5t174.5 148.5q139 154 139 275q0 90 -82 117q-26 8 -51 8q-62 0 -133 -43q-29 -19 -52 -39.5
t-39 -43.5zM411 319q-58 -29 -132 -29q-45 0 -70 15q-35 21 -35 78q0 20 5 41.5t16 44.5q12 27 33.5 49.5t50.5 41.5q58 35 109 35q37 0 60 -20q28 -26 28 -79q0 -98 -65 -177z" />
    <glyph glyph-name="colon" unicode=":" horiz-adv-x="230" 
d="M233 202q0 53 -9 62q-2 2 -5 2q-10 0 -26 -7.5t-19 -13.5q-3 -2 -2.5 -9.5t2.5 -19.5q4 -23 7 -28t9 -5q13 0 28 7t15 12zM124 18q0 53 -8 61q-4 2 -6 2q-5 0 -12 -2t-14 -5t-12.5 -6.5t-6.5 -6.5q-3 -4 0 -30q4 -23 7 -27.5t9 -4.5q13 0 28 6.5t15 12.5z" />
    <glyph glyph-name="semicolon" unicode=";" horiz-adv-x="227" 
d="M22 -114q93 78 111 132q1 2 1 8q0 16 -6 34t-14 20q-7 2 -27 -13t-16 -22q7 -14 10.5 -24t2.5 -18q-8 -61 -71 -105q-4 -4 -4 -7q0 -8 7 -8q4 0 6 3zM233 202q0 53 -9 62q-2 2 -5 2q-10 0 -26 -7.5t-19 -13.5q-3 -2 -2.5 -9.5t2.5 -19.5q4 -23 7 -28t9 -5q13 0 28 7
t15 12z" />
    <glyph glyph-name="less" unicode="&#x3c;" horiz-adv-x="621" 
d="M609 529q-19 -6 -53.5 -18t-79 -28t-95 -34.5l-101 -37t-97 -36t-82 -32t-58 -24.5t-23.5 -13q-18 -31 6 -43q14 1 16.5 1.5t8.5 -0.5q14 -3 20 -10q46 -25 101.5 -58.5t108.5 -67.5t99 -63t73 -45q8 -4 21 -5t29 -3q20 -2 30.5 1t16.5 9q2 5 -0.5 8t-6.5 8q-2 -1 -5 0.5
t-10 -0.5q-20 5 -37 7.5t-26 7.5q-16 6 -44 22t-60.5 37t-68 45t-67 46.5t-56 40.5t-35.5 27q-9 7 -11 14t-1 12q0 1 17.5 9t46.5 21.5t65.5 30.5t75 34.5t75 34.5t65.5 30.5t47 21.5t19 8z" />
    <glyph glyph-name="equal" unicode="=" horiz-adv-x="461" 
d="M38 176h79h96q49 0 92.5 0.5t66.5 0.5q30 0 30 14q0 8 -21 8h-324q-37 0 -37 -15q0 -8 18 -8zM77 277h79h96q49 0 92 0.5t66 0.5q30 0 30 15q0 7 -21 7h-323q-38 0 -38 -15q0 -8 19 -8z" />
    <glyph glyph-name="greater" unicode="&#x3e;" horiz-adv-x="635" 
d="M13 8q25 8 77.5 26.5t117.5 41.5t134 48.5t126.5 47.5t95 38t39.5 21q18 31 -7 43q-13 -1 -15.5 -1.5t-8.5 0.5q-8 2 -12 3.5t-9 6.5q-46 25 -101 58.5t-108.5 67.5t-99 63t-73.5 45q-8 3 -20.5 4.5t-28.5 3.5q-20 2 -31 -1.5t-16 -8.5q-2 -5 0.5 -8.5t5.5 -8.5
q2 1 5.5 0t10.5 0q20 -4 36.5 -6.5t25.5 -7.5q16 -6 44 -22t60.5 -37t68 -45.5t67 -46.5t55.5 -40l36 -27q10 -8 12 -14.5t1 -11.5q-1 -1 -31 -15t-75.5 -35t-98.5 -45.5t-98.5 -45.5t-76.5 -35t-32 -14z" />
    <glyph glyph-name="question" unicode="?" horiz-adv-x="429" 
d="M211 119q0 2 -2.5 7.5t-5.5 13t-4.5 15.5t0.5 15q5 14 17 17q21 7 56 19.5t86 34.5q101 41 139 66q99 55 99 159q0 19 -2.5 38t-9.5 39q-8 28 -23.5 52t-35.5 45q-52 50 -116 50q-9 0 -18 -1t-19 -4q-49 -11 -86 -60q-2 -5 -4 -8.5t-2 -7.5t4 -4q5 0 13 11q25 36 77 36
q25 0 51 -9t48 -25t39 -39.5t26 -51.5q6 -18 8.5 -34.5t2.5 -31.5q0 -106 -151 -185q-41 -21 -99.5 -44t-139.5 -46q-6 -2 -6 -9t4 -17t15 -24q21 -24 32 -24q7 0 7 7zM186 8q1 3 1.5 11t-1.5 22q-3 25 -7.5 28.5t-9.5 3.5q-6 0 -24 -8q-16 -8 -20 -14t-1 -29q4 -22 8 -26.5
t12 -4.5q11 0 25 6t17 11z" />
    <glyph glyph-name="at" unicode="@" horiz-adv-x="910" 
d="M256 16q32 20 70 47t81 65q88 75 135 130q1 3 4 3q7 0 1 -11q-17 -26 -33.5 -57t-33.5 -68q-28 -60 -42.5 -110.5t-16.5 -92.5q-2 -51 33 -78q32 -26 81 -26q15 0 29.5 2.5t28.5 7.5q27 11 65 32.5t82 52.5q20 14 35 28t31 28q53 57 82 135.5t29 160.5t-28 149.5
t-78.5 116t-121.5 75t-157 26.5q-106 0 -198.5 -40.5t-161.5 -111.5t-108.5 -166.5t-39.5 -206.5q0 -102 35.5 -189.5t98 -151.5t148.5 -100t187 -36q92 0 175 30.5t150 87.5q-24 -16 -58 -31.5t-75 -28t-89 -20.5t-100 -8q-75 0 -140 21t-118 59q-81 60 -125 157
q-20 45 -29 93q-5 22 -8 44.5t-3 44.5v31t1 24.5t2.5 23t3.5 26.5q5 34 15 67t23 65q11 26 24.5 49.5t29.5 45.5q10 15 21.5 28t22.5 27q36 40 82 71q105 70 238 70q77 0 141.5 -24.5t111.5 -68.5t73.5 -105t26.5 -135q0 -75 -25.5 -148.5t-70.5 -129.5q-18 -20 -46 -43.5
t-57.5 -44.5t-57.5 -37.5t-47 -22.5q-35 -12 -70 -12q-78 0 -78 67v10q0 4 1 9q9 58 32.5 122.5t65.5 134.5q26 45 54.5 88.5t57.5 88.5q1 3 -1.5 8t-7.5 5q-2 0 -5 -3q-12 -10 -27 -13q-2 -1 -19 1q-24 9 -48 9q-20 0 -41 -8q-38 -16 -83.5 -47t-96.5 -82
q-111 -111 -111 -183q0 -34 25 -34q13 0 23 7zM273 101q28 66 94 140q41 45 73.5 69.5t68.5 24.5q21 0 33.5 -9t12.5 -20q0 -5 -3 -8q-70 -85 -132.5 -144t-118.5 -95q-8 -5 -15 -5q-18 0 -18 24q0 14 5 23zM868 -204q-21 -24 -50 -48q40 27 50 48z" />
    <glyph glyph-name="A" unicode="A" horiz-adv-x="1118" 
d="M1076 330q33 -29 33 -53q0 -16 -32 -16t-83 15q12 66 56 214q13 40 32 98.5t45 137.5q2 7 -19 21t-38 14q-8 0 -13 -5q-29 -45 -73 -101t-101 -125q-104 -125 -162 -186q-236 51 -388 51q-34 0 -61.5 -2.5t-50.5 -8.5q-111 -28 -157 -145q-14 -32 -20 -62t-6 -57
q0 -63 34.5 -99t97.5 -35q127 2 320 136q69 49 126.5 97.5t105.5 99.5q67 -16 127 -29t114 -24q-5 -44 -7.5 -81t-2.5 -68q0 -83 16 -116q1 -4 8 -4q18 0 20 15q0 1 -3 3t-7 4t-7.5 4t-3.5 3q-7 21 -7 56q0 34 6 78t17 101q46 -9 73.5 -12.5t38.5 1.5q35 12 29 27
q-13 32 -50 65q-3 2 -5.5 4t-5.5 2q-6 0 -4 -6q0 -7 8 -12zM216 361q22 5 50 7.5t63 2.5q177 0 371 -48q-107 -108 -218 -189q-179 -126 -308 -129q-29 -1 -50 9t-36 29q-26 33 -26 89q0 51 19 101q21 54 54.5 85.5t80.5 42.5zM741 338q78 81 154 171t152 191q5 5 8 7.5
t8 2.5q9 0 9 -16q0 -3 -2 -13q-91 -278 -103 -399q-56 11 -112.5 25t-113.5 31z" />
    <glyph glyph-name="B" unicode="B" horiz-adv-x="734" 
d="M406 -8q63 -3 112.5 9t83.5 35q17 12 35.5 27t29 33t9 38.5t-24.5 43.5q-8 8 -25 19t-40.5 22t-52 20t-59.5 13q-12 2 -12 8t13 8q33 6 77.5 16t92 25t94.5 35.5t86 46.5q32 21 51.5 48t23.5 55.5t-10 56.5t-48 52q-53 37 -109 58t-116 32.5t-123.5 15t-131.5 4.5
q-4 0 -27 -1t-55.5 -4t-70.5 -9.5t-73.5 -17.5t-64 -26.5t-40.5 -38.5q-12 -21 -6 -39.5t21.5 -34t35.5 -29t37 -23.5q18 -12 19 -4t-14 16q-9 5 -23.5 15.5t-26.5 25t-18 30.5t2 31q13 26 38.5 43.5t56.5 27.5t64.5 14.5t63 6t52 0.5t31.5 -1q61 -1 123 -6t121.5 -17.5
t114.5 -34.5t102 -57q31 -23 39.5 -48t2.5 -48.5t-22 -44.5t-35 -36q-20 -16 -49.5 -31t-64 -28.5t-71 -24.5t-69 -19.5t-59 -14.5t-40.5 -8q8 12 22 34l31.5 49.5t35.5 57.5t33.5 58t26.5 52t13 38q3 15 -8 16.5t-24 -3t-22 -11.5t-3 -8q7 -1 9 -6.5t1.5 -12t-3 -14
t-4.5 -11.5q-10 -22 -25 -51t-34 -61t-40.5 -65.5t-43.5 -64.5q-13 -4 -30.5 -5.5t-26.5 -2.5q-3 0 -5.5 -3.5t-2 -8t4.5 -9t12 -7.5q7 -3 12 -4t12 -3q-17 -25 -39 -60.5t-44 -71.5t-39.5 -69t-23.5 -53q-8 -24 -2.5 -23t15.5 21q12 28 36.5 68.5t50 79t47 68t27.5 37.5
q16 -2 43 -7.5t55 -13.5t53.5 -17.5t38.5 -19.5q20 -15 26 -33t1.5 -35.5t-17.5 -32t-31 -22.5q-42 -19 -93.5 -28t-102.5 -7q-6 0 -12 -2.5t-7 -6t4.5 -7t21.5 -4.5z" />
    <glyph glyph-name="C" unicode="C" horiz-adv-x="939" 
d="M341 -4q75 -2 154 15.5t163 52.5q157 66 248 159q7 7 7 11q0 5 -4 5q-5 0 -11 -7q-47 -43 -107 -78.5t-135 -66.5q-81 -32 -159.5 -49.5t-154.5 -19.5q-132 -3 -206 50q-63 46 -63 120q0 25 7 49q46 151 255 309q198 147 367 179q14 2 26.5 3t23.5 1q81 0 99 -40
q-43 -46 -86 -116q-57 -90 -57 -146q0 -4 16 -7q14 -1 17 0q57 32 98 82q36 40 49 74.5t13 73.5q0 40 -14 57q13 16 13 19q0 6 -5 7q-6 2 -7 -3l-13 -13q-33 30 -109 30q-27 0 -54 -3q-107 -13 -266 -99q-168 -91 -280 -205q-129 -131 -129 -240q0 -92 96 -149
q86 -53 208 -55zM734 447q13 52 48 119q18 35 37 61t38 46q10 -17 10 -45q0 -16 -3.5 -31t-9.5 -31q-34 -79 -109 -128q-5 -3 -9 0q-3 2 -2 9z" />
    <glyph glyph-name="D" unicode="D" horiz-adv-x="864" 
d="M670 706q-38 13 -93.5 21.5t-118 10t-126.5 -6t-119.5 -28t-97 -55t-59.5 -86.5q-14 -39 -6.5 -77.5t25.5 -73t41.5 -64t42.5 -50.5q18 -20 12.5 -25.5t-25.5 12.5q-68 66 -100.5 129t-21.5 126q11 60 53.5 102t102.5 68.5t131.5 38.5t141 14t130.5 -5t100 -19
q93 -30 157.5 -76t102 -101.5t47.5 -118t-6 -125t-58.5 -122t-110.5 -109.5q-25 -18 -65.5 -40t-87.5 -41t-97.5 -32t-95.5 -13q-44 0 -79 16.5t-52 56.5q-4 8 -6.5 8.5t-7.5 -8.5q-6 -16 -11.5 -31t-10.5 -36q-3 -17 -10.5 -17.5t-3.5 20.5q4 20 13 45.5t17 48.5
q2 5 1.5 6.5t-2.5 8.5q-20 50 24 53q4 0 2 0q-1 0 1 4q20 41 45 87.5t52 93t55 92t54 84.5t49 70.5t40 50.5q5 6 14 9.5t16 3.5q8 0 11.5 -3.5t-1.5 -10.5q-19 -24 -47.5 -64t-61.5 -88.5t-67 -101t-64 -101.5t-53 -90t-33 -66q-7 -14 -6.5 -33t8.5 -32q13 -24 42.5 -35.5
t68 -13t84 6t90.5 23t87.5 37t76.5 48.5q88 71 123.5 159t19 173.5t-86 158.5t-190.5 113z" />
    <glyph glyph-name="E" unicode="E" horiz-adv-x="805" 
d="M959 637q0 20 -22 27q-49 8 -110.5 15t-135.5 8q-13 0 -19 7t-9 15t-6 12.5t-9 0.5q-9 -7 -17 -14.5t-18 -18.5q-65 -4 -123.5 -9.5t-112.5 -17t-104.5 -31.5t-98.5 -51q-74 -50 -110.5 -107t-33.5 -135q0 -27 6 -55t15 -54.5t21 -50t26 -42.5q8 -11 14.5 -7.5t-0.5 15.5
q-29 44 -44.5 93t-12.5 101q5 71 44 124t92 89q43 26 93 44.5t101 30t100.5 17t91.5 5.5q-56 -68 -108 -139.5t-100 -143.5q-8 -2 -18.5 -3.5t-21.5 -3t-20 -3.5t-13 -6q-5 -5 -5 -11q0 -5 2.5 -10.5t6.5 -10t7 -6.5q5 -8 14 -9t17 -1q-12 -18 -25 -47t-24 -61t-17.5 -65.5
t-4.5 -60.5q3 -36 22 -59.5t43 -37t47.5 -19t36.5 -5.5q36 0 78.5 8t86 23t86 37t78.5 51q7 4 5.5 11t-12.5 1q-38 -22 -82 -39.5t-87 -30t-82.5 -20.5t-69.5 -10q-21 -2 -42.5 1t-39 13t-28.5 28t-11 45q1 36 10 71t22 67.5t28 61t28 51.5q19 5 48.5 9.5t65 8t73.5 6.5
t75 5t70 3.5t57 1.5q15 0 14.5 9t-14.5 11q-39 3 -85 4t-93 0.5t-94 -2.5t-87 -5q46 72 103.5 147t118.5 135q34 0 75.5 -2t82 -5t76 -7.5t57.5 -8.5q11 -4 22.5 -2.5t9.5 14.5z" />
    <glyph glyph-name="F" unicode="F" horiz-adv-x="870" 
d="M982 734q-11 10 -5.5 11t13.5 -4q25 -14 37.5 -38t10.5 -48.5t-20.5 -44t-54.5 -23.5q-56 -7 -114.5 4.5t-119.5 31.5t-125 44t-131.5 42t-138 26t-145.5 -3q-53 -9 -87.5 -42.5t-51 -82t-17 -105.5t14.5 -111.5t44 -101t72 -74.5q33 -20 71.5 -23t74 9.5t64 39.5
t40.5 67q1 3 8 4t7 -4q-6 -41 -35.5 -71t-68.5 -46.5t-80 -17.5t-69 16q-57 36 -94.5 90t-54.5 116.5t-14 126.5t27 120q22 51 60.5 80t88 40.5t106 9t115 -14.5t115 -30.5t106.5 -37.5q99 -39 179 -59t132 -20q53 0 73.5 20.5t0.5 62.5q-6 14 -14.5 23t-19.5 18zM712 615
q6 5 11 3t8 -7t2.5 -12.5t-6.5 -14.5q-6 -8 -22 -27.5t-35 -47t-39 -60.5t-34 -67q-4 -10 -2.5 -12t12.5 -4q24 -4 54.5 -5t60.5 -1t55 0.5t38 0.5q15 0 14 -4t-15 -6q-13 -4 -42 -6t-62.5 -2.5t-65.5 -1t-51 -1.5q-11 0 -16 -4.5t-8 -15.5q-12 -31 -24.5 -66.5t-22 -71
t-15 -69t-3.5 -60.5q0 -6 2 -8t4 -3.5t3.5 -4t0.5 -9.5q-6 -21 -18 -26t-14 16q-3 19 1.5 55.5t13 80t20.5 87.5t25 79q4 11 -4 15t-17 4q-6 0 -11 -1.5t-8.5 -3t-5 -1t-0.5 4.5q2 11 13 17t34 11q11 3 16.5 6t11.5 17q16 32 36.5 69t43.5 75q10 14 1 13t-23 -7
q-7 -3 -10 -2.5t-3 2.5q0 3 2 6t6 4q26 12 50 33t38 33z" />
    <glyph glyph-name="G" unicode="G" horiz-adv-x="857" 
d="M244 -91q-38 -43 -38 -94q0 -53 39 -86q43 -36 118 -34q68 2 169 70q91 59 227 303q45 13 51 16q9 11 17 20.5t13 17.5q-11 37 -28 54q44 87 68.5 135.5t31.5 60.5q8 3 14 4.5t8 3.5q27 28 45 99q3 9 1 23q-2 13 -8 13q-2 0 -5 -3q-16 -14 -27.5 -24t-19.5 -17
q-24 -31 -64 -125q-4 -5 -5 -6q-35 -34 -101.5 -75.5t-163.5 -89.5q-116 -58 -207 -85.5t-159 -26.5q-85 1 -126.5 30.5t-41.5 86.5q0 35 15 82q57 171 316 318q253 144 487 144h22t22 -1q77 -8 121 -53q11 -12 21 -26.5t18 -33.5q3 -7 7 -8q5 -1 5 4t-3 10q-18 59 -62 99
q-47 43 -110 46q-243 15 -518 -138q-284 -159 -348 -356q-7 -20 -10 -40t-3 -38q0 -75 56 -114q26 -18 60 -27.5t76 -7.5q63 1 142 23.5t176 68.5q80 38 149.5 80t132.5 87q11 8 12 8t1 -2q0 -4 -5 -15q-32 -68 -57 -120.5t-42 -92.5q-103 -19 -169 -33.5t-96 -22.5
q-165 -47 -224 -112zM724 62q-113 -215 -199 -283q-75 -60 -164 -63q-71 -1 -111 25q-34 27 -34 66q0 47 41 85q57 50 181 95q42 15 91 28t106 27zM806 163q13 -13 11 -33q-1 -19 -13 -28q-11 -6 -19.5 -10.5t-16.5 -6.5q12 26 22 45t16 33z" />
    <glyph glyph-name="H" unicode="H" horiz-adv-x="891" 
d="M217 586q-43 -31 -78.5 -68t-59.5 -75t-35.5 -76t-7 -69t27 -54.5t66.5 -32.5q12 -2 17.5 -6t5.5 -8t-6 -6t-18 0q-51 8 -78 37t-32 69.5t10.5 89.5t48.5 98t82.5 93t113.5 76q92 46 160.5 53t109.5 -19.5t51.5 -84t-13.5 -139.5q-3 -8 -10.5 -30.5l-15.5 -46.5t-21 -61
q44 0 88 -2.5t79 -5.5t79 -8q18 44 44 99t57 111t65.5 108.5t69 92t67.5 61t61 16.5q11 -3 19 -7.5t15 -18.5q9 -18 4 -21.5t-9 6.5q-18 33 -47.5 26.5t-65 -40t-73 -87t-72 -114.5t-62 -122.5t-35 -86t-1.5 -26t36 -5.5q10 -1 9 -7.5t-21 -6.5h-13q-4 0 -16 -1q-6 0 -9 -3
t-6 -12q-12 -32 -24.5 -75t-23 -85.5t-16.5 -79t-5 -55.5q1 -16 8 -17t18 5q23 14 38 36t29 51q5 12 10 12t1 -14q-15 -51 -42 -78.5t-47 -35.5q-8 -3 -20.5 -1t-19.5 21q-9 27 -3 70.5t18.5 90t26.5 89.5t22 68q2 9 0 11t-13 3q-66 8 -123 8t-95 -2q-12 0 -18 -5t-10 -13
q-7 -18 -18.5 -48.5t-24.5 -63.5t-24 -64t-16 -49q-2 -8 4 -6.5t29 12.5q12 6 16 2t-12 -13q-33 -20 -45 -39q-2 -4 -4.5 -8.5t-6 -6.5t-7.5 -0.5t-9 10.5q-6 11 2.5 43.5t24.5 73.5t34 83.5t30 74.5q3 12 -10 11t-32 -9q-15 -5 -21 -3t-6.5 7.5t3 12t6.5 9.5q7 6 17 9.5
t19.5 5t17.5 1.5q9 0 15 1q8 2 10 5.5t7 17.5q13 32 25 64.5t22 64t15.5 62t4.5 57.5q-2 53 -37.5 73.5t-88 16t-115 -30.5t-117.5 -66z" />
    <glyph glyph-name="I" unicode="I" horiz-adv-x="595" 
d="M-56 111q9 13 12 10.5t-2 -16.5q-15 -44 -20.5 -95.5t3 -95.5t32.5 -73.5t67 -27.5q33 2 66 26t62.5 56t52 65.5t34.5 53.5q13 23 33.5 64.5t44.5 94t49.5 112.5t49.5 121t44 119t33 107q-20 -15 -47 -38t-55 -50.5t-54.5 -59.5t-47.5 -66q-13 -23 -27 -53.5t-17 -60.5
q-2 -20 -7.5 -17.5t-4.5 17.5q4 29 12.5 66t25.5 63q19 34 48.5 65.5t61.5 59.5t64 53t56 46q6 15 12 31t12.5 30.5t13.5 25.5t15 15q7 3 10 -0.5t4 -11t-1 -16.5t-5 -16q-8 -16 -17 -32t-22 -30q-5 -20 -19.5 -66t-35.5 -106.5t-47 -130t-54 -136t-56 -124.5t-54 -96
q-13 -19 -34.5 -50.5t-51 -62t-66.5 -54t-81 -26.5q-32 -2 -55.5 13.5t-39.5 42.5t-23 61.5t-7 69.5t8.5 67.5t24.5 55.5z" />
    <glyph glyph-name="J" unicode="J" horiz-adv-x="664" 
d="M892 744q-29 -63 -63 -131.5t-68.5 -136t-67.5 -129t-58 -109.5q-4 -8 -2.5 -14.5t8.5 -6.5q8 0 7.5 -5t-8.5 -7q-4 -1 -13 -4.5t-17 -6.5q-55 -94 -114 -183.5t-130 -173.5q-36 -42 -77.5 -81t-89 -72t-101.5 -58.5t-117 -40.5q-45 -11 -77 -2t-46.5 33t-9.5 60.5
t35 80.5q33 49 83 97t109 92.5t125.5 84.5t132.5 73.5t129 59t117 42.5q32 61 66.5 128t67 132t61.5 126t50 110q-66 0 -133 -17.5t-127.5 -51.5t-111.5 -81.5t-87 -107.5q-15 -24 -29 -53.5t-21.5 -62t-6.5 -65.5t16 -63q5 -8 1 -10.5t-9 6.5q-14 25 -21.5 57.5t-7 68.5
t10 72.5t28.5 69.5q33 57 78.5 97.5t95.5 69t101 46.5t96 29.5t79.5 18t51.5 12.5q14 2 23.5 8.5t15.5 13.5q4 4 9 3t9.5 -4t6.5 -7t0 -7zM571 186q-84 -28 -178 -73t-184 -103t-168.5 -126t-131.5 -141q-30 -42 -37 -73t4.5 -49t38.5 -23t65 5q60 16 112 42.5t97 60
t83.5 71.5t71.5 76q25 28 56 71.5t62.5 91t60 93t48.5 77.5z" />
    <glyph glyph-name="K" unicode="K" horiz-adv-x="726" 
d="M371 190q224 346 233 435q2 14 -2.5 31t-16.5 37q-24 50 -66 53q-47 2 -113.5 -23.5t-151.5 -82.5q-179 -115 -216 -224q-1 -2 -1 -6t-1 -6q-2 -12 1 -21.5t9 -17.5t13 -14t12 -10q5 -3 16.5 -1.5t28.5 4.5q11 0 11 7q0 4 -13 7q-26 0 -39 7q-20 7 -20 24q0 8 4 20
q33 95 203 205q85 57 150.5 82.5t112.5 21.5q57 -3 57 -58q0 -18 -6 -33q-33 -97 -165 -332q-59 -105 -101.5 -174.5t-69.5 -107.5q-2 -2 -2 -6q0 -9 17 -9q11 0 14 6q20 33 97 120q40 46 65.5 70.5t37.5 29.5q161 -422 313 -491q41 -20 85 -20q85 0 169 78q8 9 8 14t-3 5
q-4 0 -15 -9q-68 -74 -156 -74q-41 0 -77 22q-52 31 -100 95.5t-95 163.5q-18 40 -41.5 100t-52.5 145q156 134 229 183q104 72 186 104t142 28q17 -3 17 5q0 7 -17 9q-111 8 -306 -110q-66 -42 -131.5 -89.5t-131.5 -103.5q-8 12 -17 8q-10 -6 -16 -41q-48 -42 -74 -68
q-12 -10 -16 -10q-5 0 -5 6q0 3 1.5 7.5t5.5 8.5z" />
    <glyph glyph-name="L" unicode="L" horiz-adv-x="791" 
d="M23 156q-2 15 23 35q11 8 19 13t16 7q5 1 11 1.5t11 0.5q51 0 146 -39q6 -3 39 -18t94 -44q60 161 100 248q47 108 90 181t81 113q11 11 26 22t37 24q27 14 50 22t43 8q60 2 108.5 -43t75.5 -129q1 -3 2 -5.5t1 -4.5q0 -9 -6 -9t-10 11q-12 32 -31 59.5t-44 51.5
q-49 48 -98 52q-63 6 -134 -74q-77 -86 -174 -298q-14 -30 -38.5 -89t-60.5 -150q40 -21 79.5 -43t79.5 -44q74 -39 140.5 -70t126.5 -55q168 -65 284 -68q91 -2 153 46q13 10 25.5 27t22.5 37.5t16.5 44t8.5 47.5q3 17 7 17q6 0 6 -18q0 -44 -22 -99q-23 -53 -51 -74
q-9 -5 -24 -11.5t-38 -12.5q-26 -8 -51.5 -11t-50.5 -4q-115 -3 -296.5 61t-429.5 194q-15 -46 -52 -77q-35 -32 -73 -34q-77 -2 -156 75q-78 71 -82 126zM262 -32q74 -2 105 106q-183 88 -275 102q-38 5 -38 -22q0 -9 5 -22q28 -66 92 -116q60 -47 111 -48z" />
    <glyph glyph-name="M" unicode="M" horiz-adv-x="1178" 
d="M483 414q-137 -271 -248 -391q-3 -4 -10.5 -9.5t-18.5 -10.5q-22 -13 -31 -13q-8 0 -8 22q0 59 108 200q43 57 89.5 108.5t97.5 100.5q22 42 40 85.5t33 88.5q27 84 27 120q0 34 -15.5 46t-52.5 8q-108 -12 -281 -148q-180 -141 -180 -229q0 -16 25 -25q26 -8 34 -6
q14 2 14 -2t-16 -9q-16 -6 -34 0q-11 4 -23 21t-12 37q0 62 92 156q85 85 198 152q115 69 180 74q30 1 62 -23q32 -25 31 -52q-2 -42 -21 -104.5t-54 -144.5q127 111 177 111q20 0 35 -16.5t13 -35.5q-15 -118 -139 -374q-8 -17 7 -17q8 0 14 10q96 127 264 292
q209 201 295 206q26 2 42 -29q14 -28 14 -56q0 -17 -5 -22q-56 -89 -93.5 -151.5t-57.5 -98.5q-101 -184 -119 -303q-1 -4 -1 -7v-7q0 -39 31 -32q14 4 33.5 14.5t44.5 29.5q47 36 70 65q9 12 14 12q3 0 3 -3q0 -6 -8 -17q-21 -31 -65 -68q-26 -23 -48.5 -36t-42.5 -19
q-17 -5 -32 19q-16 24 -16 49q-1 88 88 276q36 74 78 150t92 154q8 11 11 20.5t3 16.5q0 22 -30 22q-13 0 -28 -4q-89 -23 -286 -217q-173 -170 -305 -344q-10 -13 -31 -13q-16 0 -16 10q0 2 0.5 3.5l1.5 4.5q87 165 135.5 281t61.5 185q4 33 -23 33q-39 0 -112 -57
q-62 -47 -96 -89zM223 35q23 26 53.5 68.5t67.5 101.5q76 118 98 173q-58 -50 -127 -143q-82 -108 -109 -184q-11 -27 2 -27q7 0 15 11z" />
    <glyph glyph-name="N" unicode="N" horiz-adv-x="908" 
d="M549 733q-43 2 -97 -16t-120 -55q-59 -35 -111.5 -76.5t-99.5 -92.5q-94 -100 -97 -164q-3 -66 45 -75q25 -5 60 6q12 3 12 8q0 6 -12 4q-14 -3 -29.5 -2.5t-30.5 3.5q-26 5 -26 32q0 75 100 178q46 48 99 88t116 77q125 70 194 66q73 -6 73 -89q0 -14 -2.5 -29t-7.5 -31
q-43 -136 -286 -536q-2 -5 -3.5 -8.5t-1.5 -6.5q0 -11 13 -11q14 0 25 16q15 25 42.5 62t68.5 89q49 62 98 116t100 103q126 117 215 155q21 9 36 9q23 0 23 -21q0 -17 -11 -38l-145 -294q-16 -33 -39 -89t-48.5 -122.5t-50.5 -137t-45 -132t-32.5 -107t-13.5 -61.5
q0 -11 3 -23t9 -22t14 -17t19 -7q27 0 80 42q49 40 66 68q9 13 9 17q0 2 -2 4q-3 0 -15 -12q-104 -103 -146 -103q-16 0 -16 30q0 5 2 10.5t0 10.5q-8 16 2.5 61.5t32 107.5t51 133.5t59.5 139.5t57.5 125t45.5 90q35 67 71 131.5t72 131.5q2 4 2.5 10t0.5 12q0 14 -2 27.5
t-16 29.5q-11 13 -21 20.5t-24 4.5q-88 -14 -250 -173q-60 -58 -109.5 -112t-90.5 -106q-9 -16 -16 -16q-4 0 -4 4q0 7 7 18q80 134 125.5 226.5t59.5 146.5q5 23 5 46q0 53 -23 85q-25 39 -69 41z" />
    <glyph glyph-name="O" unicode="O" horiz-adv-x="785" 
d="M53 319q-12 -45 -12 -87q0 -107 81 -173q71 -57 174 -62q111 -6 234 51q135 62 225 164q52 61 83.5 127t42.5 140q1 5 1.5 11.5t0.5 13.5q0 90 -58 172q-68 101 -186 119q-36 6 -75 6q-98 0 -189 -36q-95 -40 -155 -109q-52 -63 -52 -119q0 -16 4 -29q-94 -92 -119 -189z
M675 712q-14 2 -28 3.5t-29 1.5q-113 0 -245 -64q-116 -55 -187 -126q-2 10 -2 20q0 50 48 101q54 57 144 93q94 39 192 39q14 0 29 -1t29 -3q60 -10 106.5 -33.5t78.5 -64.5q56 -73 56 -168q0 -120 -96 -238q-44 -55 -99.5 -99.5t-123.5 -80.5q-134 -70 -252 -64
q-112 5 -175 59.5t-63 147.5q0 20 3 40.5t8 42.5q12 40 44 96q17 27 32.5 46t29.5 32q11 -32 46 -60q19 -14 39 -21.5t42 -8.5q16 -3 16 7q0 7 -11 7q-41 0 -78 28q-17 14 -28 29.5t-13 32.5q39 56 165 121q145 77 265 77q30 0 56 -6q11 -3 11 7q0 6 -10 7z" />
    <glyph glyph-name="P" unicode="P" horiz-adv-x="768" 
d="M530 267q-21 -11 -21 -19q0 -6 10 -11t26 -8.5t37 -5.5t44 -2q112 0 192 33q117 46 117 156q0 122 -128 233q-48 44 -101 79.5t-113 65.5q-79 38 -157.5 59.5t-159.5 25.5q-95 6 -166 -37q-62 -38 -70 -93q-3 -15 -3 -33q0 -52 15 -101q18 -58 47 -84q5 -8 10 -8l2 2
q0 4 -5 12q-45 67 -45 173q0 19 3 39q20 114 177 114q72 0 144.5 -17t149.5 -52q70 -32 133 -75.5t120 -96.5q105 -101 105 -213q0 -91 -79 -131q-34 -18 -77.5 -28t-96.5 -10q-57 0 -89 16q-17 5 -21 17zM164 -40q13 -5 30 -5q19 0 36.5 4t32.5 13q110 59 234 302
q75 146 131 305q3 7 1 26q-2 18 -5 18q1 0 -3 -4q-53 -159 -177 -374q-136 -236 -206 -262q-20 -5 -35.5 -6.5t-27.5 3.5q-29 12 -46 33q-9 9 -13 9q-5 0 -5 -6t6 -15q17 -26 47 -41z" />
    <glyph glyph-name="Q" unicode="Q" horiz-adv-x="1066" 
d="M408 557q2 7 3.5 13t3.5 11q30 72 138 127q116 60 254 57q73 -3 130.5 -25t100.5 -66q82 -80 82 -199q0 -67 -31 -135q-78 -172 -271 -269q-78 -38 -154.5 -58.5t-154.5 -22.5q-238 -6 -238 179q0 34 6 69q12 55 47.5 119t97.5 137q108 130 202 180q14 8 14 15q0 4 -7 4
t-16 -6q-63 -34 -118 -79.5t-108 -104.5q-112 -131 -136 -253q-2 -15 -3.5 -30.5t-1.5 -31.5q0 -101 45 -138q-19 10 -45 20t-58 20q-64 22 -82 21q-12 -1 -44 -24q-32 -27 -33 -37q-2 -11 3 -24t19 -30q25 -35 42 -35q16 0 -1 17q-14 12 -21 23.5t-9 19.5q-5 8 -5 19
q0 27 35 27q5 0 12.5 -1t15.5 -3q50 -13 118.5 -40t159.5 -71q130 -65 204 -101.5t97 -46.5q166 -71 277 -71q15 0 28.5 1t27.5 4q17 2 40 16t52 38q63 51 69 87q3 23 -7 60q-5 19 -9 31t-9 18q-5 9 -11 12q-3 1 -3 -3q-1 -3 -0.5 -6t1.5 -8q10 -34 10 -68q0 -41 -15 -70.5
t-44 -51.5q-47 -33 -117 -35q-44 -2 -112 18t-162 61q-37 17 -100 47.5t-153 76.5q33 -6 69 -6q88 0 176 29.5t178 89.5q91 60 146 124.5t78 135.5q22 69 22 137q0 135 -84 222q-87 93 -242 97q-133 6 -254 -60q-57 -29 -95 -65.5t-58 -78.5q-6 -16 -4 -29q2 -10 4 -10
q3 0 8 10z" />
    <glyph glyph-name="R" unicode="R" horiz-adv-x="820" 
d="M455 217q0 21 20 21q6 0 10.5 -4.5t23.5 -10.5q31 -2 67.5 4t81.5 18q89 26 149 63q105 64 105 169q0 100 -87 175q-68 61 -194 97q-123 36 -260 36q-63 0 -120 -8t-109 -23q-98 -30 -98 -108q0 -29 14 -60q8 -16 15 -32q0 -1 -3 -1t-11 8q-30 33 -30 82q0 90 108 125
q106 34 241 34q139 0 263 -34q129 -35 202 -92q107 -83 107 -188q0 -119 -134 -194q-52 -30 -134 -55q-46 -14 -88 -22t-82 -10q-7 0 -5 -13q8 -47 42 -127q37 -86 69 -118q34 -34 64 -34q13 0 26 5q4 1 6.5 1.5t4.5 0.5q4 -2 3 -3q-1 -4 -8 -7q-19 -11 -41 -11
q-32 0 -75 33q-29 23 -86 135t-57 148zM630 569q-45 -68 -90.5 -135t-89.5 -135q-71 -108 -103.5 -174t-29.5 -92q1 -10 -18 -10q-18 0 -21 12q-15 48 321 522q11 11 5 24q-2 4 -2 5q0 9 8 9q5 0 10 -5q15 -16 10 -21z" />
    <glyph glyph-name="S" unicode="S" horiz-adv-x="629" 
d="M129 202q-88 -37 -88 -97q0 -64 82 -92q55 -20 132 -20q52 0 100.5 10t94.5 29q107 45 107 145q0 49 -28 96q11 2 61 3q36 1 36 6q0 4 -11 4q-31 -1 -56 -1h-41q-60 80 -105.5 137.5t-74.5 93.5q-49 73 -49 121q0 60 60 102q119 89 304 89q34 0 64 -3t56 -11
q43 -12 69 -44q28 -36 28 -86q0 -17 -2.5 -31.5t-1.5 -18.5q1 -5 4 0q4 4 8 14q6 15 8.5 29.5t2.5 28.5q0 43 -25 81q-27 32 -63 45q-48 15 -121 15q-199 0 -347 -95q-70 -45 -70 -112q0 -61 58 -137q49 -66 89 -120.5t74 -99.5q-108 -9 -196.5 -29.5t-158.5 -51.5zM492 269
q34 -41 34 -91q0 -76 -89 -121q-45 -22 -93 -33.5t-101 -11.5q-31 0 -60 3t-58 11q-23 6 -41 22q-26 23 -26 44q0 45 85 88q76 40 195 64q28 6 66.5 12.5t87.5 12.5z" />
    <glyph glyph-name="T" unicode="T" horiz-adv-x="714" 
d="M1019 678q-32 2 -92 11t-136 22q-31 -51 -66 -112.5t-70.5 -127.5t-69.5 -132.5t-62.5 -128t-50 -114.5t-31.5 -91q-5 -19 -1.5 -35t8.5 -27q3 -8 -2 -14.5t-12 -8.5t-13.5 2.5t-6.5 18.5q-1 33 16.5 90.5t46.5 128.5t66 150t75 154t74 141t62 112q-71 11 -148.5 22
t-153 18.5t-144.5 10.5t-122 -3q-20 -2 -47 -8.5t-48.5 -20t-32.5 -35.5t3 -55q16 -40 42.5 -81t49.5 -69q9 -12 12 -17.5t1 -6t-7.5 3t-11.5 9.5q-35 35 -59 66t-44 68q-19 34 -9.5 63t33.5 50.5t54.5 35.5t54.5 19q40 8 108 7t149.5 -7t170 -15t169.5 -18q8 11 13.5 19.5
t10.5 13.5q4 4 2.5 8.5t-5.5 3.5q-5 -1 -12 -2.5t-13 -4.5q-11 -4 -11 1t9 10q12 10 33 23.5t36 16.5q14 2 20.5 -9t-1.5 -23q-18 -29 -41 -61q69 -8 125 -13t90 -5q17 0 22.5 9t3.5 18q-2 10 -3.5 17t-6.5 18q-8 20 -2.5 23t16.5 -15q3 -5 7.5 -14t8.5 -19.5t4.5 -22.5
t-3.5 -22q-4 -5 -8.5 -13.5t-12.5 -15.5q-10 -8 -18 -13.5t-19 -3.5z" />
    <glyph glyph-name="U" unicode="U" horiz-adv-x="961" 
d="M829 1q10 37 36.5 98.5t71.5 150.5q42 81 73 135.5t53 83.5q4 11 6.5 21l4.5 18q2 10 -4 17.5t-15 7.5t-13 -6q-20 -21 -34 -38t-28 -28q-65 -57 -130.5 -112.5t-131.5 -109.5q-104 -87 -177.5 -138.5t-116.5 -70.5q-15 -8 -30 -8q-28 0 -28 28q0 8 3 17q7 33 28 79
t55 105q56 97 84 147t30 54q60 115 63 191q1 38 -36 80q-39 44 -76 45q-142 6 -286 -86q-133 -84 -185 -192q-17 -35 -17 -73q0 -26 7 -48q6 -19 23 -38t44 -40q7 -4 11 -4q6 0 6 4q0 6 -8 10q-62 41 -62 105q0 20 4 38t13 35q31 55 79 103t115 89q137 84 256 75
q43 -3 67 -33q22 -28 22 -57q0 -31 -16 -76.5t-50 -103.5q-32 -54 -63.5 -106t-63.5 -105q-74 -124 -85 -196q-2 -14 2 -27t12.5 -23t20 -15.5t23.5 -5.5q6 0 12 2q39 12 114 63t188 141q171 138 266 227q7 8 13 8q10 0 1 -26q-1 -2 -20 -44t-57 -127q-71 -155 -86 -213
q-7 -28 -7 -65q2 -17 11 -17q10 0 12 14q0 31 -4 40z" />
    <glyph glyph-name="V" unicode="V" horiz-adv-x="676" 
d="M340 16q53 63 104.5 125.5t104.5 124.5q75 88 141 154.5t123 112.5q153 127 257 127q9 0 18 -1t19 -3q12 -3 12 2q0 2 -12 9q-24 7 -51 7q-143 0 -371 -228q-69 -70 -158 -174.5t-198 -245.5q-12 -16 -21 -16t-12 18q-2 14 0 28q12 73 117 325q48 118 73.5 194.5
t26.5 111.5q1 42 -31 71q-30 28 -71 25q-117 -15 -238 -135q-123 -122 -137 -241q-2 -19 12 -44q8 -13 14.5 -19.5t12.5 -8.5q9 -8 19 -8q15 3 15 12q0 6 -10 7q-8 2 -14 2.5t-9 2.5q-22 13 -19 53q9 95 120 212q120 126 245 144q5 1 10 1h9q44 0 44 -44v-14q-1 -5 -1 -7v-4
q-3 -68 -108 -309q-54 -124 -82 -205.5t-31 -123.5q0 -9 3 -19t8.5 -18.5t13.5 -14t18 -5.5q18 0 34 19z" />
    <glyph glyph-name="W" unicode="W" horiz-adv-x="1094" 
d="M385 1q18 23 32.5 44t26.5 35q112 132 197 230t144 166q7 7 13 7t6 -9t-4 -16q-97 -185 -97 -342v-20q0 -8 1 -17q3 -40 30 -65t65 -25q5 0 10.5 0.5t11.5 1.5q68 15 181 120q57 54 104.5 111t86.5 121q90 144 90 243q0 76 -31 111q-9 11 -15 11q-3 0 -3 -4q0 -6 7 -13
q21 -34 20 -105q-2 -52 -25 -113t-69 -133q-77 -122 -186 -223q-109 -102 -164 -109q-4 -1 -8 -1h-8q-33 0 -54 20.5t-20 52.5q1 99 33 197q14 43 37.5 95.5t55.5 113.5q2 4 2 10q0 14 -9 30t-20 20q-8 2 -16 -15q-15 -23 -15 -25q-104 -119 -188.5 -215t-149.5 -171
q-9 -9 -15 -10q-6 -2 -6 6q0 3 5 15q44 72 81.5 144t69.5 147q81 187 78 276q-2 46 -44 76q-44 33 -95 27q-140 -20 -315 -143q-176 -125 -198 -221q-2 -5 -2 -15q0 -21 9 -42.5t21 -27.5q25 -13 60 0q12 2 12 6q0 2 -11 2q-43 0 -59 13q-21 19 -6 64q37 106 226 225
q93 57 166.5 86.5t130.5 29.5q78 0 86 -80q14 -124 -305 -676q-2 -6 -2 -10q0 -18 26 -18q10 0 15 7z" />
    <glyph glyph-name="X" unicode="X" horiz-adv-x="770" 
d="M0 -118q11 38 29 75t46 75q52 72 174 169q55 45 113 84.5t121 76.5q0 -1 -0.5 -12t-0.5 -31v-54q0 -180 48 -225q12 -12 27 -22t30.5 -17.5t29.5 -11.5t23 -2q62 9 165 80q11 5 5 11q-4 6 -14 0q-45 -30 -84.5 -45.5t-74.5 -18.5q-59 -3 -90 41t-31 182q0 58 6 145
q49 28 103.5 60.5t114.5 72.5q164 105 208 157q4 4 4 13q0 38 -15 38q-2 0 -4 -2q-17 -17 -31 -28.5t-23 -16.5q4 -21 -10 -34q-69 -56 -154.5 -112.5t-188.5 -115.5q8 86 10.5 150t0.5 108q0 11 -21 29q-20 18 -35 18q-28 2 -59.5 -12.5t-69.5 -42.5q-35 -28 -62 -57.5
t-42 -60.5q-1 -1 -3 -8q-2 -6 0 -10q2 -2 5 0q2 1 3.5 3.5t3.5 5.5q91 128 192 152q41 9 46 -30q1 -9 1.5 -18.5t0.5 -22.5q0 2 -3.5 -54.5t-10.5 -172.5q-59 -35 -117.5 -74t-119.5 -87q-69 -54 -117.5 -100t-74.5 -84q-58 -80 -67 -165q-2 -20 2 -20q6 0 11 21z" />
    <glyph glyph-name="Y" unicode="Y" horiz-adv-x="927" 
d="M789 50q-328 -51 -458 -151q-49 -39 -49 -88q0 -40 34 -67q36 -30 97 -31q73 -2 169 53q61 34 122 110q21 26 47.5 63.5t58.5 90.5q17 5 29.5 9t20.5 5q6 1 13 7t16 17q19 25 19 34q0 3 -3 10.5t-7.5 15.5t-10.5 16.5t-11 13.5q35 78 66 145t58 127l19 19t16 13
q10 10 1 31q-2 2 -4 2q-19 0 -29 -15q-11 -17 -20.5 -31t-17.5 -25l-2 -5q-49 -51 -118.5 -107t-160.5 -119q-197 -136 -317 -169q-24 -6 -33 -6q-14 0 -14 14q0 6 2.5 15.5t8.5 21.5q18 44 101 164q51 72 84 122.5t50 79.5q35 57 51.5 102.5t16.5 79.5q0 51 -50 99
q-49 47 -108 46q-121 -3 -263 -98q-135 -90 -173 -190q-11 -26 -11 -63q0 -35 11 -58q18 -43 85 -55q19 -3 19 3t-14 7q-9 1 -19.5 5.5t-21.5 12.5q-26 17 -34 35t-8 41q0 28 16 66q46 100 191 190q71 43 130.5 63.5t108.5 15.5q110 -8 110 -97q0 -73 -67 -188
q-13 -21 -46 -72t-87 -131q-82 -121 -99 -176q-4 -9 -4 -20q0 -13 4.5 -24.5t12 -19.5t16 -12t17.5 -1q62 17 141 58t176 107q149 102 276 214q5 5 6 1q1 -1 -2 -11q-19 -41 -38.5 -81.5t-39.5 -81.5q-61 -127 -80 -152zM776 24q-32 -50 -53.5 -82t-32.5 -48
q-56 -72 -117 -113q-79 -52 -162 -53q-114 -2 -114 73q0 45 46 81q72 57 231 99q54 15 104 25.5t98 17.5zM870 147q19 -26 18 -47q-1 -20 -22 -32q-14 -4 -24 -7t-18 -4q15 29 26.5 51t19.5 39z" />
    <glyph glyph-name="Z" unicode="Z" horiz-adv-x="741" 
d="M265 381q2 -6 3 -11.5t0 -8t-5 0t-11 12.5q-8 12 -17 29.5t-17 37t-14 38t-7 30.5q-2 12 -1.5 31t9 38t29 35.5t60.5 24.5q29 6 68 6t83 -3.5t90.5 -9t90.5 -11t82 -9.5t66 -4q5 0 13.5 4t12.5 5q9 3 15.5 -0.5t9 -9.5t0.5 -13.5t-11 -11.5q-8 -4 -14.5 -6t-14.5 -2
q-5 0 -9 -2t-10 -6q-35 -13 -63 -34t-54 -49t-52.5 -62.5t-57.5 -74.5q-3 -5 -4 -8t5 -3h50q9 0 11.5 -3t0 -6t-8.5 -5.5t-13 -2.5h-54q-5 0 -7 -1t-4 -5q-18 -27 -46 -63.5t-59 -72t-62.5 -65t-57.5 -41.5q-10 -5 -10.5 -9.5t7.5 -6.5q38 -13 80.5 -26.5t85.5 -25t84 -19.5
t77 -11q22 -2 48 -0.5t43 12.5q15 11 19 6.5t-9 -12.5q-12 -7 -21 -11.5t-19 -7t-24.5 -3t-36.5 0.5q-48 1 -103 10t-106 21t-94 24.5t-67 21.5q-7 3 -18 -3q-14 -9 -39.5 -15.5t-51.5 -7.5q-11 -1 -29.5 2.5t-38 11t-37 19t-26.5 28.5q-11 18 -2.5 34t38.5 16
q19 1 45.5 -3.5t53.5 -12t52 -15.5t41 -14q5 -2 10 -2.5t13 4.5q23 15 51 43t56 60.5t54 66t45 60.5q3 5 6.5 8t-7.5 3h-72q-6 0 -9 2.5t-2.5 6.5t4.5 7t11 3h16h25h26h16q5 2 6 1.5t3 3.5q70 94 131 149t119 80q7 3 12 5.5t5.5 5t-3.5 5t-15 5.5q-23 4 -71.5 11.5
t-107.5 12.5t-121 4t-113 -13q-27 -6 -43.5 -17t-25.5 -24t-11.5 -26t-1.5 -22q5 -68 27 -135zM32 65q10 -12 28 -20.5t39 -12t43 -3t40 6.5q9 3 14 6t-6 8q-15 5 -36 11l-42 12t-39.5 10.5t-28.5 6.5q-8 3 -16 -3.5t4 -21.5z" />
    <glyph glyph-name="bracketleft" unicode="[" horiz-adv-x="587" 
d="M280 693q16 26 30.5 49t24.5 28q10 3 25.5 1t19.5 -19q19 4 47.5 6.5t56.5 3t51.5 -1.5t34.5 -8q7 -2 7.5 -6.5t-2.5 -10t-7 -11t-5 -9.5q-20 7 -49.5 8.5t-61.5 -2t-62.5 -11t-52.5 -16.5q-49 -70 -97 -158.5t-90 -182t-74.5 -185.5t-49.5 -169q-2 -16 -2.5 -25t2 -14
t8.5 -7.5t18 -6.5q27 -9 69 -11t85.5 0.5t80 8.5t51.5 14q9 5 15 4.5t7 -4.5t-3.5 -11t-16.5 -15q-14 -9 -47.5 -17t-74.5 -13.5t-84.5 -8.5t-77.5 -1q-16 0 -26.5 11.5t-17 28t-9.5 35.5t-4 36q-2 25 7 63.5t23 82t30.5 86t29.5 75.5z" />
    <glyph glyph-name="backslash" unicode="\" horiz-adv-x="455" 
d="M612 -78q4 -21 11 -21q2 6 2 24q-9 67 -263 318q-118 115 -215 201t-175 143q-9 8 -19 8q-9 0 -9 -8q0 -9 12 -16q81 -60 177.5 -144t209.5 -193q249 -239 269 -312z" />
    <glyph glyph-name="bracketright" unicode="]" horiz-adv-x="474" 
d="M374 354q13 33 29.5 75.5t30.5 86t23 82t7 63.5q-1 16 -4 35.5t-9.5 36t-17 28t-26.5 11.5q-34 2 -77.5 -0.5t-84.5 -8t-74.5 -13.5t-47.5 -17q-12 -8 -16.5 -15t-3.5 -11.5t7 -5t15 4.5q15 8 51.5 14.5t80 9t85.5 0t69 -11.5q12 -4 18 -6.5t8.5 -7.5t1.5 -14t-2 -25
q-17 -77 -49.5 -169t-74 -185.5t-90 -182t-96.5 -158.5q-23 -9 -53.5 -16.5t-62.5 -10.5t-61.5 -2t-49.5 8q-1 -5 -5 -10t-7 -10.5t-3 -9.5t8 -7q10 -6 34 -8t52 -1.5t56.5 3t48.5 6.5q1 -8 6.5 -12.5t12.5 -6t13 -1.5q7 0 12 2q10 5 24.5 28t30.5 49z" />
    <glyph glyph-name="asciicircum" unicode="^" horiz-adv-x="376" 
d="M503 591q-28 -7 -61.5 -19.5t-74.5 -29.5q-12 -7 -12 2q0 3 2 5l4 4q8 5 29.5 16t56.5 30q57 32 59 31q6 -2 100 -80q4 -4 4 -8q0 -3 -5 -5t-9 3q-12 8 -25 16t-25 16q-35 20 -43 19z" />
    <glyph glyph-name="underscore" unicode="_" horiz-adv-x="515" 
d="M45 -41h427q25 0 25 8q0 5 -18 5h-425q-29 0 -29 -7q0 -6 20 -6z" />
    <glyph glyph-name="grave" unicode="`" horiz-adv-x="266" 
d="M521 531q-39 38 -69.5 66.5t-53.5 49.5q-4 4 -10 4q-22 0 -22 -22q0 -6 6 -10q45 -30 80.5 -54.5t62.5 -42.5q4 -3 9 0q2 5 -3 9z" />
    <glyph glyph-name="a" unicode="a" horiz-adv-x="421" 
d="M55 13q63 37 151 111q44 38 77.5 70t57.5 61q2 2 3 2q8 0 1 -11q-17 -26 -33.5 -57t-33.5 -67q-14 -30 -28 -69t-26 -78.5t-19.5 -74.5t-8.5 -56q-1 -26 6.5 -46.5t26.5 -31.5q16 -11 36 -18.5t44 -7.5q16 0 30 2.5t28 7.5q28 10 61.5 32t75.5 56q45 38 77.5 76t55.5 72
q4 7 4 11q0 2 -1 3q-3 0 -12 -10q-24 -31 -56.5 -66t-73.5 -68q-85 -68 -138 -86q-35 -12 -71 -12t-57 16.5t-21 50.5v10q0 4 1 9q4 29 16 71t28.5 88.5t36.5 92t41 80.5q27 45 55.5 88.5t57.5 88.5q1 2 -2 7t-7 5t-6 -2q-8 -10 -26 -13q-2 -1 -19 1q-12 4 -24 6.5t-24 2.5
q-11 0 -21.5 -2.5t-19.5 -5.5q-39 -16 -84 -47.5t-96 -82.5q-111 -111 -111 -182q0 -35 25 -35q10 0 23 8zM71 98q14 32 37.5 67t57.5 73q72 79 119 91q12 3 23 3q20 0 33 -9.5t13 -20.5q0 -4 -3 -7q-71 -85 -133 -144.5t-118 -94.5q-8 -5 -15 -5q-18 0 -18 24q0 12 4 23z
" />
    <glyph glyph-name="b" unicode="b" horiz-adv-x="458" 
d="M142 326l0.5 0.5t0.5 1.5q-1 -3 -3 -7v2l-1 -1q0 -1 -1 -1.5t-1 -1.5v-3q-1 -5 -3 -5q-37 -86 -65 -152t-48 -112q-10 -14 -14 -24q0 -8 5.5 -15t13.5 -9q4 -2 6 -2q103 -2 226 72q122 73 180 170q4 8 7 15.5t5 14.5q1 37 -33 37q-12 0 -20 -4q-29 -12 -73.5 -37.5
t-104.5 -65.5q-49 -32 -82 -54.5t-50 -38.5q4 12 8.5 26.5t12.5 31.5q20 57 37 97t31 66q152 29 299 70t291 96q415 157 510 338q19 38 22 74q12 119 -101 214q-111 95 -256 87q-423 -27 -795 -866v-7q4 8 2.5 6t-3.5 -8q-1 -1 -3 -5zM1255 858q-83 -168 -422 -317
q-284 -124 -651 -199q112 269 267 484q249 351 492 362q142 5 243 -79q98 -80 89 -187q-3 -17 -7 -32.5t-11 -31.5zM102 102q23 17 55 41t76 53q108 72 130 72q24 0 22 -31l-4 -16q-26 -62 -108 -122q-39 -28 -76.5 -46.5t-75.5 -26.5q-36 -7 -46 -4q-8 1 -5 15l-1 4
q1 1 1 2t1 2q0 1 -1 1v1q8 35 32 55z" />
    <glyph glyph-name="c" unicode="c" horiz-adv-x="362" 
d="M331 344q16 19 16 37t-10.5 30t-28 17t-36.5 -1q-24 -8 -52 -25.5t-56 -43t-54.5 -57t-47.5 -66.5t-34.5 -72t-15.5 -73q-1 -20 9 -38t25.5 -30.5t33 -19t32.5 -3.5q19 3 38 10.5t37 16.5t33 18.5t26 17.5q8 5 4.5 8.5t-11.5 -1.5q-28 -16 -65.5 -30t-70.5 -18
q-13 -1 -25.5 1.5t-22 10t-15 21.5t-4.5 36q4 48 28 90t47 73l12 16q34 38 71.5 72.5t74.5 55.5q15 8 26.5 8.5t17.5 -6t5 -18.5t-11 -28q-12 -17 -38 -39t-49 -39q40 9 67 28.5t44 40.5zM220 277q0 -1 -1 -1v-1q1 1 1 2z" />
    <glyph glyph-name="d" unicode="d" horiz-adv-x="433" 
d="M404 340q-17 5 -30.5 7.5t-24.5 2.5t-21.5 -2.5t-19.5 -5.5q-75 -30 -181 -130q-118 -112 -118 -179q0 -34 37 -34q4 0 10 2q64 26 164 117q44 38 78 74.5t60 68.5q3 4 6 4q11 0 5 -17q-58 -153 -58 -211q0 -14 3.5 -26t8.5 -20q11 -12 22 -6q4 1 8 7q3 6 -2 8
q-5 1 -9 1.5t-8 1.5q-6 7 -6 11q-1 105 93 288q22 43 44 82.5t44 77.5q17 -1 34 -1h36q385 0 787 188q108 50 165 124q51 66 51 140q0 97 -82 167q-87 72 -214 72q-77 0 -155 -28q-234 -81 -463 -374q-23 -29 -48 -64.5t-54 -78.5h-2q-99 -21 -147 -74q-7 -7 -7 -17
q0 -16 11 -30.5t25 -16.5q7 -2 14.5 -3t15.5 -2q-17 -29 -35 -60t-37 -64zM1137 1112q69 29 143 29q112 0 196 -60q84 -57 84 -144q0 -134 -208 -254q-358 -208 -775 -208h-31t-28 1q294 498 619 636zM73 87q26 64 103 141q39 38 70.5 61t57.5 29q13 3 26 3q36 0 36 -23
q0 -11 -12 -26q-61 -71 -124 -126t-129 -98q-8 -5 -16 -5q-17 0 -17 22q0 12 5 22zM448 484q-22 3 -22 20q0 11 7 18q21 25 52 44t75 31q-17 -27 -35.5 -56.5t-38.5 -61.5q-11 1 -20.5 2t-17.5 3z" />
    <glyph glyph-name="e" unicode="e" horiz-adv-x="338" 
d="M465 308q5 7 1.5 9t-8.5 -5q-12 -11 -33.5 -22t-42.5 -13q-16 -2 -38.5 -3t-48.5 -1.5t-55 -0.5h-55q50 8 89 27t54 47q9 15 7.5 33t-10 32.5t-23.5 22t-34 1.5q-35 -14 -78.5 -48.5t-83 -82t-67 -102.5t-30.5 -110q-1 -20 9 -37.5t25 -30.5t33 -19.5t33 -3.5
q18 3 37.5 10.5t37.5 16.5t33 18.5t26 17.5q8 5 4 8.5t-12 -1.5q-27 -15 -64.5 -29t-70.5 -19q-13 -1 -25.5 1.5t-22 10t-15 21.5t-4.5 36q1 24 9 46.5t19 43.5t23.5 39.5t23.5 33.5h70t80 1t73.5 2t50.5 4q28 4 50.5 19.5t32.5 26.5zM304 355q-12 -18 -32.5 -33
t-45.5 -26.5t-53 -17.5t-54 -6q34 37 72 71.5t75 55.5q15 8 26.5 8.5t17.5 -6t5 -18.5t-11 -28z" />
    <glyph glyph-name="f" unicode="f" horiz-adv-x="255" 
d="M-550 -186q14 5 14.5 1.5t-13.5 -9.5q-51 -23 -92 -70.5t-58 -113.5q-14 -55 0.5 -97t49 -66t84.5 -26.5t108 22.5q57 25 115 79.5t114.5 126.5t109.5 154.5t99.5 162.5t84.5 151.5t65 121.5q8 14 2 21.5t-13 12.5q-8 5 -17.5 9.5t-5.5 13.5q2 8 12 7.5t16 -0.5
q11 0 22 -1t23 1q17 25 36.5 52t40.5 53t43 49t44 40q21 16 46.5 30.5t53 25t55.5 15t54 0.5q12 -2 20.5 -11.5t8.5 -15.5q0 -2 -2 -6.5t-5 -9t-6.5 -7t-6.5 -0.5q-17 17 -39 26t-45 6q-41 -6 -79.5 -35t-72.5 -67t-61.5 -77.5t-44.5 -67.5h164q8 0 7.5 -5t-11.5 -5
q-39 -1 -78.5 -3.5t-82.5 -4.5q-8 -1 -11 -3t-5 -5q-25 -43 -65 -115.5t-90.5 -158t-109 -176.5t-121.5 -170.5t-128.5 -140t-128.5 -85.5q-75 -30 -132 -23.5t-93.5 36t-50.5 75t-3 93.5q7 33 25.5 63t43.5 55t53.5 43.5t56.5 28.5z" />
    <glyph glyph-name="g" unicode="g" horiz-adv-x="431" 
d="M394 287q4 0 6 -2q8 -2 14.5 -9t6.5 -15q-2 -12 -11 -24q-16 -48 -38.5 -116t-53.5 -158q153 27 289 27q25 0 43.5 -1.5t32.5 -3.5q11 -2 22.5 -9t21 -17.5t15.5 -22.5t6 -25q0 -12 -5 -22q-13 -25 -65 -66q-9 -8 -15 -8q-2 0 -2 1q0 6 10 13q59 55 59 99q0 36 -49 40
q-14 1 -32.5 1.5t-41.5 0.5q-91 0 -164.5 -5.5t-131.5 -18.5q-295 -841 -715 -868q-144 -8 -264 87q-121 95 -121 213q0 37 16 75q76 179 479 338q274 109 574 166q23 52 54 163q5 17 8.5 31.5t7.5 26.5q-17 -16 -47.5 -38.5t-75.5 -54.5q-57 -40 -99 -65.5t-71 -38.5
q-8 -3 -19 -3q-36 0 -36 36q0 14 9 31q47 96 164 170q117 73 219 72zM-749 -574q-12 -32 -12 -64q0 -106 105 -187q111 -85 250 -79q242 9 460 362q67 109 122.5 229t99.5 255q-361 -76 -632 -199q-327 -152 -393 -317zM333 182q25 19 28 55q0 1 -0.5 1t-0.5 1q0 3 1 4
q0 18 -7 19q-11 4 -46 -5q-73 -17 -145 -72q-76 -60 -97 -122q-1 -5 -1.5 -8t-0.5 -8q0 -32 24 -32q21 0 123 73q41 29 71.5 52.5t50.5 41.5z" />
    <glyph glyph-name="h" unicode="h" horiz-adv-x="521" 
d="M266 430q16 -1 33 -1.5t34 -0.5q390 0 792 189q110 51 165 124q51 66 51 140q0 97 -82 167q-86 72 -214 72q-77 0 -155 -28q-146 -51 -286.5 -178.5t-280.5 -338.5q-98 -21 -147 -73q-3 -4 -5 -8t-2 -10q0 -14 11 -29t25 -18q9 -2 16.5 -3t12.5 -2
q-72 -124 -127.5 -226.5t-95.5 -187.5q-1 -3 -1 -8q0 -16 8 -16q3 0 5 5q9 12 11 8q45 54 129 135q100 96 156 126q11 7 20 7q15 0 15 -14q0 -8 -4 -13q-88 -116 -107 -195q-5 -23 18 -41q19 -18 37 -18q58 0 188 106l7 7l-1 1q0 1 -1 2q-1 -1 -3.5 -2t-5.5 -3
q-111 -84 -160 -84q-27 0 -27 26q0 36 49 125q21 37 40 66.5t36 50.5q1 1 1 5q0 8 -9 15.5t-15 6.5q-35 -9 -39 -14q-33 -3 -125 -76q-38 -32 -74 -64t-68 -64q-14 -14 -22 -23t-13 -13q56 102 108 193t102 175zM275 447q146 248 300 405.5t322 227.5q69 29 142 29
q112 0 196 -60q84 -57 84 -144q0 -133 -208 -254q-98 -57 -203 -98t-218 -68q-89 -20 -173.5 -30.5t-167.5 -10.5q-20 0 -38.5 1t-35.5 2zM244 449q-3 0 -11.5 1t-22.5 3q-22 3 -22 20q0 11 8 19q20 23 49.5 41.5t71.5 30.5q-18 -28 -36.5 -57t-36.5 -58z" />
    <glyph glyph-name="i" unicode="i" horiz-adv-x="230" 
d="M302 130q-12 -12 -36.5 -31t-54 -39.5t-59.5 -38.5t-52 -28q-6 -2 -18.5 0t-25 9.5t-22 20t-9.5 30.5q0 16 8 41.5t20 54t26 58t26 54t20 42t9 21.5q2 12 12 16.5t19 1.5t13 -14t-5 -29q-34 -64 -52.5 -98.5t-26.5 -50.5t-9.5 -19.5t-2.5 -6.5t-4.5 -11t-15.5 -33
t-12.5 -38.5t6.5 -19.5t17.5 -5.5t20.5 2.5q19 4 47.5 19t58.5 34t56 38t40 32q9 9 13 10t4.5 -2t-2.5 -9t-9 -11zM239 439q-3 -17 -28 -39q-22 -21 -37 -18q-22 4 -22 17q0 14 23 37q23 24 37 27q11 2 20.5 -6.5t6.5 -17.5z" />
    <glyph glyph-name="j" unicode="j" horiz-adv-x="230" 
d="M16 -40q7 16 16.5 43t19 57.5t18.5 62t15.5 57t9.5 43t1 19.5q2 11 15 22.5t22 13.5q11 4 18 -0.5t6 -13.5q-1 -11 -11 -24q-7 -18 -17.5 -50.5t-23.5 -71.5t-26 -79.5t-25 -72.5q46 8 100 14.5t104.5 9.5t92.5 3q43 0 68 -5q13 -3 27 -12.5t24 -23t13.5 -30t-4.5 -31.5
q-13 -23 -29 -36t-36 -30q-14 -11 -16 -7.5t9 14.5q20 18 35 40t21 41q8 27 -6 41.5t-40 16.5q-26 3 -72 3q-45 0 -98 -3t-106 -8.5t-94 -14.5q-26 -76 -63 -168t-85 -186.5t-106.5 -184t-129.5 -161t-154 -117t-178 -51.5q-55 -4 -109.5 10t-101.5 41t-85 64t-60.5 80
t-27 89t14.5 91q22 52 69 99t111 89.5t140.5 79.5t158 69.5t164.5 59t159 48t141 36.5t111 24zM-1014 -572q-16 -39 -11.5 -79t24 -77.5t53 -70t76.5 -56.5t94.5 -36.5t106.5 -10.5q94 4 177.5 55.5t154.5 131t129 175.5t102.5 189t74.5 171.5t45 123.5
q-104 -22 -214.5 -51.5t-216.5 -66.5t-203.5 -81.5t-176.5 -94.5t-135 -106t-80 -116zM213 427q-3 -17 -27 -39q-25 -22 -38 -18q-21 4 -21 17q0 14 23 37q23 24 37 27q10 2 20 -6.5t6 -17.5z" />
    <glyph glyph-name="k" unicode="k" horiz-adv-x="550" 
d="M312 431q390 0 792 189q111 52 165 125q51 66 51 139q0 96 -81 168q-88 71 -215 71q-76 0 -155 -27q-146 -51 -286.5 -179t-280.5 -338q-48 -11 -85 -29.5t-62 -44.5q-7 -7 -7 -18q0 -14 11 -29t25 -18q9 -2 16.5 -2.5t12.5 -1.5h4q-21 -34 -45 -75t-52 -89
q-14 3 -22.5 -11t-0.5 -40q-15 -29 -34.5 -76.5t-46.5 -115.5q-1 -3 -1 -8q5 -16 10 -16q4 0 6 5q25 60 46 106.5t41 78.5q239 -296 420 -345q7 -2 19 -5.5t33 -6.5q46 -5 49 -3q21 14 33.5 32t20.5 35q-1 2 -1 5q0 2 -1 3q-4 2 -7 -5q-24 -54 -92 -54q-14 0 -31 5
q-98 29 -223 145q-59 54 -101.5 106.5t-71.5 103.5q72 0 150 35q82 37 109 88q13 30 13 49q-3 23 -32 23q-69 0 -258 -137q32 54 54.5 92.5t35.5 64.5q4 2 8.5 3t8.5 3q14 -1 29 -1h29zM254 450q146 248 300 405.5t322 227.5q69 29 143 29q110 0 195 -59q84 -59 84 -144
q0 -134 -208 -255q-194 -110 -421 -166q-175 -40 -341 -40q-20 0 -38.5 0.5t-35.5 1.5zM328 268q-13 -10 -32 -18t-43 -16q-23 -8 -42.5 -11t-35.5 -3q-10 0 -13 1q-6 10 -9 17.5l-5 12.5q23 24 86 67q77 50 107 54q34 5 34 -24q3 -42 -47 -80zM223 452q-3 0 -11.5 1
t-22.5 4q-22 3 -22 19q0 12 8 19q40 48 121 73q-18 -29 -36 -57.5t-37 -58.5z" />
    <glyph glyph-name="l" unicode="l" horiz-adv-x="343" 
d="M26 114q1 -47 20 -70.5t48 -27.5t65 11t71 46q11 10 23.5 23t20.5 23q8 11 4.5 12.5t-11.5 -6.5q-11 -12 -21.5 -22.5t-23.5 -20.5q-24 -18 -51.5 -29.5t-51 -8.5t-39 24t-13.5 68q1 41 12.5 92.5t28.5 98.5q152 29 298.5 70t289.5 96q416 157 511 338q17 35 22 74
q10 120 -102 214q-110 95 -256 87q-424 -27 -794 -866v-3q-25 -58 -39 -114.5t-12 -108.5zM1186 858q-83 -168 -423 -317q-143 -63 -305 -112t-345 -87q3 5 5 10l4 10h-1q55 128 119 243.5t140 220.5q249 351 491 362q143 5 243 -79q100 -81 89 -187q-2 -17 -6 -32.5
t-11 -31.5z" />
    <glyph glyph-name="m" unicode="m" horiz-adv-x="620" 
d="M12 1q-3 -1 -4 4q-1 8 0 13q1 7 11 23q14 27 36 60.5t51 75.5t52 71t39 45q6 5 17 9.5t16 1.5q4 -3 -4 -9q-7 -4 -41 -45q-39 -45 -69 -99q-13 -23 -2 -23q5 0 11 6q60 62 146 115q63 39 91 30q10 -3 10 -15q0 -10 -11.5 -36t-33.5 -69q-6 -9 -6 -17q0 -11 9 -11
q6 0 10 4q70 63 130.5 106.5t111.5 67.5q6 3 11 3q17 0 13 -21q-4 -4 -8.5 -9.5t-10.5 -12.5q-20 -44 -46.5 -93.5t-61.5 -106.5q-10 -14 -10 -24q0 -8 7 -8q4 0 8 2t10 4q74 34 185 69q78 24 142.5 38t117.5 17q43 2 78 -3.5t62 -21.5q55 -32 55 -79q0 -14 -4 -26
q-7 -20 -25 -27q-8 -5 -13 -5q-4 0 -4 3q0 4 7.5 9t16.5 26q7 17 7 28q0 35 -36 59q-38 26 -105 26q-8 0 -17 -0.5t-18 -1.5q-147 -15 -292 -67q-153 -54 -255 -132q-5 -3 -9 -3q-12 0 -12 11q0 4 3 7l24 24q-3 10 1 24q82 101 117 193q7 14 7 27q0 17 -14 17q-8 0 -20 -9
q-150 -120 -192 -180q-2 -2 -7.5 -6t-16.5 -8q-13 -6 -21 -9.5t-13 -6.5q-6 -3 -12.5 4t-2.5 12q30 44 51.5 84.5t33.5 78.5q4 9 4 19q0 18 -15 18q-4 0 -13 -3q-10 -5 -28 -17.5t-44 -35.5q-58 -48 -100 -96q-11 -12 -25 -30.5t-31 -43.5q-3 -5 -24 -13q-11 -4 -17 -7
t-8 -5z" />
    <glyph glyph-name="n" unicode="n" horiz-adv-x="417" 
d="M19 24q-11 -2 -12 4q-4 4 2 16q23 49 78 133q26 40 49 71.5t43 55.5q3 5 8.5 8t16.5 5q6 1 7 0q0 -4 -3 -7q-38 -44 -65.5 -87.5t-47.5 -88.5q-4 -5 -4 -13q0 -11 8 -11q6 0 12 7q28 27 58.5 53.5t62.5 52.5q75 60 101 70q14 12 25 16q22 10 35 4q14 -5 -1 -23
q-71 -91 -128 -210q-55 -118 -59 -188q-4 -46 19 -71q21 -22 55 -22q16 0 29 4q57 16 143 89q95 81 95 130q0 10 -4.5 14.5t-10.5 6t-11 1.5q-4 0 -4 3q0 6 8.5 10t15.5 4q17 0 17 -23q0 -11 -6 -29q-9 -29 -32 -61t-58 -67q-96 -95 -208 -107q-40 -4 -66 22q-28 30 -23 94
q6 72 63 181q23 46 48.5 88.5t54.5 82.5q3 4 3 10q0 16 -18 16q-8 0 -16 -5q-57 -40 -113.5 -94t-115.5 -123q-10 -13 -51 -22z" />
    <glyph glyph-name="o" unicode="o" horiz-adv-x="371" 
d="M64 -17q-7 -1 -15 1.5t-14.5 7.5t-11 12t-4.5 15q2 83 134 245q4 7 -2 9q-9 5 -18 11.5t-9 12.5q0 3 3 8t26 6q37 1 38 1q4 0 11 4q22 21 44 22q16 1 45 -18q2 -1 3.5 -2t3.5 -2q23 -1 55.5 -2t74.5 -2q15 -2 15 -4q0 -6 -15 -6q-31 0 -40 -12q-2 -3 0 -6l2 -6t1 -5
q-3 -38 -32.5 -81.5t-89.5 -94.5q-117 -101 -205 -114zM50 36q-6 -11 -6 -22q0 -24 32 -18q68 11 163 98q100 89 115 162q7 30 -38 35q-24 3 -45 0.5t-39 -9.5q-2 1 -17 -9q-107 -99 -165 -237z" />
    <glyph glyph-name="p" unicode="p" horiz-adv-x="417" 
d="M41 -77q-27 3 -59 3q31 77 59 127.5t52.5 86.5t46 64t40.5 60q38 20 67.5 30t52.5 10q60 0 60 -54q0 -63 -51 -121q-96 -32 -150 -51.5t-67 -27.5q-4 -4 -4 -10q0 -21 21 -19q129 15 213 93q51 17 94 30.5t78 23.5q4 1 7 4q1 1 0 3q-3 1 -7 0q-18 -1 -140 -33
q46 64 46 116q0 66 -72 66q-26 0 -58 -7t-73 -23q38 66 72.5 119t64.5 97q6 9 9 10t3 5q0 7 -13 3q-31 -12 -36 -20q-52 -78 -90 -136t-63 -96q-47 -19 -53 -36q-3 -12 17 -30q-22 -39 -42.5 -78.5t-42.5 -77.5q-12 -20 -20 -36t-15 -30.5t-14.5 -29t-16.5 -32.5
q-85 -1 -169 -14.5t-172 -36.5q-123 -33 -224.5 -85.5t-182.5 -123.5q-159 -137 -159 -316q0 -62 18.5 -113.5t55.5 -96.5q75 -87 181 -87q66 0 137 37q129 71 255.5 256t247.5 486l16 40t16 39q37 0 64 -3q15 -3 15 7q0 6 -15 8zM-80 -164q-23 -49 -44.5 -98.5t-43.5 -97.5
q-41 -91 -84 -166t-86 -137q-116 -170 -229 -231q-56 -31 -121 -31q-50 0 -93.5 17.5t-79.5 54.5q-77 75 -77 181q0 168 182 323q81 71 180 123t217 87q82 24 158.5 36.5t152.5 13.5q-10 -23 -18 -41.5t-14 -33.5z" />
    <glyph glyph-name="q" unicode="q" horiz-adv-x="464" 
d="M12 73q38 110 171 210q52 38 97 64t85 37q43 13 67 13q19 0 34 -8q33 6 33 -5q0 -5 -6 -12q-27 -31 -64 -79t-84 -114q-46 -78 -101 -161.5t-108.5 -170t-101 -173.5t-78.5 -171q-141 -353 91 -362q67 -2 150 17.5t180 61.5q36 16 68.5 33t62.5 34q-26 -19 -57.5 -39
t-66.5 -37q-110 -48 -199.5 -70t-158.5 -18q-78 1 -116.5 35t-44 95t19.5 145.5t73.5 187t118.5 219t155 241.5q5 8 19 28.5t29 41.5t26.5 37.5t12.5 18.5q4 4 4 10q0 7 -8 7q-11 0 -18 -9q-49 -48 -95 -86.5t-90 -65.5q-31 -21 -59 -21q-44 0 -44 46q0 9 3 20zM399 300
q14 16 14 33t-9.5 26.5t-23.5 6.5q-86 -15 -198 -114q-125 -108 -125 -186q0 -25 22 -25t64 26.5t105 82.5q51 45 88 82.5t63 67.5z" />
    <glyph glyph-name="r" unicode="r" horiz-adv-x="271" 
d="M-19 -13q-5 -6 -6 0q-2 5 1 10q97 150 132 231q6 15 6 25q0 2 -3 11q-1 4 0 7q12 4 75 42q1 2 4 2q6 0 8 -5q4 -6 -1 -11q-32 -44 -54.5 -76.5t-33.5 -54.5q-3 -6 -3 -10q0 -5 11 -1q9 4 12 8q39 47 101 97q64 52 100 67q31 1 46 -6q1 -1 1 -2q0 -3 -3.5 -8.5t-8 -10
t-9.5 -7t-8 -0.5q-20 9 -54 -9q-148 -82 -264 -272q0 -3 -8 -7q-8 -3 -18 -7.5t-23 -12.5z" />
    <glyph glyph-name="s" unicode="s" horiz-adv-x="494" 
d="M186 106q-13 7 -34 37q-19 31 -22 51q-7 49 88 114q75 53 132 67q5 1 10.5 1.5t11.5 0.5q11 0 27 -3t39 -11q7 -2 22.5 8t22.5 20q4 4 0 13q-5 6 -11 6q-56 1 -119.5 -19.5t-135.5 -63.5q-144 -84 -136 -151q2 -14 7.5 -27t16.5 -27l32 -43q-118 -82 -135 -103
q-7 -12 6 -13q5 -2 13.5 0t22.5 4q9 -3 21 -3q35 0 91 25q66 28 66 56q0 7 -5.5 18.5t-18.5 28.5q80 46 153.5 75.5t143.5 43.5l-1 1q-75 -13 -151 -37t-157 -69zM53 -14q5 8 17 18t32 24q33 24 49 34q23 -21 23 -37q0 -6 -4 -11q-5 -8 -18.5 -14t-33.5 -14q-43 -15 -61 -11
q-12 2 -4 11z" />
    <glyph glyph-name="t" unicode="t" horiz-adv-x="757" 
d="M172 -556q67 0 142.5 40t162.5 118q171 155 191 287q2 23 -28 68q-29 43 -61 43q-8 0 -12 -1q-26 -11 -35.5 -17t-14.5 -14q-2 -9 8 -9q5 0 16 7t26 9q67 11 67 -83q-8 -54 -43.5 -114t-101.5 -129q-64 -69 -126 -112t-125 -63q-43 -13 -78 -13q-123 0 -123 174v24
q0 11 1 24q8 93 48 209.5t109 259.5q45 90 92 167t100 155q8 13 25 16q94 5 167.5 9.5t130.5 6.5q9 1 14.5 9.5t5.5 10.5q-3 3 -12 3q-8 0 -40.5 0.5t-91.5 0.5h-145q-23 0 -7 23q217 298 311 317q10 3 10 7q0 9 -11 9q-12 0 -22.5 -4.5t-34.5 -12.5q-50 -19 -56 -26
q-69 -80 -132 -154.5t-111 -149.5q-2 -3 1 -6t-1 -3q-48 0 -74.5 -3t-29.5 -9q-8 -17 28 -31q18 -10 18 -28q0 -17 -12 -30q-51 -74 -102 -167t-102 -209q-115 -263 -115 -404q0 -43 7 -79.5t34 -65.5q52 -60 132 -60z" />
    <glyph glyph-name="u" unicode="u" 
d="M443 297q-14 -21 -31 -51t-32.5 -61.5t-27.5 -61.5t-15 -50q-3 -18 -0.5 -26t7.5 -9.5t12.5 0.5t14.5 4t17 6.5t16 8.5q16 11 17.5 2.5t-10.5 -19.5q-10 -11 -24.5 -20.5t-27.5 -14.5q-6 -2 -15 2t-16.5 11.5t-13 17t-5.5 19.5q0 19 4.5 40t11.5 41t15.5 39.5t15.5 36.5
q6 15 0 24.5t-24 -8.5q-24 -24 -62.5 -60.5t-77.5 -72t-72.5 -63t-49.5 -32.5q-27 -9 -44 8.5t-15 42.5q2 23 12.5 53t27 61.5t36 64t39.5 61.5t37.5 52.5t30.5 38.5q5 6 13.5 8.5t14.5 0.5t7 -8.5t-8 -18.5q-23 -28 -48.5 -65t-48.5 -75t-41.5 -74t-25.5 -63
q-12 -41 0.5 -52.5t37.5 2.5q39 24 82.5 63.5t86 82.5t81.5 84t69 68q9 9 16 6t11 -11.5t4.5 -18t-2.5 -14.5z" />
    <glyph glyph-name="v" unicode="v" horiz-adv-x="321" 
d="M47 11q-12 1 -22 9t-7 16q25 111 149 282q3 4 10 4q16 0 16 -13q0 -2 -1 -3.5t-2 -3.5q-91 -144 -113 -224q-3 -12 -3 -21q0 -22 15 -22q10 0 25 12q21 17 50 52t67 86q26 35 50.5 69t49.5 69q3 5 5.5 18t9.5 32q14 11 24 18t17 11q2 1 6.5 -1.5t9 -6t7 -7.5t1.5 -5
q-29 -41 -27 -60q1 -12 13 -21q3 -2 3 -5q0 -10 -14 -7q-11 3 -19 6.5t-13 8.5q-3 3 -12 -8q-17 -25 -41 -56.5t-56 -69.5q-73 -87 -124 -130q-23 -22 -33 -22t-13 -2t-9 -4q-7 -2 -19 -1z" />
    <glyph glyph-name="w" unicode="w" horiz-adv-x="527" 
d="M568 260q-28 0 -39 4q-16 37 -33 37q-9 0 -18 -7t-10 -14q-2 -5 6.5 -15.5t21.5 -13.5q-4 -76 -57 -145q-53 -68 -108 -82q-39 -8 -43 41q-1 6 -1 12v14q0 31 6.5 65.5t17.5 75.5q11 35 20.5 60.5t20.5 42.5q1 5 -7 6q-8 0 -18 -1.5t-14 -5.5q-10 -16 -17 -28t-12 -23
q-25 -39 -89 -117q-38 -45 -67.5 -75.5t-51.5 -46.5q-4 -4 -11 -4q-11 0 -11 14q0 4 2 10q7 20 22 49t39 66q32 51 49.5 78.5t19.5 32.5q3 6 3 11q0 12 -15 12q-12 0 -13 -7q-2 -9 -20.5 -39.5t-53.5 -82.5q-35 -53 -55 -90t-24 -60q-1 -7 9.5 -17t16.5 -10q21 -3 54 25
q33 27 73.5 74t89.5 114q5 7 10 4q5 -2 2 -8q-25 -74 -25 -157q0 -11 2 -17q8 -21 22 -32.5t24 -10.5q84 8 157 81q76 76 92 165q9 0 17 2l16 4q5 2 5 5q0 4 -5 4z" />
    <glyph glyph-name="x" unicode="x" horiz-adv-x="274" 
d="M392 298q-22 -9 -56 -31t-70 -47.5t-70 -50.5t-55 -41q3 -16 11 -42t17.5 -53t20.5 -51.5t22 -37.5q12 -15 6.5 -17t-16.5 9q-9 11 -21 33t-23.5 47.5t-21.5 51t-16 44.5q-21 -15 -47 -36t-54.5 -47t-58.5 -55.5t-58 -61.5q-14 -16 -33 -41t-33 -53t-17.5 -57t12.5 -54
q11 -20 27.5 -30t33.5 -14q8 -3 5.5 -7t-10.5 -1q-15 3 -33.5 15t-30.5 29q-18 26 -19.5 54t9 56.5t30.5 57t43 57.5q25 29 54.5 58.5t59.5 57.5t59 52.5t53 44.5q-4 15 -8.5 37.5t-8.5 45.5t-7 45t-4 37q-1 6 2 11.5t7 8t8 1t5 -10.5q3 -16 6 -37.5t6.5 -43t7 -42
t8.5 -34.5q19 15 53 40.5t71 51.5t70.5 48t53.5 32q7 4 12 1t7.5 -8t0.5 -11.5t-10 -10.5z" />
    <glyph glyph-name="y" unicode="y" horiz-adv-x="397" 
d="M266 0q-150 -29 -292.5 -71t-281.5 -96q-403 -159 -480 -338q-15 -36 -15 -75q0 -118 121 -213q120 -96 264 -87q420 27 715 868q115 24 296 24q23 0 41.5 -0.5t32.5 -1.5q49 -4 49 -40q0 -43 -59 -99q-10 -7 -10 -13q0 -1 2 -1q6 0 14 8q52 41 65 66q6 9 6 22t-6 25
t-15.5 22t-21 17t-22.5 9q-27 6 -76 6q-139 0 -291 -28q43 129 63 201q5 9 8.5 14.5t7.5 10.5q2 10 -6.5 19t-25.5 8q-7 -1 -13.5 -7.5t-11.5 -15.5q-14 -13 -37.5 -31t-56.5 -41q-42 -29 -74.5 -47.5t-55.5 -27.5q-8 -3 -18 0q-8 3 -8 13q0 5 3 13q19 38 60 98q49 69 70 78
q-2 17 -16 16q-8 -1 -44 -17q-34 -15 -38 -22q-3 -6 -1.5 -19t-0.5 -17q-85 -154 -91 -174q-2 -7 4 -14t15 -7q3 0 9 2q57 22 153 87q73 49 122 92q-2 -14 -6.5 -37t-12.5 -57q-18 -78 -34 -122zM-763 -532q66 166 392 316q273 125 633 199q-44 -134 -99.5 -254.5
t-122.5 -229.5q-220 -352 -460 -361q-139 -6 -250 79q-106 82 -106 187q0 17 3.5 32.5t9.5 31.5z" />
    <glyph glyph-name="z" unicode="z" horiz-adv-x="250" 
d="M130 118q-6 -1 -6 6t3 9q8 12 24 34t32 47.5t29 51.5t15 48q1 10 -2 21.5t-8.5 21t-13 14.5t-14.5 4q-14 -3 -31.5 -18t-34 -33.5t-30 -36.5t-20.5 -28q-5 -8 -4 -16t9 3q9 12 21 27t24.5 29t25 25t22.5 14q10 2 16.5 -9t1.5 -34q-5 -20 -18.5 -49t-30 -57.5t-33 -52.5
t-26.5 -34q-8 -8 -4.5 -15t8.5 -5q14 3 30.5 -2t21.5 -21l-11 -3q-296 -57 -565 -165q-402 -158 -480 -338q-15 -36 -15 -74q0 -119 121 -214q118 -95 264 -87q420 27 715 868q58 13 131.5 18.5t164.5 5.5q23 0 41.5 -0.5t32.5 -1.5q49 -4 49 -39q0 -45 -59 -99
q-10 -9 -10 -14q0 -1 2 -1q6 0 14 8q52 41 65 66q2 5 4 10.5t2 11.5q0 13 -6 25t-15.5 22.5t-21 17.5t-22.5 9q-14 2 -32.5 3.5t-43.5 1.5q-66 0 -141.5 -4.5t-150.5 -18.5q0 2 -0.5 2.5t-0.5 1.5q-6 8 -6 18q-1 0 -1 -1t-2 -1q-5 11 -10.5 15t-19.5 13zM-895 -471
q66 167 393 317q272 124 633 199q-45 -134 -100 -254.5t-123 -229.5q-218 -353 -459 -362q-141 -5 -250 79q-106 82 -106 187q0 17 3.5 32.5t8.5 31.5z" />
    <glyph glyph-name="braceleft" unicode="{" horiz-adv-x="421" 
d="M38 -66q-4 -48 6.5 -75t26.5 -44q10 -12 22.5 -19t24.5 -11t22 -5.5t16 -2.5q-12 13 -27.5 23.5t-29 25.5t-21.5 37.5t-5 59.5q0 14 5 41.5t11.5 60t13.5 66t13.5 59.5l10 40t3.5 8q2 34 -5 56t-19 35.5t-25.5 20.5t-24.5 11q37 7 61.5 21.5t41.5 39t29 59.5t24 84
q15 60 29 111t35 88t52 57.5t79 19.5l6 28q-27 2 -60.5 -4t-70.5 -41q-20 -19 -34 -40.5t-24.5 -47t-18.5 -55t-16 -64.5q-14 -59 -26.5 -102t-31 -72.5t-46.5 -47.5t-73 -27l-2 -6q43 -17 66 -40.5t19 -73.5z" />
    <glyph glyph-name="bar" unicode="|" horiz-adv-x="116" 
d="M94 741q1 16 -7.5 23t-19.5 7q-10 0 -19 -6t-10 -18q-1 -25 -1 -61t0.5 -79.5t2.5 -92.5t5 -99q-1 -56 -3.5 -113.5t-6 -109.5t-6.5 -94t-5 -67q-1 -16 7 -23t18 -7q11 0 20.5 6t9.5 18q2 51 0 139q1 2 0.5 5.5t-0.5 7.5q-1 42 -2.5 87t-3.5 92q1 56 3.5 114t6 109.5
t6.5 94t5 67.5z" />
    <glyph glyph-name="braceright" unicode="}" horiz-adv-x="421" 
d="M384 673q4 48 -6 75t-27 44q-10 12 -22 19t-24 11t-22.5 6t-16.5 3q12 -13 27.5 -24t29 -26t22 -37.5t5.5 -59.5q-1 -14 -5 -39.5t-10 -56t-13 -62.5t-13 -58.5t-10.5 -43.5t-5.5 -17q-3 -33 4.5 -54.5t19 -35t25 -20.5t24.5 -11q-37 -7 -61.5 -21.5t-41.5 -39t-29 -59.5
t-24 -84q-15 -60 -29 -111t-35 -88t-52 -57.5t-79 -19.5l-5 -28q13 0 28 0.5t31.5 4.5t34.5 13.5t37 26.5q20 19 34 41t24 47t18 54.5t16 64.5q14 59 26.5 102t31 72.5t46.5 47.5t73 27l3 6q-44 17 -67 40.5t-18 73.5z" />
    <glyph glyph-name="asciitilde" unicode="~" horiz-adv-x="343" 
d="M18 267l29 22q15 12 30 17.5t29 5.5q17 0 68 -30q53 -28 67 -28t33 16.5t43 48.5q3 6 5 10.5t2 9.5q0 3 -4 3q-6 0 -15 -10q-11 -13 -26 -20t-38 -7q-10 0 -27 6t-44 21q-48 31 -64 31q-14 0 -34.5 -18t-46.5 -54q-4 -7 -6.5 -12.5t-2.5 -7.5q0 -4 2 -4z" />
    <glyph glyph-name="exclamdown" unicode="&#xa1;" horiz-adv-x="246" 
d="M111 238q-15 -28 -41.5 -78t-64.5 -124q-26 -52 -48 -92t-40 -69q-1 -2 -5.5 -3t-9 -1.5t-9 -1.5t-5.5 -4q-6 -11 -2 -36q2 -25 8 -27q11 -3 28.5 1.5t21.5 13.5q55 152 185 411q1 2 1 6q0 11 -9 11q-6 0 -10 -7zM150 361q0 -52 8 -62q2 -2 6 -2q10 0 26 7.5t19 13.5
q4 4 0 30q-3 24 -8 29q-1 4 -8 4q-13 0 -28 -7t-15 -13z" />
    <glyph glyph-name="cent" unicode="&#xa2;" horiz-adv-x="395" 
d="M92 73q4 -2 2 -6q-11 -16 -19 -29t-14 -24q-6 -6 7 -9t18 5q8 14 15.5 26t14.5 23q1 2 7 2q85 0 200 94q7 4 7 11q0 4 -4 4t-8 -3q-93 -72 -168 -85q-47 -8 -47 36q0 5 1 11t3 13q20 76 83 152q32 38 65.5 65.5t68.5 42.5q8 2 19 2q15 0 29 -2.5t26 -6.5q8 -1 17 10
q2 5 4 9t3 8q2 4 -6.5 9t-13.5 5q-21 3 -49 -10q-5 -3 0 4q50 69 51 67q-2 4 -6 4q-3 -2 -5.5 -3t-4.5 -3q-17 -24 -31 -42t-25 -32l-3 -3q-93 -37 -175 -122q-87 -93 -97 -175q-1 -5 2 -12.5t8.5 -14.5t12 -12.5t12.5 -8.5z" />
    <glyph glyph-name="sterling" unicode="&#xa3;" horiz-adv-x="698" 
d="M386 319q8 0 10 7q51 137 107.5 214.5t126.5 75.5q7 -1 16 -2.5t16.5 -5t11.5 -10.5t0 -19q-1 -3 -2.5 -1t-3 5.5t-3 7.5t-2.5 4q-22 13 -51 0t-61.5 -48.5t-66.5 -92t-65 -131.5q-4 -8 3 -8q9 -2 29 -5t43.5 -7t46 -9t36.5 -9q8 -2 6 -7.5t-10 -4.5q-16 2 -38.5 4.5
t-46 5t-44.5 4.5t-34 3q-8 0 -8 -4q-29 -90 -59 -151.5t-56 -87.5q-8 -9 -8.5 -13.5t6.5 -9.5q20 -13 48 -34.5t60.5 -43.5t68.5 -40.5t71.5 -25t70 2.5t64.5 42q6 8 10 4t-2 -13q-17 -22 -42.5 -34t-54 -16t-57 -0.5t-50.5 12.5t-49 24t-55 32t-54.5 36.5t-47.5 37.5
q-6 5 -10 4t-7 -3q-37 -35 -73.5 -44t-68 0.5t-55 32t-33.5 50.5q-6 17 -2.5 34t14 30t26 20.5t31.5 6.5q35 -5 71.5 -28t79.5 -53q10 -6 14.5 -4t10.5 8q11 10 25.5 31t30.5 50.5t32 66t30 77.5q0 3 -0.5 5t-5.5 3q-8 1 -20.5 2t-23.5 0q-7 0 -8 -2t-6 -4q-15 -2 -25.5 1.5
t-15 9t-1.5 11.5t15 9q14 4 41 1.5t54 -4.5zM53 109q-20 -3 -24 -20t4 -37t26.5 -39.5t44 -28.5t56 -2.5t63.5 37.5q8 8 7.5 10.5t-8.5 6.5q-42 27 -68.5 42.5t-44 23t-30 8.5t-26.5 -1z" />
    <glyph glyph-name="yen" unicode="&#xa5;" horiz-adv-x="427" 
d="M-72 12h119q-41 -50 -73.5 -98t-46.5 -78q-11 -24 -3 -28t24 23q25 42 59.5 87.5t74.5 93.5h133q16 0 16 18q0 11 -12 11h-112q20 24 42 48.5t45 49.5q12 13 25 26.5t25 27.5h2h50q24 0 44 1q12 0 12 15q0 8 -9 8h-75q54 55 108.5 107.5t104 99t92.5 84.5t75 64
q10 9 9 16.5t-8.5 10.5t-18.5 1.5t-20 -9.5q-62 -54 -124 -113.5t-120.5 -119t-111.5 -115.5t-96 -103q-2 28 -1.5 65.5t3 79t6 84.5t8 81.5t8.5 70t7 49.5q4 21 -4 28.5t-19 5.5t-21.5 -12.5t-11.5 -25.5t-3.5 -50.5t-5.5 -83.5t-5 -104t-1 -111h-85q-15 0 -15 -17
q0 -7 8 -7h49q24 0 44 1q1 -24 2 -46.5t3 -42.5q-13 -16 -26.5 -31.5t-27.5 -32.5h-135q-20 0 -20 -16q0 -13 13 -13z" />
    <glyph glyph-name="brokenbar" unicode="&#xa6;" horiz-adv-x="151" 
d="M73 32q-2 -16 6.5 -23t18.5 -7q11 0 20.5 6.5t9.5 17.5q1 41 0.5 109.5t-4 148.5t-9 162.5t-13.5 151.5q-2 27 -9.5 24.5t-5.5 -28.5q5 -39 6 -89.5t0 -104.5t-3.5 -109.5t-6 -104.5t-6.5 -89.5t-4 -64.5zM80 733q1 15 -7 22t-19 7q-10 0 -19.5 -6t-9.5 -18
q-2 -41 -1 -109.5t4.5 -148t9 -162.5t13.5 -152q2 -26 9.5 -24t5.5 28q-5 39 -6 89.5t0 105t3.5 110t6 104.5t6 89.5t4.5 64.5z" />
    <glyph glyph-name="section" unicode="&#xa7;" horiz-adv-x="442" 
d="M56 -59q-49 -23 -43 -59q8 -39 60 -55q17 -5 37.5 -8.5t43.5 -3.5q32 0 59.5 6t53.5 17q59 28 49 88q-3 14 -9.5 28.5t-17.5 28.5h15h31q18 0 34.5 0.5t24.5 1.5q22 0 22 3q0 2 -7 2h-29h-39h-37h-22q-45 48 -78.5 82.5t-55.5 56.5q-34 38 -40 67q15 -17 44 -24
q37 -13 81 -13q32 0 59.5 6.5t53.5 17.5q59 27 49 88q-2 10 -6 21t-13 24q-1 4 -2.5 6t-3.5 4q-1 1 -1 2q13 -1 21.5 0.5t9 3t-8 2.5t-30.5 0q-46 48 -79 82.5t-55 56.5q-17 23 -28 41t-13 32q-6 37 24 61q63 54 174 54q41 0 74 -9q25 -6 45 -26q10 -11 17 -23.5t9 -28.5
q2 -10 1.5 -18.5t0.5 -11.5t4 0q1 2 1 3q0 2 2 5q3 18 0 35q-4 26 -24 49q-20 20 -42 27q-30 9 -75 9q-121 0 -197 -57q-37 -26 -31 -67q8 -38 50 -83q36 -38 66 -71t55 -61q-17 -2 -33.5 -3.5t-31.5 -3.5q-40 -4 -73 -15t-67 -26q-45 -20 -44 -53q-3 -14 0 -28
q6 -37 49 -83q36 -39 66 -72t55 -60q-127 -10 -205 -48zM266 -19q27 -25 31 -55q4 -22 -6 -40.5t-35 -31.5q-48 -27 -111 -27q-18 0 -35.5 1.5t-35.5 6.5q-8 2 -14.5 5t-13.5 8q-16 12 -21 27q-5 28 42 52q21 13 48.5 22t61.5 17q17 3 39 7t50 8zM383 272q5 -25 -8 -41
t-37 -32q-20 -13 -49.5 -18.5t-60 -4t-58.5 8.5t-46 17.5t-21 24t16 28.5t64 30.5t125 29.5q7 1 17 2t20 -1q16 -5 26.5 -16t11.5 -28z" />
    <glyph glyph-name="dieresis" unicode="&#xa8;" horiz-adv-x="256" 
d="M234 563q0 23 -2 35t-6 17q-4 2 -6 2q-9 0 -21 -8q-13 -6 -16.5 -10.5t-0.5 -25.5q3 -20 6 -26q3 -3 8 -3q11 0 24.5 6.5t13.5 12.5zM82 563q0 44 -6 52q-2 2 -7 2q-23 0 -37 -19q-3 -4 0 -25q2 -20 5.5 -24.5t7.5 -4.5q10 0 23.5 6.5t13.5 12.5z" />
    <glyph glyph-name="copyright" unicode="&#xa9;" horiz-adv-x="684" 
d="M670 466q-6 68 -37 125.5t-79.5 99t-110.5 62.5t-130 15t-125.5 -37t-98.5 -79.5t-62 -110.5t-15 -130t37 -125t79.5 -98t110.5 -62t130 -15q67 6 125 37t99 79t62 109.5t15 129.5zM647 465q5 -63 -14 -120.5t-57 -102.5t-92 -74t-117 -34t-120.5 14.5t-102.5 57.5
t-74 92t-35 117q-5 63 14.5 120.5t57.5 102.5t92 74t117 34t120.5 -14.5t102.5 -57.5t73.5 -92t34.5 -117zM541 387q17 17 12.5 22t-16.5 -7q-22 -22 -59.5 -46.5t-81.5 -46.5t-91.5 -37.5t-88.5 -19.5q-48 -5 -63 21t-1 75q9 32 36 75.5t64.5 85.5t80.5 77t84 50
q19 9 27 3.5t10 -17t0.5 -26t-2.5 -24.5q-2 -22 5.5 -25t19.5 19q7 13 14 28.5t12 36.5q1 10 -3 20t-12.5 16.5t-20.5 9t-26 -1.5q-25 -7 -58 -26t-69 -47t-70.5 -62t-63.5 -71t-48 -75t-23 -73q-3 -22 7 -41.5t26.5 -33.5t36.5 -21t39 -4q41 7 91 27.5t96.5 46t83.5 51
t52 41.5z" />
    <glyph glyph-name="ordfeminine" unicode="&#xaa;" horiz-adv-x="431" 
d="M50 617q39 20 91 59q26 20 47 37t35 33l1 1q5 0 2 -6q-21 -25 -41 -67q-34 -64 -35 -108q-3 -25 19 -41q20 -13 49 -13q17 0 35 5q17 5 37.5 17t46.5 29q52 39 80 75q3 4 3 7v0q0 1 -1 1q-3 0 -8 -5q-14 -17 -34 -34t-44 -34q-26 -18 -46.5 -29.5t-37.5 -16.5
q-11 -2 -21.5 -4t-21.5 -2q-48 0 -48 36q0 6 1 9q6 31 20 65.5t40 72.5q16 23 33.5 46.5t34.5 47.5q0 2 -1.5 4t-3.5 2t-2.5 -0.5t-1.5 -0.5q-3 -2 -7 -3.5t-9 -3.5h-11q-13 5 -30 5q-12 0 -24 -3q-24 -8 -51 -26t-59 -44q-67 -59 -67 -97q0 -18 15 -18q7 0 15 4zM59 662
q8 17 22.5 35.5t35.5 38.5q42 43 72 48q4 2 7 2.5t6 0.5q14 0 21.5 -5t7.5 -11q0 -2 -2 -4q-87 -92 -152 -127q-5 -3 -10 -3q-11 0 -11 13q0 6 3 12z" />
    <glyph glyph-name="guillemotleft" unicode="&#xab;" horiz-adv-x="334" 
d="M57 151q16 30 122 115q7 7 4 10q-4 4 -13 -1q-140 -87 -151 -110q-6 -8 29 -139q3 -8 7 -8q7 0 6 11q-12 103 -4 122zM196 151q8 14 38 43t84 72q5 5 2 10q-3 3 -12 -2q-138 -86 -151 -109q-4 -9 30 -139q2 -8 7 -8q6 0 5 11q-12 104 -3 122z" />
    <glyph glyph-name="logicalnot" unicode="&#xac;" horiz-adv-x="1055" 
d="M46 275q13 12 6 19.5t-16.5 13t-13 9.5t15.5 7q16 0 45 3t64 7.5t72 9.5t70 8q82 8 170.5 17t170.5 15t150 7t108 -7q23 -5 53.5 -18.5t54.5 -35.5t33.5 -50.5t-8.5 -62.5q-10 -19 -17 -28.5t-15 -17t-18.5 -16.5t-28.5 -27q-14 -4 -7.5 6t20.5 27t29.5 39t19.5 43
q13 33 2.5 55t-32.5 35.5t-49 20t-46 8.5q-53 6 -122 3t-144.5 -10.5t-153.5 -18t-148 -21.5q-35 -6 -74.5 -13t-75.5 -13t-65.5 -10t-45.5 -5z" />
    <glyph glyph-name="registered" unicode="&#xae;" horiz-adv-x="485" 
d="M459 674q-4 46 -24.5 85t-52.5 67t-72.5 42t-85.5 10q-44 -4 -82 -24.5t-65 -53.5t-41 -74.5t-10 -87.5q3 -46 23.5 -85t52.5 -66.5t73 -41.5t86 -10q26 2 50.5 10.5t46.5 22.5q12 -8 22 -13t18 -6q16 -3 26.5 -1.5t17.5 5t11 8.5t7 9q-11 -14 -28.5 -15.5t-31.5 2.5
q-5 2 -13 6t-18 12q45 33 70 85.5t20 113.5zM387 730q-9 10 -24.5 21.5t-36 21.5t-45 17t-51.5 10q-58 4 -92.5 -12.5t-42.5 -49.5q-5 -16 -0.5 -33.5t13.5 -30.5q1 -1 3 -0.5t0 2.5q-6 11 -9 27.5t3 33.5q11 34 44.5 44t77.5 6q56 -4 99 -25t56 -44q9 -13 5 -24t-18 -21
q-17 -12 -41.5 -19.5t-49 -11.5t-46 -5t-33.5 0q18 23 39 45t50 48q4 4 2 11t-10 5q-11 -8 -24 -21t-26.5 -27.5t-26 -29.5t-21.5 -28q-9 1 -12 -1q-6 -7 0 -15q-17 -23 -30 -47.5t-11 -52.5q0 -16 7 -22q3 -3 5 -1.5t0 4.5q-2 2 -4 7t0 10q4 25 13.5 45.5t28.5 45.5
q10 -9 28.5 -25.5t41.5 -36t47.5 -39.5t46.5 -35q-38 -24 -83 -27q-42 -4 -80 9.5t-68 39t-49 62t-22 78.5q-4 43 9 82t38 69.5t60.5 50t77.5 23.5q41 3 78.5 -10t67 -39t48.5 -62t23 -79q5 -59 -19 -108.5t-69 -80.5q-20 15 -44 34.5t-45.5 38.5t-39.5 35t-26 25q-7 8 2 7
q16 -1 40 1.5t49 7.5t48 13.5t38 20.5q17 13 19.5 30.5t-9.5 31.5z" />
    <glyph glyph-name="macron" unicode="&#xaf;" horiz-adv-x="331" 
d="M57 648h119t101 1q30 0 30 14q0 8 -21 8h-210q-38 0 -38 -15q0 -8 19 -8z" />
    <glyph glyph-name="degree" unicode="&#xb0;" horiz-adv-x="201" 
d="M174 493q0 26 -19 44t-46 18q-26 0 -45 -18t-19 -44t19 -44.5t45 -18.5q27 0 46 18.5t19 44.5zM109 442q-21 0 -36 15t-15 36q0 20 15 35t36 15q20 0 36 -15t16 -35q0 -21 -16 -36t-36 -15z" />
    <glyph glyph-name="plusminus" unicode="&#xb1;" horiz-adv-x="418" 
d="M398 340q7 1 13 7.5t-4 18.5q-5 8 -18 17t-18 10q-6 0 -6.5 -2t4.5 -4q10 -5 16 -13q5 -5 5 -9q0 -3 -3 -5.5t-7.5 -4t-8.5 -1.5q-31 -8 -68.5 -10.5t-78.5 -2.5q27 45 55 87.5t52 74.5q6 7 15.5 15t17.5 11q2 1 1 3.5t-6 0.5q-4 -1 -11 -3.5t-14.5 -6.5t-13.5 -7.5
t-8 -6.5q-19 -25 -47.5 -70t-57.5 -98q-42 1 -81 4t-71 8q-8 2 -18 6.5t-17 10.5q-1 1 -2.5 -1t2.5 -7q2 -3 7 -7.5t11 -9.5t11 -9t7 -4q23 -3 60.5 -5.5t81.5 -2.5q-23 -42 -43 -83.5t-32 -75.5q-1 -4 -1.5 -9t1 -9t5.5 -5.5t12 1.5q9 2 23.5 11t19.5 14q3 5 2 7t-5 -3
q-13 -7 -21 -10q-7 -3 -10 -1.5t-3 5.5q0 5 1.5 10.5t3.5 9.5q22 64 65 138q50 2 98.5 5t83.5 11zM32 73h79h96q49 0 92 0.5t66 0.5q30 0 30 14q0 8 -21 8h-323q-38 0 -38 -16q0 -7 19 -7z" />
    <glyph glyph-name="twosuperior" unicode="&#xb2;" horiz-adv-x="239" 
d="M172 375q-8 1 -18 1h-21q-26 0 -53.5 -1t-58.5 -3q-8 -1 -8 4q0 10 16 12q14 4 29 8.5t30 11.5q35 16 65 40q45 34 51 71q2 14 -8 28q-12 16 -30 19q-8 3 -16 3q-27 0 -56 -17q-3 -2 -3 1q0 7 8 12q34 20 73 17q27 -1 41 -19q11 -16 11 -33q0 -40 -57 -81
q-23 -17 -45.5 -30.5t-45.5 -21.5q-6 -2 -6 -4q0 -8 100 -8q10 0 10 -5t-8 -5z" />
    <glyph glyph-name="threesuperior" unicode="&#xb3;" horiz-adv-x="249" 
d="M196 415q5 9 5 22q0 19 -13 32.5t-33 15.5q-3 0 -3 2t3 4q27 11 46 23t28 27q5 10 5 18q0 24 -32 24q-18 0 -33.5 -4t-28.5 -11q-7 -6 -7 -10q0 -5 2 -3q31 14 58 14q17 0 17 -17q0 -10 -4 -19q-5 -8 -14.5 -15t-23.5 -15q-28 -17 -50 -17q-10 0 -10 -7q0 -3 2 -3
q35 4 55 -12q14 -10 14 -32q0 -9 -3 -16q-13 -31 -60 -53q-19 -8 -36 -13t-33 -5q-22 0 -22 13q-1 8 -6 8q-10 0 -10 -13t39 -13q34 1 79 20q52 21 69 55z" />
    <glyph glyph-name="acute" unicode="&#xb4;" horiz-adv-x="266" 
d="M362 537q28 11 70 25t99 32q10 3 10 14q0 22 -16 22q-6 0 -79 -37q-44 -22 -66 -32.5t-24 -11.5q-6 -3 -4 -9q3 -5 10 -3z" />
    <glyph glyph-name="mu" unicode="&#xb5;" horiz-adv-x="448" 
d="M429 366q-11 -23 -29 -63t-35.5 -83t-30.5 -82t-13 -59q0 -23 7.5 -29t19 -3t23 11.5t18.5 16.5q14 13 17.5 5t-6.5 -22q-9 -11 -21.5 -23.5t-24.5 -18.5q-6 -3 -15.5 -0.5t-18.5 8.5t-15.5 15t-7.5 19q-3 19 3.5 47.5t17 59t21.5 59t15 47.5q2 7 1.5 13.5t-3.5 9t-9 0.5
t-13 -12q-14 -19 -33 -44.5t-40.5 -53.5t-44 -56t-42.5 -51.5t-36.5 -40t-25.5 -21.5q-23 -11 -39.5 -5.5t-24.5 22.5q-24 -85 -42.5 -153.5t-31.5 -124.5q0 -5 -5.5 -9.5t-13 -8t-15 -5t-13.5 0.5q-5 -2 -7.5 7t-4.5 20.5t-3 31.5q1 3 5 5t8.5 3.5t9 2.5t5.5 3
q7 17 16.5 42.5t20 56t21.5 63t21 63.5t18.5 58t14.5 46q10 37 25.5 78t32.5 78.5t33.5 69t27.5 49.5q4 8 12.5 12t15.5 3.5t9 -6.5t-6 -19q-18 -32 -39 -71.5t-39.5 -79.5t-32 -77t-16.5 -64q-7 -23 -4.5 -38t11 -22t21 -4.5t25.5 13.5q35 29 71.5 74.5t72 95t67.5 95.5
t58 77q8 11 15.5 9.5t12.5 -8.5t7.5 -17t0.5 -16z" />
    <glyph glyph-name="paragraph" unicode="&#xb6;" horiz-adv-x="647" 
d="M174 732q-46 -48 -75.5 -104t-45 -111.5t-17.5 -107t8 -91.5t32 -64t54 -25q22 -7 45 -3t45 14t42 24t37 27q-9 -17 -21.5 -46t-26 -62.5t-27 -68.5t-24.5 -65.5t-18.5 -52.5t-9.5 -30q-3 -16 0 -29t4 -27q11 -11 12 -12.5t0.5 -1t2 -1.5t16.5 -15q-8 17 -9.5 22.5
t-1.5 6.5q-4 11 7.5 51.5t34 101.5t53 137.5t65.5 158t70.5 163.5t68 154.5t58.5 131t41 92.5q6 10 18.5 32.5t24.5 47.5t20 47.5t5 33.5l-2.5 5t-9.5 4q-6 -1 -15 -7.5t-15 -12t-7 -6.5q9 -5 9 -21q0 -15 -5 -36t-15 -44t-20 -42l-33 -66q-14 2 -37.5 4.5t-39.5 3.5t-18 1
q-87 9 -153 -19.5t-127 -91.5zM210 749q28 28 62.5 45t71.5 25t73 8.5t66 -4.5q3 0 11 -0.5t17 -1.5t17.5 -2.5t13.5 -2.5q-31 -68 -52 -112t-34.5 -72t-21.5 -44t-13.5 -28.5l-11 -25t-14.5 -32.5q-6 -10 -9 -1.5t-3 28.5t2.5 48.5t7 57.5t10.5 55t14 42q2 4 -7.5 -9
t-27.5 -35t-41.5 -48.5t-50 -49t-53 -37t-50.5 -12.5q-18 3 -25 20t-5.5 42.5t10.5 57t24 62.5z" />
    <glyph glyph-name="periodcentered" unicode="&#xb7;" horiz-adv-x="113" 
d="M82 42q0 -3 -6 -7.5t-13.5 -7.5t-14.5 -4t-10 2q-2 3 -3.5 10.5t-2.5 16t-1.5 15.5t1.5 10t8 7t13 7t13.5 4.5t9.5 -1.5q2 -2 3 -9.5t2 -15.5t1 -16v-11z" />
    <glyph glyph-name="periodcentered" unicode="&#x2219;" horiz-adv-x="113" 
d="M82 42q0 -3 -6 -7.5t-13.5 -7.5t-14.5 -4t-10 2q-2 3 -3.5 10.5t-2.5 16t-1.5 15.5t1.5 10t8 7t13 7t13.5 4.5t9.5 -1.5q2 -2 3 -9.5t2 -15.5t1 -16v-11z" />
    <glyph glyph-name="cedilla" unicode="&#xb8;" horiz-adv-x="132" 
d="M91 7q-26 -18 -43 -35q-6 -6 5 -9q20 -6 29 -17t0 -25q-3 -6 -11 -13.5t-18 -13.5t-21 -10t-21 -5q-8 0 -7 -4.5t9 -4.5q13 1 27.5 6t27.5 12t23 14.5t14 14.5q6 12 4.5 21t-7 15.5t-12.5 10.5t-12 6t-4.5 5t2.5 5q5 6 10.5 12t11.5 10q5 4 1.5 6t-8.5 -1z" />
    <glyph glyph-name="onesuperior" unicode="&#xb9;" horiz-adv-x="198" 
d="M119 392q29 0 40 0.5t9 4.5q0 3 -7 2q-6 0 -18.5 1t-30.5 4q-16 3 -17 11q0 4 1 7q6 27 37 81q29 54 41 63q0 5 -0.5 8t0.5 5q6 4 10 7t7 5t3 6q-3 5 -7 5q-2 0 -4 -1q-29 -21 -108 -52q-2 -2 -3.5 -2.5t-2.5 -2.5q0 -3 5 -3q1 0 1.5 0.5t2.5 0.5q16 5 31 11t30 11
q1 1 3 1t4 -3q0 -2 -1 -4q-24 -49 -40 -87t-26 -65q-19 -1 -32 -1.5t-19 -2.5q-9 0 -7 -9q2 -4 9 -4q19 3 77 3h12z" />
    <glyph glyph-name="ordmasculine" unicode="&#xba;" horiz-adv-x="201" 
d="M174 493q0 26 -19 44t-46 18q-26 0 -45 -18t-19 -44t19 -44.5t45 -18.5q27 0 46 18.5t19 44.5zM109 442q-21 0 -36 15t-15 36q0 20 15 35t36 15q20 0 36 -15t16 -35q0 -21 -16 -36t-36 -15z" />
    <glyph glyph-name="guillemotright" unicode="&#xbb;" horiz-adv-x="370" 
d="M286 154q-14 -28 -122 -116q-8 -6 -3 -9q1 -6 11 2q22 15 45 29.5t46 29.5q57 40 61 50q6 7 -29 138q-2 9 -7 9q-6 0 -5 -11q11 -104 3 -122zM147 154q-15 -30 -122 -116q-6 -6 -3 -9q2 -7 11 1q23 15 45.5 29.5t45.5 30.5q28 20 43.5 31.5t18.5 17.5t-16 77
q-18 71 -22 71q-5 0 -4 -11q12 -105 3 -122z" />
    <glyph glyph-name="onequarter" unicode="&#xbc;" horiz-adv-x="506" 
d="M290 -22q1 27 28 80q6 11 31 62q4 -1 14 -1h28q4 0 9 5.5t5 8.5t-2 1q-3 -1 -15 -0.5t-33 2.5q6 11 20.5 37t37.5 66q23 42 40.5 71t31.5 52v1q0 3 -5 3q-21 0 -27 -14q-36 -65 -65 -118.5t-51 -93.5h-8t-22 1q-13 0 -25 0.5t-24 0.5q-13 0 -22.5 -0.5t-17.5 -1.5
q6 8 25 30.5t52 57.5q35 38 60.5 63.5t43.5 39.5q3 3 3 7q0 8 -6 8q-2 0 -3 -1q-18 -17 -41.5 -40t-55.5 -60q-62 -69 -87 -105q-2 -5 -4.5 -6.5t-4.5 -2.5q-11 -9 -11 -10q-3 -5 -3 -10q0 -13 4 -13q1 0 2.5 2t5.5 9q5 8 10 10q9 2 25 2.5t42 -0.5h33q14 0 21 -1
q-43 -91 -45 -140q-2 -10 3 -10q3 0 3 8zM28 19q12 56 189 250q79 87 147 154.5t126 115.5q7 9 7 13q0 7 -6 7t-14 -7q-109 -91 -273 -276q-179 -202 -185 -255q0 -15 2 -19q2 0 7 17zM122 288q30 0 42 1t12 7q0 5 -8 3q-16 -2 -50 7q-17 2 -17 13q0 6 4 11q6 19 20.5 47.5
t35.5 65.5q20 36 34.5 58t21.5 30q2 6 2 11t1 6q7 5 13 9.5t9 7.5q2 2 2 8q0 7 -4 7q-1 0 -5 -3q-37 -28 -124 -72q-3 -1 -4 -2.5t-2 -3.5q-2 -2 -1 -3t3 -1t6 2q17 7 34 14.5t35 17.5l1 0.5t2 0.5q3 0 3 -4q0 -5 -3 -8q-34 -67 -59 -119.5t-41 -90.5q-21 -2 -34.5 -3
t-22.5 -3q-7 -1 -7 -12q0 -5 7 -5q21 3 81 3h13z" />
    <glyph glyph-name="onehalf" unicode="&#xbd;" horiz-adv-x="506" 
d="M28 19q12 56 189 250q79 87 147 154.5t126 115.5q7 9 7 13q0 7 -6 7t-14 -7q-109 -91 -273 -276q-179 -202 -185 -255q0 -15 2 -19q2 0 7 17zM376 24q8 0 8 6q0 7 -9 7q-108 0 -108 13q0 2 2.5 3t4.5 3q24 11 48.5 29t49.5 43q31 29 44.5 57.5t13.5 53.5q0 28 -11 47
q-12 21 -43 27q-35 4 -79 -25q-8 -4 -8 -17q0 -2 2 -2q17 13 31.5 17.5t29.5 4.5h18q9 -3 17 -9.5t15 -18.5q5 -9 7.5 -18.5t0.5 -20.5q-6 -48 -54 -99q-17 -17 -33.5 -30t-36.5 -25q-15 -9 -32 -15t-32 -10q-15 -5 -15 -20q0 -6 9 -5q61 6 117 6q14 0 24 -0.5t19 -1.5z
M122 288q30 0 42 1t12 7q0 5 -8 3q-16 -2 -50 7q-17 2 -17 13q0 6 4 11q6 19 20.5 47.5t35.5 65.5q20 36 34.5 58t21.5 30q2 6 2 11t1 6q7 5 13 9.5t9 7.5q2 2 2 8q0 7 -4 7q-1 0 -5 -3q-37 -28 -124 -72q-3 -1 -4 -2.5t-2 -3.5q-2 -2 -1 -3t3 -1t6 2q17 7 34 14.5t35 17.5
l1 0.5t2 0.5q3 0 3 -4q0 -5 -3 -8q-34 -67 -59 -119.5t-41 -90.5q-21 -2 -34.5 -3t-22.5 -3q-7 -1 -7 -12q0 -5 7 -5q21 3 81 3h13z" />
    <glyph glyph-name="threequarters" unicode="&#xbe;" horiz-adv-x="506" 
d="M290 -22q1 27 28 80q6 11 31 62q4 -1 14 -1h28q4 0 9 5.5t5 8.5t-2 1q-3 -1 -15 -0.5t-33 2.5q6 11 20.5 37t37.5 66q23 42 40.5 71t31.5 52v1q0 3 -5 3q-21 0 -27 -14q-36 -65 -65 -118.5t-51 -93.5h-8t-22 1q-13 0 -25 0.5t-24 0.5q-13 0 -22.5 -0.5t-17.5 -1.5
q6 8 25 30.5t52 57.5q35 38 60.5 63.5t43.5 39.5q3 3 3 7q0 8 -6 8q-2 0 -3 -1q-18 -17 -41.5 -40t-55.5 -60q-62 -69 -87 -105q-2 -5 -4.5 -6.5t-4.5 -2.5q-11 -9 -11 -10q-3 -5 -3 -10q0 -13 4 -13q1 0 2.5 2t5.5 9q5 8 10 10q9 2 25 2.5t42 -0.5h33q14 0 21 -1
q-43 -91 -45 -140q-2 -10 3 -10q3 0 3 8zM238 397q4 16 4 34q0 31 -14.5 52t-36.5 24q-3 1 -3 3q0 5 2 6q61 33 83 80q7 14 7 28q0 38 -37 38q-20 0 -36.5 -6.5t-32.5 -18.5q-8 -4 -8 -16q0 -5 3 -3q17 12 33 17t30 5q20 0 20 -27q0 -8 -1 -14.5t-5 -13.5q-5 -13 -15.5 -25
t-24.5 -23q-32 -28 -58 -28q-3 0 -7.5 -3.5t-4.5 -8.5q0 -3 5 -3q41 3 60 -19q17 -17 17 -50q0 -13 -3 -28q-20 -50 -69 -82q-20 -14 -38.5 -21t-36.5 -7q-26 0 -26 20q0 13 -7 13q-5 0 -7.5 -7t-2.5 -13q0 -22 43 -21q41 2 87 29q30 18 49.5 40t30.5 49zM28 19
q12 56 189 250q79 87 147 154.5t126 115.5q7 9 7 13q0 7 -6 7t-14 -7q-109 -91 -273 -276q-179 -202 -185 -255q0 -15 2 -19q2 0 7 17z" />
    <glyph glyph-name="questiondown" unicode="&#xbf;" horiz-adv-x="400" 
d="M276 296q0 -2 2.5 -7.5t5 -12t4 -13.5t-0.5 -13q-4 -11 -15 -16q-18 -5 -50 -17t-79 -31t-78 -33t-49 -24q-88 -52 -88 -141q0 -30 11 -68q8 -25 21.5 -46.5t32.5 -40.5q44 -44 104 -44q18 0 34 4q20 5 40 18t37 36q5 7 5 13q0 5 -3 5q-2 0 -12 -10q-21 -32 -69 -32
t-88 30q-45 30 -60 81q-5 16 -7.5 30.5t-2.5 28.5q0 93 136 163q70 38 215 79q7 3 7 9q0 11 -18 34q-17 24 -28 24q-7 0 -7 -6zM299 395q-1 -3 -1.5 -10.5t1.5 -19.5q1 -11 2.5 -17t3.5 -8.5t4 -2.5h4q8 0 22 6q14 7 18.5 12.5t0.5 26.5q-2 20 -6 24t-11 4q-11 0 -23.5 -5.5
t-14.5 -9.5z" />
    <glyph glyph-name="Agrave" unicode="&#xc0;" horiz-adv-x="1113" 
d="M931 315q6 14 20 48t33 77t40 90t42 87q3 6 0.5 10.5t-7 8.5t-9.5 7t-5 6q-1 14 -6.5 23.5t-13 13.5t-15.5 2.5t-13 -9.5q-21 -30 -48 -69t-57.5 -81.5t-62.5 -85.5t-62 -82t-56.5 -70.5t-46.5 -51.5q-66 14 -144 24t-154 11t-143 -11.5t-110 -43.5q-33 -25 -48 -55.5
t-15 -61.5t13.5 -60t37.5 -51t58 -34.5t74 -10.5q51 2 101.5 21t97 47t87 60t72 61t51.5 50.5t26 26.5q13 -2 39 -7t54.5 -10t53.5 -9.5t36 -6.5q-3 -14 -10 -44.5t-12.5 -68.5t-5.5 -80t12 -78q4 -8 8 -6.5t1 13.5q-8 31 -5 73t10.5 81t16.5 69.5t13 38.5q7 -1 19 0t24.5 3
t22.5 6.5t13 11.5q4 10 1.5 26.5t-8 34t-12 33t-8.5 23.5zM121 208q54 33 125 43.5t144 7.5t140.5 -15.5t115.5 -24.5q-28 -34 -72.5 -78.5t-99 -84t-116.5 -66.5t-126 -26q-38 0 -67.5 13.5t-50 35.5t-31 49.5t-10.5 54.5t12 51t36 40zM687 234q10 10 31 35.5t48.5 60.5
t58.5 76t61 81t56.5 76.5t44.5 62.5q6 8 12 9t10 -3t5 -12.5t-3 -18.5q-19 -45 -40.5 -94.5t-42 -101t-39 -103.5t-32.5 -100q-11 1 -35 5t-51 9.5t-50.5 10.5t-33.5 7zM1104 743q-14 13 -30.5 29.5l-33.5 33.5l-32.5 32.5l-27.5 27.5q-6 5 -13 3t-12.5 -8t-6.5 -13t6 -12
q13 -10 31.5 -23t38.5 -27t39.5 -27.5t34.5 -24.5q4 -4 8 0t-2 9zM942 211q-8 -10 -26 -11.5t-29 -1.5q2 7 7 21t11 29.5t11.5 30.5t8.5 23q5 -11 10 -24.5t8 -26t3 -23.5t-4 -17z" />
    <glyph glyph-name="Aacute" unicode="&#xc1;" horiz-adv-x="1099" 
d="M904 324q3 -8 9 -23.5t11.5 -33.5t8 -35t-2.5 -27q-3 -7 -12.5 -11t-21.5 -6.5t-23.5 -3t-18.5 -0.5q-4 -8 -13 -39t-16.5 -71.5t-10 -83.5t5.5 -75q3 -12 -0.5 -13.5t-7.5 7.5q-12 36 -12 79q0 42 4.5 82t12 71t10.5 45q-11 1 -35.5 6t-52 10t-53 10t-38.5 8
q-5 -6 -25 -28t-50.5 -51.5t-70 -62.5t-85 -61.5t-95 -48t-98.5 -21.5q-59 -2 -102 26.5t-61.5 72t-8 92.5t58.5 88q41 33 105.5 46t138.5 12t150 -12t140 -26q19 20 45 53t55 72.5t60 83.5t60.5 87.5t55.5 83.5t46 71q4 8 12 9.5t15.5 -3t13.5 -14t7 -22.5q0 -3 4.5 -6.5
l9 -7t7.5 -8.5t0 -11q-21 -40 -42 -88t-39 -92.5t-31.5 -79.5t-19.5 -50zM119 215q-24 -16 -35.5 -40.5t-12 -52.5t9.5 -56t29.5 -50.5t48 -36.5t64.5 -14q63 0 123.5 27.5t114 68t96.5 85.5t70 80q-47 12 -112.5 24.5t-136.5 16.5t-139.5 -7t-119.5 -45zM668 241
q9 -3 32 -8t49.5 -10t50 -9t33.5 -4q13 49 31 101.5t37.5 105t40 103.5t38.5 97q4 11 3.5 19.5t-4.5 12.5t-10 3t-11 -10q-17 -26 -42.5 -63t-55 -78t-59.5 -83t-56.5 -78t-47 -62.5t-29.5 -36.5zM909 770q-7 -2 -10 4.5t4 9.5q17 9 39 21t44.5 24.5t42.5 23.5t34 18
q6 3 11.5 -1.5t8 -12t1 -14.5t-9.5 -10q-15 -6 -35.5 -13.5t-43 -16t-45.5 -17t-41 -16.5zM914 218q4 6 4 17t-2.5 24t-7 27.5t-9.5 26.5q-3 -9 -8.5 -24t-11.5 -31.5t-11 -31t-7 -21.5q11 -1 28.5 0.5t24.5 12.5z" />
    <glyph glyph-name="Acircumflex" unicode="&#xc2;" horiz-adv-x="1077" 
d="M917 345l9 -24t11.5 -35t8 -37t-1.5 -29q-3 -7 -13 -11.5t-22 -7t-24 -3t-18 -0.5q-4 -9 -13 -41.5t-16.5 -75t-10.5 -87.5t5 -79q3 -12 -1 -13.5t-8 7.5q-12 38 -12 83t5.5 86t12.5 74t10 48q-11 1 -36 6t-53 11t-53.5 11.5t-38.5 8.5q-6 -7 -26 -30t-51 -54.5
t-71 -66.5t-86 -64.5t-95.5 -49.5t-99.5 -22q-40 -2 -73 11.5t-57 37t-37 54.5t-13 63q0 33 15 65.5t48 59.5q28 23 67 36.5t85 19t96 5.5q51 0 102 -5.5t100 -14t92 -18.5q20 21 46 55.5t56 76t61.5 87.5t61 91.5t56 87.5t46.5 75q4 9 12 10t16 -3.5t14 -14.5t7 -24
q0 -4 4.5 -7.5t9 -7.5t7 -9t-0.5 -11q-21 -42 -42 -92.5t-39.5 -97t-32 -83.5t-19.5 -52zM120 230q-24 -16 -35.5 -42t-12 -55.5t10 -59t30.5 -53t49 -38.5t66 -15q63 0 124 29.5t115 71.5t97.5 89.5t71.5 83.5q-47 13 -113.5 26.5t-138.5 17.5t-141.5 -7.5t-122.5 -47.5z
M678 260q9 -3 32.5 -9t49.5 -11.5t50 -10t35 -5.5q13 52 31.5 107.5t38.5 111t40.5 108.5t38.5 101q5 12 4 20.5t-4.5 13t-9.5 3.5t-12 -10q-17 -28 -43 -67t-55.5 -82t-60.5 -87t-58 -81t-47.5 -64.5t-29.5 -37.5zM1008 845q-17 -5 -40 -16t-51 -27q-7 -7 -7 0q0 3 0.5 4.5
t2.5 5.5q6 3 20.5 13t37.5 29q38 28 39 27q2 -1 19 -19t49 -55q2 -2 3 -5q0 -3 -1 -3.5t-3 -2.5q-2 -1 -6 3q-8 8 -17 14.5t-17 14.5q-23 18 -29 17zM928 234q4 6 4 17q0 12 -2.5 26t-7.5 28.5t-10 26.5q-3 -9 -8.5 -24.5t-11.5 -33t-10.5 -32.5t-6.5 -22q10 -1 28 1t25 13z
" />
    <glyph glyph-name="Atilde" unicode="&#xc3;" horiz-adv-x="1049" 
d="M897 337q5 14 18 50t31 81.5t38.5 95.5t40.5 92q3 6 1 10.5t-6.5 8.5t-9 7.5t-5.5 7.5q-1 13 -6.5 23t-13 14.5t-15.5 3t-13 -9.5q-19 -32 -45 -73.5t-55 -86t-60 -90t-60 -86t-54.5 -74t-44.5 -54.5q-63 15 -138 26t-148 11.5t-137.5 -13t-104.5 -47.5
q-32 -26 -47 -57.5t-15 -64.5q0 -32 12.5 -62t35.5 -53t55.5 -36.5t70.5 -11.5q49 2 98 21.5t93.5 49t84 63.5t69.5 64.5t49.5 53.5t24.5 29q12 -3 37.5 -8t53 -11t52.5 -11t36 -6q-3 -14 -10.5 -46t-12.5 -72.5t-5 -84.5t11 -82q5 -9 8.5 -7.5t0.5 12.5q-8 34 -5.5 78.5
t10 86t16.5 73.5t14 41q7 -1 18.5 0t23 3.5t21 7t12.5 11.5q4 10 1.5 27.5t-7.5 36t-11 34.5t-8 24zM118 223q51 36 118.5 47t137.5 7.5t135.5 -17t110.5 -26.5q-26 -35 -68.5 -81.5t-95 -88t-113 -70t-122.5 -27.5q-36 0 -64 14.5t-47.5 37.5t-29.5 51.5t-9.5 57t12 54
t35.5 41.5zM661 253q9 10 29 37t46.5 63.5t56.5 79.5t59 85t54 80t42 65q6 9 12 10.5t10 -2.5t4.5 -12.5t-3.5 -20.5q-18 -47 -38 -99t-39.5 -106.5t-37.5 -108.5t-31 -105q-10 1 -33.5 5t-50 9.5t-49 11t-31.5 8.5zM878 823q11 9 25.5 16t31.5 7q9 0 23 -6t28 -12.5
t28 -12.5t23 -6t17 4.5t15.5 11t14.5 14t12 12.5q7 11 4 14.5t-13 -5.5q-10 -11 -19 -14.5t-31 -3.5q-10 0 -24 6t-28.5 13t-27.5 13t-22 6q-8 0 -17 -5t-17 -12.5t-15.5 -15.5t-13.5 -14q-6 -10 -5.5 -15t11.5 5zM908 228q-8 -12 -25.5 -13.5t-27.5 0.5q2 7 6.5 21.5t10 31
t11 32t8.5 24.5q5 -13 9.5 -27t7.5 -27.5t3 -24.5t-3 -17z" />
    <glyph glyph-name="Adieresis" unicode="&#xc4;" horiz-adv-x="1050" 
d="M878 340q2 -8 8 -24.5t11.5 -35t8 -36t-1.5 -27.5q-3 -7 -12.5 -11.5t-21.5 -7.5t-24 -3.5t-19 -0.5q-4 -9 -12.5 -41t-16 -74t-10.5 -86.5t5 -77.5q4 -12 0 -13.5t-8 7.5q-11 38 -11.5 82t4.5 85t12.5 73.5t10.5 47.5q-11 1 -36 6t-53 10.5t-53.5 11t-38.5 7.5
q-5 -6 -25 -28.5t-51 -53.5t-71 -65.5t-85.5 -64t-95 -49.5t-99.5 -22q-60 -2 -103.5 27.5t-62.5 74.5t-9 96t59 91q42 34 107 47t139.5 12.5t151.5 -11.5t142 -26q19 21 45 54.5t55.5 74.5t60.5 86.5t61 90.5t56.5 86.5t46.5 73.5q5 9 13 10.5t15.5 -3t13 -14.5t6.5 -24
q0 -4 5 -7t9.5 -7t7 -8.5t-0.5 -11.5q-21 -42 -42 -92t-39.5 -95.5t-32 -82t-19.5 -51.5zM85 227q-24 -16 -35.5 -42t-12 -55t9.5 -58t30 -52.5t48.5 -38t65.5 -14.5q63 0 124 28.5t115 70.5t97.5 89t70.5 83q-47 13 -113 26t-137.5 16.5t-141 -7.5t-121.5 -46zM640 254
q9 -2 32.5 -7.5t50 -11t50 -10t33.5 -4.5q13 51 31.5 106t38.5 109.5t40.5 107t39.5 99.5q4 11 3 20t-5 13.5t-10 3.5t-11 -10q-17 -28 -43 -66.5t-55.5 -81t-60.5 -86t-57.5 -80.5t-47 -64t-29.5 -38zM889 230q8 14 1 43t-18 55q-3 -9 -8.5 -25t-11 -33t-10.5 -32l-7 -21
q10 -1 28 0.5t26 12.5zM1044 814q0 -4 -6 -8.5t-13.5 -8t-15.5 -4.5t-11 2q-2 3 -4 12t-3 18.5t-1 17.5t2 11t8 7.5t13.5 7.5t13.5 4.5t8 -1.5q3 -2 4.5 -10t2.5 -17.5t1.5 -18t0.5 -12.5zM944 816q0 -4 -6 -9t-13.5 -8.5t-15 -4.5t-9.5 2t-4 11.5t-3 18t-1.5 18t1.5 11.5
t8.5 7.5t13.5 8t13 4.5t9 -2q2 -2 3.5 -10t2 -17.5t1 -18t0.5 -11.5z" />
    <glyph glyph-name="Aring" unicode="&#xc5;" horiz-adv-x="1065" 
d="M920 343q6 15 20 51.5t32 83t39.5 97t42.5 92.5q4 6 1 11t-7.5 9t-9.5 7.5t-5 6.5q-1 14 -7 24.5t-13.5 15t-16 3t-13.5 -10.5q-20 -33 -46.5 -74.5t-56.5 -86.5t-61.5 -91t-61 -87.5t-55.5 -76t-45 -55.5q-65 16 -142 27t-152.5 11.5t-141.5 -13t-108 -47.5
q-49 -40 -59.5 -91.5t9 -96.5t63.5 -75t104 -28q50 2 100 22t95.5 50t86 64.5t71.5 65.5t51.5 54.5t25.5 29.5q13 -3 39 -8.5t54 -11.5t53 -11t36 -6q-3 -15 -10.5 -47.5t-12.5 -73.5t-5 -85q0 -45 11 -83q5 -9 8.5 -7.5t1.5 12.5q-8 34 -5.5 79t10 87.5t16.5 75t13 41.5
q7 0 19 0.5t24 3t21.5 7t12.5 11.5q4 11 1.5 28.5t-7.5 36.5t-11 35zM121 229q35 24 78 36.5t90.5 16.5t96 1t94 -9.5t86.5 -16t72 -17.5q-28 -36 -71.5 -83t-97.5 -89t-115.5 -71t-124.5 -29q-37 0 -66.5 14.5t-49.5 38t-30.5 53t-10 58.5t12.5 55t36 42zM680 258
q9 10 29.5 37.5t47.5 64.5t58 80.5t60.5 86.5t56 82t43.5 66q11 17 21 7t2 -34q-19 -48 -39.5 -101t-41 -107.5t-38.5 -109.5t-32 -107q-10 0 -34 4.5t-50.5 10t-50 11.5t-32.5 9zM1056 837q0 20 -12 34.5t-29 14.5t-29 -14.5t-12 -34.5q0 -18 12 -31t29 -13t29 13t12 31z
M1015 803q-14 0 -23.5 10t-9.5 24q0 17 9.5 27.5t23.5 10.5q13 0 22.5 -10.5t9.5 -27.5q0 -14 -9.5 -24t-22.5 -10zM932 233q-8 -11 -26 -13t-27 -1q1 7 5.5 22t10 32t11 32.5t8.5 24.5q6 -12 11 -26.5t8 -28t3 -25.5q0 -11 -4 -17z" />
    <glyph glyph-name="AE" unicode="&#xc6;" horiz-adv-x="860" 
d="M1018 665q5 10 5 19q0 10 -4.5 19.5t-10.5 17.5t-12.5 13.5t-10.5 8.5q-9 5 -28.5 6.5t-43.5 1.5q-29 0 -60.5 -2.5t-53.5 -6.5l-6 4q-2 9 -9.5 12.5t-15.5 3.5q-2 0 -6 -1t-9 -2q-7 -4 -21 -26t-30 -49l-9 5q3 9 3 15q0 16 -9.5 28.5t-23 21.5t-29 13.5t-28.5 4.5
q-2 0 -4 -0.5t-4 -0.5q-30 -7 -76.5 -41.5t-103.5 -92.5t-122.5 -135.5t-132.5 -169.5l-2 -2q-13 -6 -30.5 -16.5t-27.5 -18.5q-10 -7 -13.5 -15.5t-3.5 -17.5q0 -18 7 -27v-6q-11 -17 -26.5 -42t-32 -53.5t-32 -58t-26.5 -55.5q-3 -9 -3 -17q0 -12 3.5 -22t8.5 -10
q6 0 13 20q13 34 32 72.5t41 78t46.5 78.5t48.5 74l2 1q35 20 84 38t100.5 32t100.5 22.5t85 10.5l5 -7q-13 -32 -28.5 -72.5t-29 -82t-23 -79.5t-9.5 -63v-8q1 -16 3.5 -34.5t8.5 -34t16 -26.5t24 -11q8 -1 15 -1h15q34 0 73 3.5t74.5 8.5t63.5 12t40 15q11 7 14.5 12
t3.5 8q0 2 -3 2q-5 0 -11 -3h-1q-10 -5 -29 -10t-44 -8.5t-53 -5.5t-55 -2q-32 0 -60.5 3t-48.5 10q-20 5 -25.5 10t-5.5 20v9t1 12q0 2 0.5 3t0.5 3v1q3 30 14 69t27 81t33.5 84.5t34.5 78.5l4 3q25 6 61.5 10t71.5 4q20 0 37 -1.5t29 -5.5h1q3 -1 6 -1q7 0 7 3q0 5 -15 8
q-17 4 -46 5t-59 1h-39t-35 -1l-5 7q14 30 31 64.5t36.5 70t41.5 69.5t45 61l2 2q30 13 75.5 21.5t87.5 8.5q41 0 67 -9q26 -11 26 -32q0 -11 -4 -20t-4 -13q5 1 17 16v-1zM672 705q-8 -45 -28 -91.5t-46 -98.5q-11 -23 -23 -48t-23 -51l-4 -3q-5 -1 -11 -1q-5 0 -10 -1
q-30 -3 -68 -7.5t-79 -11.5t-83 -18t-79 -26l-6 8q43 60 90 120t94.5 111.5t94 91t90.5 59.5q10 5 23.5 9t27.5 4q17 0 29 -7.5t12 -28.5q0 -2 -0.5 -4.5t-0.5 -4.5v-1z" />
    <glyph glyph-name="Ccedilla" unicode="&#xc7;" horiz-adv-x="922" 
d="M323 -4q76 -2 154.5 15.5t162.5 52.5q155 65 249 159q6 7 6 11q0 5 -4 5q-5 0 -11 -7q-47 -43 -107 -78.5t-135 -66.5q-81 -32 -159 -49.5t-155 -19.5q-132 -3 -205 50q-64 46 -64 120q0 26 8 49q47 153 255 309q196 147 366 179q14 2 26.5 3t24.5 1q81 0 99 -40
q-22 -23 -43 -52t-44 -64q-56 -91 -56 -146q0 -4 15 -7q15 -2 18 0q56 33 98 82q35 40 48 74.5t13 73.5q0 40 -14 57q13 14 13 19q0 6 -4 7q-7 2 -8 -3l-13 -13q-33 30 -109 30q-26 0 -54 -3q-105 -13 -266 -99q-84 -46 -153.5 -97t-126.5 -108q-128 -131 -128 -240
q0 -92 96 -149q22 -14 46.5 -24t50.5 -18q-13 -8 -25 -17t-20 -17t7 -14q30 -7 42 -21t1 -34q-5 -8 -16.5 -16.5t-26 -16.5t-30.5 -13.5t-31 -6.5q-11 0 -10 -6.5t14 -6.5q19 2 39.5 8.5t39 15.5t33 19t20.5 19q9 15 7 27t-9.5 21t-18.5 14t-18 7q-7 3 -6.5 6.5t3.5 7.5
q5 5 10 10.5t11 9.5q43 -7 94 -9zM716 447q13 54 49 119q18 35 36.5 61t37.5 46q10 -17 10 -45q0 -32 -13 -62q-35 -81 -109 -128q-4 -3 -9 0q-3 2 -2 9z" />
    <glyph glyph-name="Egrave" unicode="&#xc8;" horiz-adv-x="592" 
d="M638 563q9 12 10 28.5t-3.5 32.5t-13 28t-19.5 17q-46 19 -106 25.5t-122 11.5q-1 9 -5.5 19t-11 16.5t-14.5 9t-16 -3.5q-23 -17 -42 -49q-38 -2 -85 -5.5t-95 -8.5t-94.5 -13t-82.5 -19q-8 -1 -12.5 -8t-5 -14.5t3.5 -13t13 -3.5q18 4 43 6t50 1.5t47 -2t34 -2.5
q8 -2 9 4.5t-4 8.5q-4 2 -5 5t-6 5q-10 2 -8 7.5t9 7.5q37 8 80.5 11.5t89.5 4.5q-22 -25 -47 -60.5t-49.5 -74.5t-47 -79.5t-40.5 -74.5q-13 -4 -28.5 -7t-27.5 -7q-10 -3 -13.5 -8.5t-2 -11.5t6.5 -11.5t13 -8.5q8 -5 14.5 -7.5t14.5 -2.5q-17 -45 -27.5 -95t-8.5 -99
q3 -39 17.5 -69t37 -50t50.5 -30t56 -9q50 0 99.5 15.5t94 38t82 48.5t63.5 49q7 5 5 11.5t-10 1.5q-27 -17 -64.5 -38t-82 -39.5t-93.5 -32t-98 -14.5q-27 0 -50 6t-39.5 20t-26.5 38t-10 60q-1 55 15 109t39 102q24 4 61 10t80 11.5t89.5 9t90 4t81 -3t62.5 -13.5
q12 -5 16.5 -1t2.5 10.5t-9 13t-16 8.5q-42 10 -98 12.5t-116.5 0t-120 -7.5t-106.5 -11q14 26 38 65.5t52.5 81t58 80t53.5 63.5q32 3 67 3t70.5 -3t68.5 -9t60 -15q11 -6 17 -20.5t-2 -31.5q-20 -38 -45.5 -58t-56.5 -36q-7 -5 -6.5 -12.5t11.5 -3.5q38 13 72 34.5
t45 41.5zM381 846q-14 13 -31 29.5t-34 33.5l-33 33l-28 28q-6 6 -13 4.5t-12 -7.5t-6 -13.5t5 -12.5q13 -11 32 -24.5t39 -27.5t39.5 -28t34.5 -25q5 -3 8.5 0.5t-1.5 9.5z" />
    <glyph glyph-name="Eacute" unicode="&#xc9;" horiz-adv-x="597" 
d="M641 539q9 12 10 28t-3 31t-13 27t-20 16q-46 18 -105 25t-122 12q-1 9 -5.5 18.5t-11 15.5t-14.5 8t-16 -4q-24 -18 -42 -46q-38 -3 -84.5 -6t-94.5 -8t-94 -12.5t-82 -17.5q-8 -2 -12.5 -8.5t-5 -14t3.5 -12.5t13 -4q18 4 43 6t49 2q25 0 47 -1.5t34 -2.5q7 -3 8.5 4
t-4.5 10q-3 1 -4 3.5t-7 4.5q-8 2 -6.5 7.5t7.5 7.5q37 7 80.5 10t89.5 4q-22 -24 -47 -57.5t-49 -71.5t-46.5 -77t-39.5 -72q-14 -2 -29.5 -6t-26.5 -6q-10 -3 -13.5 -8.5t-2.5 -11.5t6 -11t13 -8q8 -5 15 -7t15 -2q-17 -44 -28 -92t-9 -95q3 -38 17.5 -67t37 -48t50 -28.5
t55.5 -8.5q50 0 99.5 15t94 36.5t82 47t63.5 46.5q7 5 4.5 11t-10.5 1q-26 -16 -63.5 -36t-81.5 -38t-93 -30.5t-98 -13.5q-27 0 -50 5.5t-40 19t-26.5 36.5t-9.5 57q-1 54 14.5 106t38.5 96q24 5 61 10.5t80 11t89.5 9t90 4t80.5 -3t62 -12.5q12 -4 16.5 -0.5t2.5 9.5
t-8.5 12.5t-15.5 8.5q-41 9 -97.5 11t-117 0t-119.5 -7t-106 -11q13 26 37 64t52.5 77.5t58 77t53.5 61.5q32 3 67.5 2.5t70 -3.5t67.5 -9t60 -15q11 -5 17 -18.5t-2 -30.5q-20 -35 -45.5 -55t-56.5 -34q-7 -6 -6 -13t12 -2q18 6 36.5 14.5t34.5 18t28 19.5t17 19zM257 778
q19 7 43 15.5t47.5 16.5t45 15t37.5 12q8 3 9.5 10t-1 13.5t-8 11t-12.5 1.5q-14 -7 -35 -18t-44 -23t-46 -23.5t-41 -19.5q-7 -4 -4 -9.5t9 -1.5z" />
    <glyph glyph-name="Ecircumflex" unicode="&#xca;" horiz-adv-x="601" 
d="M641 543q8 12 9.5 28t-3 31t-13 27t-20.5 17q-45 18 -104.5 24t-120.5 11q-1 9 -5.5 18.5t-11.5 16.5t-15 9t-16 -4q-22 -18 -41 -47q-38 -2 -84 -5.5t-94 -8.5t-93.5 -12.5t-81.5 -18.5q-8 -1 -12.5 -8t-5 -14t3.5 -12t13 -3q18 4 42.5 5.5t48.5 1.5q25 0 47 -1.5
t35 -2.5q8 -2 9 4t-5 8q-3 2 -4 5t-8 5q-9 2 -7.5 7t8.5 7q38 8 80.5 11.5t89.5 4.5q-23 -24 -47.5 -58.5t-49 -72.5t-46.5 -77t-40 -73q-14 -2 -29 -5t-26 -7q-10 -3 -13.5 -8.5t-2 -11.5t6.5 -11t12 -8q16 -9 30 -9q-17 -44 -28 -92.5t-8 -94.5q2 -39 17 -68t37.5 -48.5
t50 -29t54.5 -8.5q49 0 98 15t93.5 36.5t81.5 47t64 46.5q7 7 4.5 12.5t-10.5 0.5q-27 -16 -64 -36.5t-81 -38.5t-92 -30.5t-97 -13.5q-27 0 -50 5.5t-39.5 19.5t-26 36.5t-10.5 57.5q-1 54 15 106.5t39 97.5q24 4 60 9.5t79 11t89 9t89.5 4t80.5 -3t62 -13.5q12 -4 16 0
t2 10t-8 13t-15 9q-42 9 -98 11t-116 0t-118.5 -7t-104.5 -11q13 25 36.5 63t51.5 78t57 77.5t53 62.5q32 3 67 3q36 0 70.5 -3t67 -9t59.5 -15q11 -5 17.5 -19t-2.5 -31q-20 -36 -45 -56t-55 -35q-6 -5 -5.5 -12t10.5 -2q18 6 36.5 14t34.5 17.5t28 20t17 20.5zM337 850
q5 1 29 -16q9 -6 18.5 -13t17.5 -14q3 -3 5 -2l3 1.5t1 3.5q0 2 -3 5q-64 66 -69 68q-2 2 -40 -25q-23 -17 -37.5 -26.5t-20.5 -13.5q-4 -4 -4 -7q0 -4 2 -4q3 0 6 3q28 14 50.5 24.5t41.5 15.5z" />
    <glyph glyph-name="Edieresis" unicode="&#xcb;" horiz-adv-x="598" 
d="M641 539q9 12 10 27.5t-3 30.5t-12.5 27t-20.5 16q-46 18 -105.5 24.5t-121.5 11.5q-1 9 -5.5 19t-11 16.5t-14.5 8t-16 -4.5q-11 -8 -21.5 -20t-20.5 -26q-38 -3 -84.5 -6t-94.5 -8t-93.5 -12.5t-81.5 -17.5q-8 -2 -12.5 -8.5t-5 -14t3.5 -13t13 -3.5q18 4 42.5 6
t49.5 2t47 -1t34 -2q8 -4 9 2.5t-5 9.5q-3 2 -4 4.5t-7 4.5q-9 2 -7.5 7.5t8.5 7.5q38 7 81 10t88 4q-22 -24 -46.5 -58t-48.5 -71.5t-46.5 -76t-40.5 -72.5q-14 -2 -29 -5.5t-27 -6.5q-20 -6 -16 -19.5t19 -19.5q9 -5 16 -7.5t15 -2.5q-17 -43 -28.5 -90.5t-9.5 -93.5
q3 -39 17.5 -68t37 -48t50.5 -28.5t56 -8.5q50 0 99 14.5t93 36.5t81.5 47t64.5 46q7 7 4.5 12.5t-10.5 0.5q-27 -16 -64 -36t-81 -38t-92.5 -31t-97.5 -14q-27 0 -50 5.5t-40 19.5t-26.5 36.5t-9.5 57.5q-1 54 14.5 105.5t38.5 96.5q24 4 61 10t80 11t89.5 9t89.5 4.5
t80.5 -3.5t62.5 -13q12 -4 16 -0.5t2 9.5t-8 13t-15 9q-42 9 -98.5 11t-116.5 0t-119 -7.5t-105 -11.5q13 25 36.5 63t51.5 78t57.5 77.5t53.5 62.5q32 2 67 2q36 0 70.5 -3t67.5 -9t60 -15q11 -5 17 -18.5t-2 -30.5q-20 -36 -45 -56t-56 -34q-6 -6 -5.5 -13t10.5 -3
q38 13 71.5 33t44.5 40zM432 820q0 3 -0.5 11t-1.5 16.5t-2.5 16t-3.5 9.5q-2 3 -8.5 2t-14 -4.5t-14 -7.5t-7.5 -7q-2 -3 -2 -11q0 -7 1 -15.5t2.5 -16.5t3.5 -11q3 -3 11 -2t16 4.5t14 8t6 7.5zM330 821q0 3 -0.5 11t-1.5 17t-2.5 16.5t-3.5 9.5q-3 3 -9 1.5t-13 -4.5
t-13.5 -7.5t-8.5 -7.5t-1.5 -10.5t1.5 -16t3 -16.5t4 -11t9.5 -2t15.5 4.5t14 8t6 7.5z" />
    <glyph glyph-name="Igrave" unicode="&#xcc;" horiz-adv-x="595" 
d="M-56 111q9 13 12 10.5t-2 -16.5q-15 -44 -20.5 -95.5t3 -95.5t32.5 -73.5t67 -27.5q33 2 66 26t62.5 56t52 65.5t34.5 53.5q13 23 33.5 64.5t44.5 94t49.5 112.5t49.5 121t44 119t33 107q-20 -15 -47 -38t-55 -50.5t-54.5 -59.5t-47.5 -66q-13 -23 -27 -53.5t-17 -60.5
q-2 -20 -7.5 -17.5t-4.5 17.5q4 29 12.5 66t25.5 63q19 34 48.5 65.5t61.5 59.5t64 53t56 46q6 15 12 31t12.5 30.5t13.5 25.5t15 15q7 3 10 -0.5t4 -11t-1 -16.5t-5 -16q-8 -16 -17 -32t-22 -30q-5 -20 -19.5 -66t-35.5 -106.5t-47 -130t-54 -136t-56 -124.5t-54 -96
q-13 -19 -34.5 -50.5t-51 -62t-66.5 -54t-81 -26.5q-32 -2 -55.5 13.5t-39.5 42.5t-23 61.5t-7 69.5t8.5 67.5t24.5 55.5zM594 855q6 -5 2 -8.5t-9 -0.5q-15 11 -34 24.5t-39 27.5t-38.5 27t-32.5 23q-6 5 -5 12t6 13t12.5 8t13.5 -3l27.5 -27.5l32.5 -32.5l33.5 -33.5
t30.5 -29.5z" />
    <glyph glyph-name="Iacute" unicode="&#xcd;" horiz-adv-x="634" 
d="M-56 111q9 13 12 10.5t-2 -16.5q-15 -44 -20.5 -95.5t3 -95.5t32.5 -73.5t67 -27.5q33 2 66 26t62.5 56t52 65.5t34.5 53.5q13 23 33.5 64.5t44.5 94t49.5 112.5t49.5 121t44 119t33 107q-20 -15 -47 -38t-55 -50.5t-54.5 -59.5t-47.5 -66q-13 -23 -27 -53.5t-17 -60.5
q-2 -20 -7.5 -17.5t-4.5 17.5q4 29 12.5 66t25.5 63q19 34 48.5 65.5t61.5 59.5t64 53t56 46q6 15 12 31t12.5 30.5t13.5 25.5t15 15q7 3 10 -0.5t4 -11t-1 -16.5t-5 -16q-8 -16 -17 -32t-22 -30q-5 -20 -19.5 -66t-35.5 -106.5t-47 -130t-54 -136t-56 -124.5t-54 -96
q-13 -19 -34.5 -50.5t-51 -62t-66.5 -54t-81 -26.5q-32 -2 -55.5 13.5t-39.5 42.5t-23 61.5t-7 69.5t8.5 67.5t24.5 55.5zM501 834q-7 -2 -10 4.5t4 9.5q17 9 39 21l44 24t42 23.5t34 18.5q6 3 12 -1.5t8.5 -12t0.5 -14.5t-10 -10q-14 -6 -34.5 -13.5t-43 -16t-45.5 -17
t-41 -16.5z" />
    <glyph glyph-name="Icircumflex" unicode="&#xce;" horiz-adv-x="614" 
d="M-56 111q9 13 12 10.5t-2 -16.5q-15 -44 -20.5 -95.5t3 -95.5t32.5 -73.5t67 -27.5q33 2 66 26t62.5 56t52 65.5t34.5 53.5q13 23 33.5 64.5t44.5 94t49.5 112.5t49.5 121t44 119t33 107q-20 -15 -47 -38t-55 -50.5t-54.5 -59.5t-47.5 -66q-13 -23 -27 -53.5t-17 -60.5
q-2 -20 -7.5 -17.5t-4.5 17.5q4 29 12.5 66t25.5 63q19 34 48.5 65.5t61.5 59.5t64 53t56 46q6 15 12 31t12.5 30.5t13.5 25.5t15 15q7 3 10 -0.5t4 -11t-1 -16.5t-5 -16q-8 -16 -17 -32t-22 -30q-5 -20 -19.5 -66t-35.5 -106.5t-47 -130t-54 -136t-56 -124.5t-54 -96
q-13 -19 -34.5 -50.5t-51 -62t-66.5 -54t-81 -26.5q-32 -2 -55.5 13.5t-39.5 42.5t-23 61.5t-7 69.5t8.5 67.5t24.5 55.5zM566 871q-17 -5 -39.5 -16t-50.5 -27q-7 -7 -7 0q0 4 0.5 5.5t2.5 4.5q6 4 20.5 14t37.5 28q37 30 39 28t19 -20t49 -54q2 -2 3 -6q0 -3 -1 -3.5
l-3 -1.5q-3 -1 -6 2q-8 8 -17 15t-17 15q-22 18 -30 16z" />
    <glyph glyph-name="Idieresis" unicode="&#xcf;" horiz-adv-x="595" 
d="M-56 111q9 13 12 10.5t-2 -16.5q-15 -44 -20.5 -95.5t3 -95.5t32.5 -73.5t67 -27.5q33 2 66 26t62.5 56t52 65.5t34.5 53.5q13 23 33.5 64.5t44.5 94t49.5 112.5t49.5 121t44 119t33 107q-20 -15 -47 -38t-55 -50.5t-54.5 -59.5t-47.5 -66q-13 -23 -27 -53.5t-17 -60.5
q-2 -20 -7.5 -17.5t-4.5 17.5q4 29 12.5 66t25.5 63q19 34 48.5 65.5t61.5 59.5t64 53t56 46q6 15 12 31t12.5 30.5t13.5 25.5t15 15q7 3 10 -0.5t4 -11t-1 -16.5t-5 -16q-8 -16 -17 -32t-22 -30q-5 -20 -19.5 -66t-35.5 -106.5t-47 -130t-54 -136t-56 -124.5t-54 -96
q-13 -19 -34.5 -50.5t-51 -62t-66.5 -54t-81 -26.5q-32 -2 -55.5 13.5t-39.5 42.5t-23 61.5t-7 69.5t8.5 67.5t24.5 55.5zM637 851q0 -3 -6 -7.5t-14 -8t-15.5 -4.5t-10.5 2q-2 3 -4 11.5t-3 18t-1 17.5t2 11t8 7.5t13.5 8t13.5 5t8 -1.5q3 -3 4.5 -11t2.5 -17.5t1.5 -18
t0.5 -12.5zM537 854q0 -4 -6 -9t-13.5 -8.5t-15 -4.5t-9.5 2t-4 11.5t-3 18t-1.5 17.5t1.5 11t8 8t13 8.5t13.5 4.5t9.5 -2q2 -3 3.5 -11t2 -17t1 -17.5t0.5 -11.5z" />
    <glyph glyph-name="Eth" unicode="&#xd0;" horiz-adv-x="547" 
d="M76 415v-1h-1v1q-16 5 -30 8.5t-22 1.5t-16.5 -9t-16.5 -16.5t-15 -20t-12 -17.5q-7 -12 -5.5 -17.5t12.5 8.5q11 12 27 22.5t33 13.5q8 2 18.5 0t24.5 -6q-6 -85 -8.5 -153t-2.5 -111q2 -5 -1.5 -3t-7.5 2q-8 4 -11.5 5t-4.5 1.5t-1.5 1.5t-3.5 5q-9 7 -18 7
q-8 0 -12.5 -5t-4 -13t10.5 -15q11 -11 20 -17.5t26 -16.5q1 -2 1.5 -4.5t5.5 -7.5q1 -6 0.5 -8t-1 -3t-0.5 -3t3 -8q2 -6 16.5 -8t22.5 6q12 6 16 2q26 -9 55 -18.5t59.5 -16t62.5 -8t65 5.5q52 9 85.5 35t52.5 60t25.5 72.5t4.5 73.5q-8 93 -38 177t-71 152.5t-88 119
t-89 77.5q-24 11 -37.5 14t-25.5 1q-9 2 -11.5 2.5t0.5 8.5q5 9 5 15t-3.5 7.5t-9 -1t-10.5 -9.5q-28 -40 -41 -89q-11 -51 -19 -132t-15 -169h1zM154 365q9 2 17 9t15 16t13 18t10 16q8 12 3.5 16.5t-12.5 -9.5q-10 -13 -19.5 -19.5t-33.5 -8.5q-8 -3 -18 -1.5t-21 4.5
q5 85 11.5 161.5t25.5 142.5q14 23 33.5 33.5t49.5 -0.5q22 -10 51.5 -37t59.5 -65.5t58 -87t49 -102t31.5 -109.5t5.5 -110q-3 -26 -9 -54.5t-19 -54.5t-36.5 -47t-60.5 -32q-27 -8 -61.5 -7t-68 7.5t-63 17.5t-47.5 22q-5 2 -6.5 3t-1.5 5q-3 46 -5 120t1 161z" />
    <glyph glyph-name="Ntilde" unicode="&#xd1;" horiz-adv-x="740" 
d="M45 21q21 44 61 100.5t91 116.5t109.5 120t116 111t110 89t92.5 55q34 14 47 -5t-10 -67q-18 -41 -54.5 -110t-81 -153t-92 -174.5t-88 -173.5t-68.5 -152t-33 -109q-2 -16 2.5 -27t12 -17.5t17.5 -8t20 0.5q16 3 34 12t35.5 20.5t33 24t26.5 23.5q13 12 16.5 18t1 7
t-9.5 -3.5t-16 -13.5q-7 -7 -18 -15t-22.5 -14.5t-22 -12t-16.5 -8.5q-11 -4 -14.5 -6.5t-7.5 -3t-11.5 1t-25.5 5.5q-14 3 -5.5 39t33.5 93t61.5 131t78.5 154t85 160t80.5 149.5t65.5 123.5t39 82q5 12 4.5 26.5t-8.5 25.5t-23 16t-39 -2q-31 -9 -70.5 -33.5t-83 -58.5
t-89 -75t-88 -83.5t-80 -83.5t-65.5 -75q-9 -11 -14.5 -13t-8 2t-1.5 11.5t6 16.5q21 37 49.5 88t56 104.5t50.5 103.5t35 84q10 30 11.5 51.5t-9 32t-34.5 11t-64 -11.5q-26 -8 -64 -28.5t-74 -49t-64.5 -63t-35.5 -70.5q-5 -29 0.5 -46.5t9.5 -27.5q5 -11 10 -10.5t6 12.5
q1 13 -0.5 30t5.5 36q6 16 24 45t46 59.5t63.5 57t77.5 37.5q31 8 46.5 -11.5t4.5 -61.5q-7 -28 -26 -71t-45.5 -95t-58 -110t-63.5 -115t-62.5 -110.5t-54.5 -97.5q-8 -15 -3 -21t15 -6t21 5t14 12zM428 826q11 9 26 16t32 7q10 0 25 -6t30 -12.5t29 -12.5t24 -6
q9 0 17.5 4.5t16 11.5t14 14t11.5 13q8 11 5 14.5t-13 -5.5q-11 -12 -19.5 -15.5t-31.5 -3.5q-11 0 -25.5 6t-29.5 12.5t-29 12.5t-24 6q-17 0 -35 -16.5t-29 -29.5q-7 -10 -6 -15t12 5z" />
    <glyph glyph-name="Ograve" unicode="&#xd2;" horiz-adv-x="872" 
d="M26 319q-5 -23 -8.5 -44.5t-3.5 -42.5q0 -106 82 -173q71 -58 173 -62q111 -6 235 51q67 31 123 71.5t101 92.5q105 121 127 267q1 5 1.5 11.5t0.5 13.5q0 88 -58 172q-70 101 -186 119q-38 6 -75 6q-99 0 -189 -36q-97 -41 -155 -109q-52 -61 -52 -119q0 -14 3 -29
q-92 -92 -119 -189zM649 712q-14 2 -28 3.5t-29 1.5q-112 0 -246 -64q-59 -28 -105 -59.5t-82 -66.5q-2 10 -2 20q0 49 49 101q55 58 144 93q94 39 191 39q15 0 29.5 -1t28.5 -3q61 -10 107 -33.5t78 -64.5q56 -71 56 -168q0 -121 -95 -238q-87 -108 -224 -180
q-134 -70 -252 -64q-112 5 -174.5 59.5t-62.5 147.5q0 20 2.5 40.5t8.5 42.5q12 40 44 96q17 27 32 46t29 32q11 -33 47 -60q19 -14 38.5 -21.5t42.5 -8.5q15 -3 15 7q0 7 -11 7q-39 0 -78 28q-36 29 -40 62q39 56 165 121q145 77 265 77q29 0 56 -6q11 -3 11 7q0 6 -10 7z
M521 899q-13 12 -29.5 27.5t-33.5 31.5t-33 30.5t-27 25.5q-6 5 -13 3t-12 -7t-6 -12t5 -11q13 -10 31.5 -22.5t38 -26t39 -26t34.5 -22.5q4 -3 8 0.5t-2 8.5z" />
    <glyph glyph-name="Oacute" unicode="&#xd3;" horiz-adv-x="872" 
d="M26 319q-5 -23 -8.5 -44.5t-3.5 -42.5q0 -106 82 -173q71 -58 173 -62q111 -6 235 51q67 31 123 71.5t101 92.5q105 121 127 267q1 5 1.5 11.5t0.5 13.5q0 88 -58 172q-70 101 -186 119q-38 6 -75 6q-99 0 -189 -36q-97 -41 -155 -109q-52 -61 -52 -119q0 -14 3 -29
q-92 -92 -119 -189zM649 712q-14 2 -28 3.5t-29 1.5q-112 0 -246 -64q-59 -28 -105 -59.5t-82 -66.5q-2 10 -2 20q0 49 49 101q55 58 144 93q94 39 191 39q15 0 29.5 -1t28.5 -3q61 -10 107 -33.5t78 -64.5q56 -71 56 -168q0 -121 -95 -238q-87 -108 -224 -180
q-134 -70 -252 -64q-112 5 -174.5 59.5t-62.5 147.5q0 20 2.5 40.5t8.5 42.5q12 40 44 96q17 27 32 46t29 32q11 -33 47 -60q19 -14 38.5 -21.5t42.5 -8.5q15 -3 15 7q0 7 -11 7q-39 0 -78 28q-36 29 -40 62q39 56 165 121q145 77 265 77q29 0 56 -6q11 -3 11 7q0 6 -10 7z
M363 903q19 7 42 15t46.5 15.5t44.5 14.5l36 12q8 3 9.5 9.5t-1 13.5t-8 11.5t-12.5 1.5q-14 -7 -34.5 -17.5t-43 -22t-44.5 -22.5t-40 -19q-7 -3 -4.5 -8.5t9.5 -3.5z" />
    <glyph glyph-name="Ocircumflex" unicode="&#xd4;" horiz-adv-x="872" 
d="M26 319q-5 -23 -8.5 -44.5t-3.5 -42.5q0 -106 82 -173q71 -58 173 -62q111 -6 235 51q67 31 123 71.5t101 92.5q105 121 127 267q1 5 1.5 11.5t0.5 13.5q0 88 -58 172q-70 101 -186 119q-38 6 -75 6q-99 0 -189 -36q-97 -41 -155 -109q-52 -61 -52 -119q0 -14 3 -29
q-92 -92 -119 -189zM649 712q-14 2 -28 3.5t-29 1.5q-112 0 -246 -64q-59 -28 -105 -59.5t-82 -66.5q-2 10 -2 20q0 49 49 101q55 58 144 93q94 39 191 39q15 0 29.5 -1t28.5 -3q61 -10 107 -33.5t78 -64.5q56 -71 56 -168q0 -121 -95 -238q-87 -108 -224 -180
q-134 -70 -252 -64q-112 5 -174.5 59.5t-62.5 147.5q0 20 2.5 40.5t8.5 42.5q12 40 44 96q17 27 32 46t29 32q11 -33 47 -60q19 -14 38.5 -21.5t42.5 -8.5q15 -3 15 7q0 7 -11 7q-39 0 -78 28q-36 29 -40 62q39 56 165 121q145 77 265 77q29 0 56 -6q11 -3 11 7q0 6 -10 7z
M482 952q5 1 30 -16q8 -6 17 -12t17 -13q3 -3 5 -2q4 2 4 4q0 1 -3 6q-63 61 -68 64q-1 2 -40 -24q-23 -16 -37.5 -25t-20.5 -12q-3 -5 -3 -8q0 -6 8 -1q53 28 91 39z" />
    <glyph glyph-name="Otilde" unicode="&#xd5;" horiz-adv-x="872" 
d="M26 319q-5 -23 -8.5 -44.5t-3.5 -42.5q0 -106 82 -173q71 -58 173 -62q111 -6 235 51q67 31 123 71.5t101 92.5q105 121 127 267q1 5 1.5 11.5t0.5 13.5q0 88 -58 172q-70 101 -186 119q-38 6 -75 6q-99 0 -189 -36q-97 -41 -155 -109q-52 -61 -52 -119q0 -14 3 -29
q-92 -92 -119 -189zM649 712q-14 2 -28 3.5t-29 1.5q-112 0 -246 -64q-59 -28 -105 -59.5t-82 -66.5q-2 10 -2 20q0 49 49 101q55 58 144 93q94 39 191 39q15 0 29.5 -1t28.5 -3q61 -10 107 -33.5t78 -64.5q56 -71 56 -168q0 -121 -95 -238q-87 -108 -224 -180
q-134 -70 -252 -64q-112 5 -174.5 59.5t-62.5 147.5q0 20 2.5 40.5t8.5 42.5q12 40 44 96q17 27 32 46t29 32q11 -33 47 -60q19 -14 38.5 -21.5t42.5 -8.5q15 -3 15 7q0 7 -11 7q-39 0 -78 28q-36 29 -40 62q39 56 165 121q145 77 265 77q29 0 56 -6q11 -3 11 7q0 6 -10 7z
M331 908q11 8 26 14t32 6q10 0 24.5 -5.5t29.5 -11.5t29 -11.5t24 -5.5q17 0 33 14.5t26 24.5q8 10 5 13t-13 -5q-11 -11 -19.5 -14t-31.5 -3q-10 0 -24.5 5.5t-29.5 11.5t-29 11.5t-24 5.5q-8 0 -17 -4.5t-17.5 -11t-16 -13.5t-12.5 -13q-8 -9 -7 -13.5t12 5.5z" />
    <glyph glyph-name="Odieresis" unicode="&#xd6;" horiz-adv-x="872" 
d="M26 319q-5 -23 -8.5 -44.5t-3.5 -42.5q0 -106 82 -173q71 -58 173 -62q111 -6 235 51q67 31 123 71.5t101 92.5q105 121 127 267q1 5 1.5 11.5t0.5 13.5q0 88 -58 172q-70 101 -186 119q-38 6 -75 6q-99 0 -189 -36q-97 -41 -155 -109q-52 -61 -52 -119q0 -14 3 -29
q-92 -92 -119 -189zM649 712q-14 2 -28 3.5t-29 1.5q-112 0 -246 -64q-59 -28 -105 -59.5t-82 -66.5q-2 10 -2 20q0 49 49 101q55 58 144 93q94 39 191 39q15 0 29.5 -1t28.5 -3q61 -10 107 -33.5t78 -64.5q56 -71 56 -168q0 -121 -95 -238q-87 -108 -224 -180
q-134 -70 -252 -64q-112 5 -174.5 59.5t-62.5 147.5q0 20 2.5 40.5t8.5 42.5q12 40 44 96q17 27 32 46t29 32q11 -33 47 -60q19 -14 38.5 -21.5t42.5 -8.5q15 -3 15 7q0 7 -11 7q-39 0 -78 28q-36 29 -40 62q39 56 165 121q145 77 265 77q29 0 56 -6q11 -3 11 7q0 6 -10 7z
M539 905q0 3 -0.5 11t-1.5 16.5t-2.5 15.5t-4.5 9q-2 3 -8 2t-13.5 -4t-13.5 -7t-8 -7t-2 -10t1 -15.5t3 -16t4 -10.5q3 -3 11 -2t15.5 4t13.5 7t6 7zM438 906q0 3 -0.5 11t-1 16.5t-2 15.5t-3.5 9q-3 3 -9 2t-13 -4t-13.5 -7t-8.5 -7t-1.5 -10t1.5 -15.5t3 -16t4 -10.5
t9.5 -2t15 4t13.5 7t6 7z" />
    <glyph glyph-name="multiply" unicode="&#xd7;" horiz-adv-x="612" 
d="M602 147q-20 -32 -48.5 -43t-59.5 -8t-61 17t-52 33q-53 46 -88 112t-55 135q-17 -12 -43.5 -34t-56 -50t-58 -57.5t-48.5 -56.5q-8 -10 -11.5 -23.5t4.5 -18.5q10 -7 18 -7q9 -1 9 -7q0 -5 -7 -5h-10t-13 2q-7 3 -13 20.5t4 38.5q10 20 34.5 48.5t56 59t65.5 61.5t63 55
q-5 20 -8.5 41.5t-5.5 42t-2 38.5t2 30q1 7 7 13.5t13.5 8.5t13 -1.5t5.5 -15.5q-1 -12 -0.5 -29.5t2 -35.5t4 -35.5t5.5 -29.5l45.5 32.5t50 34t49 31.5t42.5 26q7 4 11.5 2t6 -6.5t0 -9.5t-6.5 -7q-16 -9 -39 -24t-49 -32t-53 -36t-51 -37q5 -35 17.5 -72.5t29.5 -72.5
t36.5 -64.5t39.5 -48.5q30 -28 60 -40.5t56 -12t47 12t32 32.5q4 7 9.5 4.5t0.5 -11.5z" />
    <glyph glyph-name="Oslash" unicode="&#xd8;" horiz-adv-x="717" 
d="M84 -52q1 30 40 92q34 -18 73 -23.5t80 2.5q73 13 144.5 53t129 94.5t97 116.5t49.5 119q12 68 -3 117t-44 84q20 17 39 33t38 31q13 10 11 18q-1 9 -13 9t-22 -9q-17 -14 -36 -28.5t-38 -31.5q-18 17 -38 29.5t-39 20.5q-43 19 -92.5 29t-99.5 13t-98.5 -1t-88.5 -13.5
t-68.5 -24t-40.5 -32.5q-13 -20 -13.5 -40t8 -40t25.5 -39t40 -37q3 -3 1 -7t-4 -6q-23 -26 -45 -62.5t-36 -80t-17 -92t13 -97.5q21 -63 71 -94q-43 -68 -40 -99q4 -21 8 -27q6 0 9 23zM152 461q3 3 5 3t7 -2q19 -10 43.5 -21t37.5 -15q22 -6 22 -2t-21 15q-5 3 -13.5 7.5
t-18 10t-19 12t-16.5 12.5q-4 3 -1 10q7 9 22.5 23t37 27.5t47.5 24.5t53 15q13 1 25.5 -8t29.5 -10q10 0 17.5 2.5t10.5 7t-0.5 10t-15.5 10.5q-26 9 -58.5 6t-66 -14.5t-66.5 -30t-58 -41.5q-4 -4 -7 -4q-2 0 -7 5q-12 11 -23.5 24.5t-19 28t-10.5 30.5t2 31q6 18 32.5 32
t65 22t86 10.5t96.5 -1.5t95 -15.5t82 -30.5q16 -8 29.5 -19t27.5 -23q-66 -59 -138.5 -133.5t-155.5 -165.5q-60 -66 -104 -120t-75 -97q-11 11 -21.5 25t-16.5 32q-18 45 -19 90.5t9 87t28.5 77.5t39.5 62zM675 404q-14 -67 -54 -127t-92.5 -107t-110.5 -77.5t-107 -37.5
q-17 -3 -37.5 -4.5t-42 0t-43 7t-40.5 17.5q32 43 78.5 98t108.5 122q81 85 152.5 156.5t137.5 129.5q32 -38 46.5 -84t3.5 -93z" />
    <glyph glyph-name="Ugrave" unicode="&#xd9;" horiz-adv-x="735" 
d="M811 665q0 1 0.5 2t0.5 3q0 10 -10.5 19t-20.5 9h-3q-11 -2 -17.5 -10t-13.5 -19q-4 -8 -5 -9q-36 -47 -85 -109t-104 -128.5t-112.5 -133.5t-111.5 -124.5t-101.5 -101.5t-81.5 -64q-29 -19 -51 -19q-34 0 -34 46q0 8 1 16.5t3 17.5q9 46 32.5 104.5t54.5 121t67.5 126
t72 120t66 103t51.5 75.5q5 8 5 13q0 8 -8 12.5t-19 4.5q-8 0 -17.5 -3.5t-14.5 -12.5q-23 -34 -55 -86t-67 -113.5t-70 -129t-63 -132t-46 -121.5t-20 -99v-3q0 -15 8 -29.5t20 -25.5t26.5 -18t28.5 -7q10 0 18 3q32 16 77.5 55.5t97.5 92.5t106 113.5t103 120t90 112.5
t65 89q13 21 25 21t12 -15q0 -10 -6 -23h-1q-26 -49 -58.5 -117.5t-61 -138.5t-47.5 -133t-19 -102q0 -3 0.5 -5.5t0.5 -5.5q1 -7 5 -16.5t9.5 -18.5t12 -15t12.5 -6h2q30 24 30 34q0 1 -3 1q-6 0 -12 -3q-17 -9 -23 -9q-13 0 -13 17q0 8 1 16t3 19q1 3 1 6t1 6
q4 31 18.5 75t35.5 95t47 106.5t52.5 109.5t52.5 104t46 90q4 8 7.5 14.5t6.5 12.5zM669 829q-18 17 -41 39t-45 42q-11 10 -20 18.5t-17 15.5h-1q-3 3 -6 3q-7 0 -12 -5t-5 -11q0 -2 7 -9q17 -13 39 -27.5t46 -30.5q15 -10 29 -19t25 -17h1q-1 0 -1 1h1zM670 828h-1v-1
q1 0 1 1z" />
    <glyph glyph-name="Uacute" unicode="&#xda;" horiz-adv-x="735" 
d="M811 665q0 1 0.5 2t0.5 3q0 10 -10.5 19t-20.5 9h-3q-11 -2 -17.5 -10t-13.5 -19q-4 -8 -5 -9q-36 -47 -85 -109t-104 -128.5t-112.5 -133.5t-111.5 -124.5t-101.5 -101.5t-81.5 -64q-29 -19 -51 -19q-34 0 -34 46q0 8 1 16.5t3 17.5q9 46 32.5 104.5t54.5 121t67.5 126
t72 120t66 103t51.5 75.5q5 8 5 13q0 8 -8 12.5t-19 4.5q-8 0 -17.5 -3.5t-14.5 -12.5q-23 -34 -55 -86t-67 -113.5t-70 -129t-63 -132t-46 -121.5t-20 -99v-3q0 -15 8 -29.5t20 -25.5t26.5 -18t28.5 -7q10 0 18 3q32 16 77.5 55.5t97.5 92.5t106 113.5t103 120t90 112.5
t65 89q13 21 25 21t12 -15q0 -10 -6 -23h-1q-26 -49 -58.5 -117.5t-61 -138.5t-47.5 -133t-19 -102q0 -3 0.5 -5.5t0.5 -5.5q1 -7 5 -16.5t9.5 -18.5t12 -15t12.5 -6h2q30 24 30 34q0 1 -3 1q-6 0 -12 -3q-17 -9 -23 -9q-13 0 -13 17q0 8 1 16t3 19q1 3 1 6t1 6
q4 31 18.5 75t35.5 95t47 106.5t52.5 109.5t52.5 104t46 90q4 8 7.5 14.5t6.5 12.5zM561 831q19 7 42 15t46.5 15.5t45 14.5t36.5 12h1q6 1 6 9q0 7 -4 12.5t-9 5.5l-2 -1q-11 -5 -27.5 -13t-34.5 -17q-26 -14 -53 -28t-48 -23q-1 -1 -2 -1v0q0 -2 2 -2q1 0 1.5 0.5t1.5 0.5
h-2z" />
    <glyph glyph-name="Ucircumflex" unicode="&#xdb;" horiz-adv-x="735" 
d="M811 665q0 1 0.5 2t0.5 3q0 10 -10.5 19t-20.5 9h-3q-11 -2 -17.5 -10t-13.5 -19q-4 -8 -5 -9q-36 -47 -85 -109t-104 -128.5t-112.5 -133.5t-111.5 -124.5t-101.5 -101.5t-81.5 -64q-29 -19 -51 -19q-34 0 -34 46q0 8 1 16.5t3 17.5q9 46 32.5 104.5t54.5 121t67.5 126
t72 120t66 103t51.5 75.5q5 8 5 13q0 8 -8 12.5t-19 4.5q-8 0 -17.5 -3.5t-14.5 -12.5q-23 -34 -55 -86t-67 -113.5t-70 -129t-63 -132t-46 -121.5t-20 -99v-3q0 -15 8 -29.5t20 -25.5t26.5 -18t28.5 -7q10 0 18 3q32 16 77.5 55.5t97.5 92.5t106 113.5t103 120t90 112.5
t65 89q13 21 25 21t12 -15q0 -10 -6 -23h-1q-26 -49 -58.5 -117.5t-61 -138.5t-47.5 -133t-19 -102q0 -3 0.5 -5.5t0.5 -5.5q1 -7 5 -16.5t9.5 -18.5t12 -15t12.5 -6h2q30 24 30 34q0 1 -3 1q-6 0 -12 -3q-17 -9 -23 -9q-13 0 -13 17q0 8 1 16t3 19q1 3 1 6t1 6
q4 31 18.5 75t35.5 95t47 106.5t52.5 109.5t52.5 104t46 90q4 8 7.5 14.5t6.5 12.5zM618 856h3q11 0 31 -16q2 -2 5 -3.5t5 -3.5l20 -15q-29 29 -45 44t-18 16l-2 1q0 -2 -32 -24q-23 -16 -36 -23.5t-18 -10.5l-3 -3q57 30 90 38zM686 814l-1 -1h2v-1q1 0 1 1v1l-1 1h-1
l-4 3q1 -3 4 -4zM528 818q-1 -1 -2 -1v0q-1 -1 -3 -1q2 0 2 -2v1z" />
    <glyph glyph-name="Udieresis" unicode="&#xdc;" horiz-adv-x="754" 
d="M811 665q0 1 0.5 2t0.5 3q0 10 -10.5 19t-20.5 9h-3q-11 -2 -17.5 -10t-13.5 -19q-4 -8 -5 -9q-36 -47 -85 -109t-104 -128.5t-112.5 -133.5t-111.5 -124.5t-101.5 -101.5t-81.5 -64q-29 -19 -51 -19q-34 0 -34 46q0 8 1 16.5t3 17.5q9 46 32.5 104.5t54.5 121t67.5 126
t72 120t66 103t51.5 75.5q5 8 5 13q0 8 -8 12.5t-19 4.5q-8 0 -17.5 -3.5t-14.5 -12.5q-23 -34 -55 -86t-67 -113.5t-70 -129t-63 -132t-46 -121.5t-20 -99v-3q0 -15 8 -29.5t20 -25.5t26.5 -18t28.5 -7q10 0 18 3q32 16 77.5 55.5t97.5 92.5t106 113.5t103 120t90 112.5
t65 89q13 21 25 21t12 -15q0 -10 -6 -23h-1q-26 -49 -58.5 -117.5t-61 -138.5t-47.5 -133t-19 -102q0 -3 0.5 -5.5t0.5 -5.5q1 -7 5 -16.5t9.5 -18.5t12 -15t12.5 -6h2q30 24 30 34q0 1 -3 1q-6 0 -12 -3q-17 -9 -23 -9q-13 0 -13 17q0 8 1 16t3 19q1 3 1 6t1 6
q4 31 18.5 75t35.5 95t47 106.5t52.5 109.5t52.5 104t46 90q4 8 7.5 14.5t6.5 12.5zM693 842q0 3 -0.5 10t-1 15t-2 14t-2.5 8h-1h-1q0 1 -1 1q-8 0 -19.5 -5.5t-13.5 -9.5v-2q-1 -1 -1 -8q0 -11 1 -21.5t3 -12.5q3 -3 6 -3q9 0 21 5t12 9zM592 843v10t-1 14.5t-2 14t-2 8.5
q-1 1 -3 1q-8 0 -20 -7t-15 -12q0 1 0.5 -0.5t0.5 -4.5q0 -11 2 -22.5t5 -15.5h3q8 0 20 5t12 9zM557 828v1q-1 0 -1 -1h1z" />
    <glyph glyph-name="Yacute" unicode="&#xdd;" horiz-adv-x="612" 
d="M743 616q-12 -25 -35 -63.5t-53.5 -84t-65.5 -95.5t-72 -100t-73 -96.5t-67 -84.5q-56 -67 -117 -134.5t-119.5 -123t-110.5 -93.5t-89 -46q-8 -2 -19 3.5t-20 14.5t-15 20.5t-5 23.5q2 15 9 31t15 31t17 28t16 23q8 9 11 7.5t-2 -12.5q-3 -9 -8.5 -23t-10.5 -30
t-9.5 -32t-7.5 -31q-5 -20 7 -27.5t37 2.5q27 11 60.5 34.5t68.5 55t71 68t69.5 73.5t62.5 71t50 61q1 34 -6.5 85t-20.5 110t-32 121t-41.5 117.5t-48 100t-52.5 68.5q-38 33 -75 21t-58 -58q-11 -26 -15 -53.5t-3 -56.5q1 -17 -5 -17q-7 0 -12 14q-2 10 -4.5 23t-3 27.5
t1 29t6.5 27.5q11 22 33 43.5t48.5 34.5t55 14.5t51.5 -16.5q31 -24 58.5 -66t50.5 -94.5t42 -111t33.5 -115t24.5 -106.5t16 -86q27 31 61 77t67 94t60.5 92.5t41.5 72.5q0 11 -0.5 22t7.5 23q9 13 21.5 30t26 34.5t25.5 34t18 28.5q6 11 13.5 9.5t13 -9t7.5 -18t-1 -17.5z
M413 782q-7 -3 -10 3.5t4 9.5q18 8 40 20.5t44.5 26t43 25.5t34.5 19q6 3 12 -2t8.5 -12.5t1 -15t-9.5 -10.5q-15 -5 -36 -13t-44 -16.5t-46 -17.5t-42 -17z" />
    <glyph glyph-name="Thorn" unicode="&#xde;" horiz-adv-x="562" 
d="M208 392q-15 -47 -36.5 -106.5t-43.5 -119.5t-41.5 -113.5t-31.5 -87.5q-2 3 -5.5 2t-8.5 -3.5t-10 -4t-9 0.5q23 79 48.5 163t48.5 168q-35 20 -35 39q2 12 18 29.5t48 37.5q25 62 62 155.5t88 221.5q6 11 50 40q19 13 20 -3q1 -5 -3.5 -7t-8.5 -16
q-34 -71 -65.5 -157.5t-68.5 -192.5q111 71 185 86q28 7 50 -0.5t37.5 -20t24.5 -26.5t11 -20q9 -68 -0.5 -119.5t-34 -92t-61.5 -71.5t-82 -58.5t-97 -53t-106 -54.5q-30 -10 -39 20q-2 4 -0.5 7.5t4.5 8.5q7 10 36.5 20t74.5 30t102.5 55t121.5 94q59 99 33 187
q-15 78 -106 58q-36 -11 -77.5 -34t-92.5 -62z" />
    <glyph glyph-name="germandbls" unicode="&#xdf;" horiz-adv-x="531" 
d="M651 619q-13 -33 -47 -69t-75.5 -68t-83.5 -58.5t-70 -40.5q-41 -20 -37.5 -34t43.5 -29l20 -7.5t25 -9t24.5 -9t19.5 -7.5q12 -5 28.5 -20t28.5 -35.5t15 -43t-10 -42.5q-26 -35 -69 -62.5t-91 -46.5t-97 -29.5t-87 -13.5q-17 -1 -30 4t-21 12.5t-11 16.5t1 15
q2 11 10 20.5t19 12.5q25 9 33 2.5t-3 -12.5t-13.5 -12t1.5 -10t12 -6.5t19 -1.5q39 5 77.5 13t75.5 22.5t70.5 35.5t61.5 53q28 34 14 62.5t-63 41.5q-19 5 -39 11.5t-37 11.5q-36 10 -58.5 24t-27 31t10 35.5t52.5 38.5q33 17 73 40t79 51t72 61t51 69q10 21 10.5 49
t-11.5 52t-39 37.5t-70 5.5q-33 -6 -72 -34.5t-84 -91.5q-59 -81 -115 -187t-106.5 -228t-94 -256t-76.5 -272q-3 -15 -8.5 -20.5t-9.5 -3.5t-6.5 11t0.5 23q15 81 40.5 172.5t55.5 182.5t63 176.5t64 154.5q-14 -2 -36 -4.5t-43 -13.5q-12 -7 -18 -4.5t-8 8.5t1 13.5
t9 11.5q26 14 59 19t55 11q29 52 63 113t78 121q22 32 47 57t50 42.5t48 27t42 9.5q36 2 70 -12.5t56.5 -41.5t29.5 -64t-10 -81z" />
    <glyph glyph-name="agrave" unicode="&#xe0;" horiz-adv-x="442" 
d="M36 -28q32 20 70 47t81 65q44 37 77.5 69.5t57.5 61.5q2 2 4 2q7 0 1 -11q-17 -26 -33.5 -57t-33.5 -68q-28 -60 -42.5 -110.5t-16.5 -92.5q-2 -51 33 -78q32 -26 81 -26q15 0 29.5 2.5t28.5 7.5q54 21 136 88q45 38 78 72.5t55 68.5q5 7 5 11q0 2 -1 4q-4 0 -12 -10
q-47 -61 -130 -128q-85 -69 -139 -86q-35 -12 -70 -12q-78 0 -78 67v10q0 4 1 9q9 58 32.5 122.5t65.5 134.5q26 45 55 88.5t57 88.5q1 3 -1.5 7.5t-7.5 4.5q-3 0 -5 -2q-12 -10 -27 -13q-2 -1 -18 1q-26 9 -49 9q-22 0 -41 -8q-38 -16 -83.5 -47t-96.5 -82
q-111 -111 -111 -183q0 -34 25 -34q13 0 23 7zM53 57q28 66 94 140q72 79 119 91q12 3 23 3q21 0 33.5 -9t12.5 -20q0 -5 -3 -8q-70 -85 -132.5 -144t-118.5 -95q-8 -5 -15 -5q-18 0 -18 24q0 11 5 23zM375 420q-13 12 -29.5 27.5t-33.5 31.5t-33 31t-27 26q-6 5 -13 3
t-12 -7.5t-6 -12.5t5 -11q13 -10 31.5 -22.5t38 -25.5l39 -26l34.5 -23q4 -3 8 0.5t-2 8.5z" />
    <glyph glyph-name="aacute" unicode="&#xe1;" horiz-adv-x="442" 
d="M36 -28q32 20 70 47t81 65q44 37 77.5 69.5t57.5 61.5q2 2 4 2q7 0 1 -11q-17 -26 -33.5 -57t-33.5 -68q-28 -60 -42.5 -110.5t-16.5 -92.5q-2 -51 33 -78q32 -26 81 -26q15 0 29.5 2.5t28.5 7.5q54 21 136 88q45 38 78 72.5t55 68.5q5 7 5 11q0 2 -1 4q-4 0 -12 -10
q-47 -61 -130 -128q-85 -69 -139 -86q-35 -12 -70 -12q-78 0 -78 67v10q0 4 1 9q9 58 32.5 122.5t65.5 134.5q26 45 55 88.5t57 88.5q1 3 -1.5 7.5t-7.5 4.5q-3 0 -5 -2q-12 -10 -27 -13q-2 -1 -18 1q-26 9 -49 9q-22 0 -41 -8q-38 -16 -83.5 -47t-96.5 -82
q-111 -111 -111 -183q0 -34 25 -34q13 0 23 7zM53 57q28 66 94 140q72 79 119 91q12 3 23 3q21 0 33.5 -9t12.5 -20q0 -5 -3 -8q-70 -85 -132.5 -144t-118.5 -95q-8 -5 -15 -5q-18 0 -18 24q0 11 5 23zM210 414q19 7 42 15t46.5 15.5t45 14.5t36.5 12q7 2 8.5 9t-1 13.5
t-8 11t-12.5 1.5q-14 -7 -34.5 -17.5t-43 -21.5t-44.5 -22t-40 -19q-7 -4 -4.5 -9.5t9.5 -2.5z" />
    <glyph glyph-name="acircumflex" unicode="&#xe2;" horiz-adv-x="442" 
d="M36 -28q32 20 70 47t81 65q44 37 77.5 69.5t57.5 61.5q2 2 4 2q7 0 1 -11q-17 -26 -33.5 -57t-33.5 -68q-28 -60 -42.5 -110.5t-16.5 -92.5q-2 -51 33 -78q32 -26 81 -26q15 0 29.5 2.5t28.5 7.5q54 21 136 88q45 38 78 72.5t55 68.5q5 7 5 11q0 2 -1 4q-4 0 -12 -10
q-47 -61 -130 -128q-85 -69 -139 -86q-35 -12 -70 -12q-78 0 -78 67v10q0 4 1 9q9 58 32.5 122.5t65.5 134.5q26 45 55 88.5t57 88.5q1 3 -1.5 7.5t-7.5 4.5q-3 0 -5 -2q-12 -10 -27 -13q-2 -1 -18 1q-26 9 -49 9q-22 0 -41 -8q-38 -16 -83.5 -47t-96.5 -82
q-111 -111 -111 -183q0 -34 25 -34q13 0 23 7zM53 57q28 66 94 140q72 79 119 91q12 3 23 3q21 0 33.5 -9t12.5 -20q0 -5 -3 -8q-70 -85 -132.5 -144t-118.5 -95q-8 -5 -15 -5q-18 0 -18 24q0 11 5 23zM306 448q5 1 29 -16q8 -5 17.5 -11.5t17.5 -13.5q3 -3 5 -2q5 2 5 4
t-4 6q-32 32 -49 48t-19 17q-1 1 -40 -25q-23 -15 -37.5 -24.5t-20.5 -12.5q-2 -2 -2.5 -3.5t-0.5 -4.5q0 -6 8 -1q53 28 91 39z" />
    <glyph glyph-name="atilde" unicode="&#xe3;" horiz-adv-x="442" 
d="M36 -28q32 20 70 47t81 65q44 37 77.5 69.5t57.5 61.5q2 2 4 2q7 0 1 -11q-17 -26 -33.5 -57t-33.5 -68q-28 -60 -42.5 -110.5t-16.5 -92.5q-2 -51 33 -78q32 -26 81 -26q15 0 29.5 2.5t28.5 7.5q54 21 136 88q45 38 78 72.5t55 68.5q5 7 5 11q0 2 -1 4q-4 0 -12 -10
q-47 -61 -130 -128q-85 -69 -139 -86q-35 -12 -70 -12q-78 0 -78 67v10q0 4 1 9q9 58 32.5 122.5t65.5 134.5q26 45 55 88.5t57 88.5q1 3 -1.5 7.5t-7.5 4.5q-3 0 -5 -2q-12 -10 -27 -13q-2 -1 -18 1q-26 9 -49 9q-22 0 -41 -8q-38 -16 -83.5 -47t-96.5 -82
q-111 -111 -111 -183q0 -34 25 -34q13 0 23 7zM53 57q28 66 94 140q72 79 119 91q12 3 23 3q21 0 33.5 -9t12.5 -20q0 -5 -3 -8q-70 -85 -132.5 -144t-118.5 -95q-8 -5 -15 -5q-18 0 -18 24q0 11 5 23zM176 424q11 8 26 14t32 6q10 0 24.5 -5.5t29.5 -11.5t29 -11.5t24 -5.5
q17 0 33 14.5t26 24.5q8 10 5 13t-13 -5q-11 -11 -19.5 -14t-31.5 -3q-11 0 -25 5.5t-29 11.5t-29 11.5t-24 5.5q-8 0 -17 -4.5t-17.5 -11t-16 -13.5t-13.5 -13q-7 -9 -6 -13.5t12 5.5z" />
    <glyph glyph-name="adieresis" unicode="&#xe4;" horiz-adv-x="442" 
d="M36 -28q32 20 70 47t81 65q44 37 77.5 69.5t57.5 61.5q2 2 4 2q7 0 1 -11q-17 -26 -33.5 -57t-33.5 -68q-28 -60 -42.5 -110.5t-16.5 -92.5q-2 -51 33 -78q32 -26 81 -26q15 0 29.5 2.5t28.5 7.5q54 21 136 88q45 38 78 72.5t55 68.5q5 7 5 11q0 2 -1 4q-4 0 -12 -10
q-47 -61 -130 -128q-85 -69 -139 -86q-35 -12 -70 -12q-78 0 -78 67v10q0 4 1 9q9 58 32.5 122.5t65.5 134.5q26 45 55 88.5t57 88.5q1 3 -1.5 7.5t-7.5 4.5q-3 0 -5 -2q-12 -10 -27 -13q-2 -1 -18 1q-26 9 -49 9q-22 0 -41 -8q-38 -16 -83.5 -47t-96.5 -82
q-111 -111 -111 -183q0 -34 25 -34q13 0 23 7zM53 57q28 66 94 140q72 79 119 91q12 3 23 3q21 0 33.5 -9t12.5 -20q0 -5 -3 -8q-70 -85 -132.5 -144t-118.5 -95q-8 -5 -15 -5q-18 0 -18 24q0 11 5 23zM360 433q0 3 -0.5 11t-1.5 16.5t-2.5 15.5t-4.5 9q-2 3 -8.5 2
t-13.5 -4t-13.5 -7t-7.5 -7q-2 -3 -2 -10t1 -15.5t2.5 -16t3.5 -10.5q3 -3 11 -2t16 4t14 7t6 7zM258 435v10q0 8 -1 16.5t-2 15.5t-3 9q-3 3 -9.5 2t-13.5 -4t-13 -7t-8 -7t-1.5 -10t1.5 -15.5t3 -16t4 -10.5t9 -2t14.5 4t13.5 7.5t6 7.5z" />
    <glyph glyph-name="aring" unicode="&#xe5;" horiz-adv-x="442" 
d="M36 -28q32 20 70 47t81 65q44 37 77.5 69.5t57.5 61.5q2 2 4 2q7 0 1 -11q-17 -26 -33.5 -57t-33.5 -68q-28 -60 -42.5 -110.5t-16.5 -92.5q-2 -51 33 -78q32 -26 81 -26q15 0 29.5 2.5t28.5 7.5q54 21 136 88q45 38 78 72.5t55 68.5q5 7 5 11q0 2 -1 4q-4 0 -12 -10
q-47 -61 -130 -128q-85 -69 -139 -86q-35 -12 -70 -12q-78 0 -78 67v10q0 4 1 9q9 58 32.5 122.5t65.5 134.5q26 45 55 88.5t57 88.5q1 3 -1.5 7.5t-7.5 4.5q-3 0 -5 -2q-12 -10 -27 -13q-2 -1 -18 1q-26 9 -49 9q-22 0 -41 -8q-38 -16 -83.5 -47t-96.5 -82
q-111 -111 -111 -183q0 -34 25 -34q13 0 23 7zM53 57q28 66 94 140q72 79 119 91q12 3 23 3q21 0 33.5 -9t12.5 -20q0 -5 -3 -8q-70 -85 -132.5 -144t-118.5 -95q-8 -5 -15 -5q-18 0 -18 24q0 11 5 23zM263 448q0 17 -12.5 28.5t-29.5 11.5t-29 -11.5t-12 -28.5t12 -28.5
t29 -11.5t29.5 11.5t12.5 28.5zM221 416q-13 0 -22.5 9t-9.5 23q0 13 9.5 23t22.5 10q14 0 23.5 -10t9.5 -23q0 -14 -9.5 -23t-23.5 -9z" />
    <glyph glyph-name="ae" unicode="&#xe6;" horiz-adv-x="559" 
d="M24 11q-25 0 -25 34q0 72 111 183q51 51 96.5 82.5t83.5 47.5q9 3 19.5 5t21.5 2q23 0 49 -9q16 -2 18 -1q18 5 27 14q2 2 5 2q5 0 7.5 -5t1.5 -7q-5 -8 -10 -15.5t-10 -15.5q16 12 31 22t29 15q18 7 34 -0.5t26.5 -22t14 -32.5t-2.5 -33q-12 -28 -48.5 -47.5
t-85.5 -27.5q56 0 110 0.5t85 5.5q21 2 41.5 13t30.5 22q4 7 8.5 5t-0.5 -9q-8 -11 -29.5 -26.5t-47.5 -19.5q-17 -3 -50.5 -4t-73.5 -2t-80 -1h-70q-9 -15 -19 -33.5t-18 -39.5t-13 -43.5t-4 -46.5q2 -22 9.5 -36t18.5 -22t23.5 -10.5t25.5 -0.5q32 4 68 18t60 30
q8 5 12 1.5t-3 -9.5q-10 -8 -24 -17.5t-30.5 -18.5t-35 -16t-36.5 -10q-37 -6 -63 8.5t-40 42t-15 65.5t14 80q11 29 23 58t24 51q-17 -27 -45 -62t-63 -68t-76.5 -59t-85.5 -34zM64 103q-5 -12 -5 -23q0 -24 18 -24q7 0 15 6q113 72 251 238q3 3 3 8q0 11 -12.5 20.5
t-33.5 9.5q-12 0 -23 -4q-46 -10 -119 -91q-34 -37 -57 -72.5t-37 -67.5zM525 286q9 16 8 28t-8 18.5t-18.5 6t-24.5 -8.5q-35 -22 -69 -56t-62 -72q26 0 53 6.5t50.5 17.5t42 26.5t28.5 33.5z" />
    <glyph glyph-name="ccedilla" unicode="&#xe7;" horiz-adv-x="311" 
d="M15 91q0 -31 26 -60q10 -13 22 -19q-7 -5 -12.5 -9.5t-9.5 -8.5q-4 -3 3 -7q16 -5 22.5 -12.5t-0.5 -17.5q-5 -9 -21.5 -19t-31.5 -11q-6 0 -5 -3t6 -3q20 2 41.5 13t26.5 21q5 8 4 14.5t-4.5 11.5t-9 7.5t-9.5 3.5q-4 2 -3.5 4t2.5 4t6 8q7 -4 14.5 -5.5t15.5 -2.5
q21 0 66 16q28 11 51 23t40 28q7 4 7 9q0 2 -1 2q-6 0 -10 -7q-26 -22 -65 -38q-48 -20 -86 -15q-42 5 -54 28q-5 13 -5 33q0 22 6.5 48t18.5 59q21 52 67 110q26 32 50.5 52.5t47.5 31.5q4 2 13 2q10 0 20 -2.5l18 -4.5q6 -2 11 7q2 3 3.5 6.5t2.5 5.5q0 2 -5 5.5t-10 3.5
q-17 1 -53 -14q-59 -23 -114 -87q-24 -28 -43 -57t-33 -60q-12 -26 -19 -49.5t-7 -44.5z" />
    <glyph glyph-name="egrave" unicode="&#xe8;" horiz-adv-x="338" 
d="M459 295q5 8 1 10t-9 -6q-11 -11 -32 -23.5t-43 -14.5q-16 -3 -38 -4t-47.5 -1.5t-53.5 -0.5h-54q49 8 87.5 29.5t52.5 52.5q9 15 8 35t-9.5 35.5t-23 23.5t-33.5 1q-34 -15 -77.5 -52.5t-82 -89t-66 -111.5t-30.5 -120q-1 -22 9 -41t25 -33t32.5 -21.5t32.5 -4.5
q18 3 37 11t36.5 18t32.5 21t26 20q8 5 4 9t-12 -2q-13 -9 -29.5 -17.5t-34 -15.5t-35.5 -12.5t-34 -7.5q-13 -1 -25 1.5t-21.5 11t-15 24t-4.5 39.5q1 26 9 51t18.5 47.5t23 43t23.5 37.5h69q40 0 79 0.5t71.5 1.5t49.5 4q29 5 51.5 22t31.5 29zM299 346q-12 -20 -32 -36.5
t-44.5 -28.5t-51.5 -19t-53 -7q33 41 70 78.5t75 61.5q14 9 25 9q12 0 18 -7t5 -20t-12 -31zM335 496q-13 12 -29.5 27.5t-33.5 31.5t-33 31t-27 26q-6 5 -13 3t-12 -7.5t-6 -12.5t5 -11q13 -10 31.5 -22.5t38 -25.5l39 -26l34.5 -23q4 -3 8 0.5t-2 8.5z" />
    <glyph glyph-name="eacute" unicode="&#xe9;" horiz-adv-x="338" 
d="M459 295q5 8 1 10t-9 -6q-11 -11 -32 -23.5t-43 -14.5q-16 -3 -38 -4t-47.5 -1.5t-53.5 -0.5h-54q49 8 87.5 29.5t52.5 52.5q9 15 8 35t-9.5 35.5t-23 23.5t-33.5 1q-34 -15 -77.5 -52.5t-82 -89t-66 -111.5t-30.5 -120q-1 -22 9 -41t25 -33t32.5 -21.5t32.5 -4.5
q18 3 37 11t36.5 18t32.5 21t26 20q8 5 4 9t-12 -2q-13 -9 -29.5 -17.5t-34 -15.5t-35.5 -12.5t-34 -7.5q-13 -1 -25 1.5t-21.5 11t-15 24t-4.5 39.5q1 26 9 51t18.5 47.5t23 43t23.5 37.5h69q40 0 79 0.5t71.5 1.5t49.5 4q29 5 51.5 22t31.5 29zM299 346q-12 -20 -32 -36.5
t-44.5 -28.5t-51.5 -19t-53 -7q33 41 70 78.5t75 61.5q14 9 25 9q12 0 18 -7t5 -20t-12 -31zM299 487q16 12 36.5 25.5t41.5 27t39.5 25.5t32.5 21q6 4 5.5 11t-5 13t-11 9t-11.5 -1q-12 -10 -29 -25.5t-36 -32.5t-37.5 -34t-33.5 -29q-5 -5 -1 -9.5t9 -0.5z" />
    <glyph glyph-name="ecircumflex" unicode="&#xea;" horiz-adv-x="338" 
d="M459 295q5 8 1 10t-9 -6q-11 -11 -32 -23.5t-43 -14.5q-16 -3 -38 -4t-47.5 -1.5t-53.5 -0.5h-54q49 8 87.5 29.5t52.5 52.5q9 15 8 35t-9.5 35.5t-23 23.5t-33.5 1q-34 -15 -77.5 -52.5t-82 -89t-66 -111.5t-30.5 -120q-1 -22 9 -41t25 -33t32.5 -21.5t32.5 -4.5
q18 3 37 11t36.5 18t32.5 21t26 20q8 5 4 9t-12 -2q-13 -9 -29.5 -17.5t-34 -15.5t-35.5 -12.5t-34 -7.5q-13 -1 -25 1.5t-21.5 11t-15 24t-4.5 39.5q1 26 9 51t18.5 47.5t23 43t23.5 37.5h69q40 0 79 0.5t71.5 1.5t49.5 4q29 5 51.5 22t31.5 29zM299 346q-12 -20 -32 -36.5
t-44.5 -28.5t-51.5 -19t-53 -7q33 41 70 78.5t75 61.5q14 9 25 9q12 0 18 -7t5 -20t-12 -31zM263 533q5 2 30 -15q8 -6 17 -12t17 -13q3 -3 5 -2q5 2 5 4l-4 6q-63 61 -68 64q-2 1 -39 -24q-23 -16 -38 -25t-21 -12q-3 -5 -3 -8q0 -6 8 -1q55 29 91 38z" />
    <glyph glyph-name="edieresis" unicode="&#xeb;" horiz-adv-x="338" 
d="M459 295q5 8 1 10t-9 -6q-11 -11 -32 -23.5t-43 -14.5q-16 -3 -38 -4t-47.5 -1.5t-53.5 -0.5h-54q49 8 87.5 29.5t52.5 52.5q9 15 8 35t-9.5 35.5t-23 23.5t-33.5 1q-34 -15 -77.5 -52.5t-82 -89t-66 -111.5t-30.5 -120q-1 -22 9 -41t25 -33t32.5 -21.5t32.5 -4.5
q18 3 37 11t36.5 18t32.5 21t26 20q8 5 4 9t-12 -2q-13 -9 -29.5 -17.5t-34 -15.5t-35.5 -12.5t-34 -7.5q-13 -1 -25 1.5t-21.5 11t-15 24t-4.5 39.5q1 26 9 51t18.5 47.5t23 43t23.5 37.5h69q40 0 79 0.5t71.5 1.5t49.5 4q29 5 51.5 22t31.5 29zM299 346q-12 -20 -32 -36.5
t-44.5 -28.5t-51.5 -19t-53 -7q33 41 70 78.5t75 61.5q14 9 25 9q12 0 18 -7t5 -20t-12 -31zM342 529q0 3 -0.5 11t-1.5 16t-2.5 15.5t-4.5 9.5q-2 3 -8 1.5t-13.5 -4.5t-13.5 -7t-8 -7q-2 -2 -2 -10q0 -7 1 -15t3 -15.5t4 -10.5q3 -3 11 -2t15.5 4t13.5 7t6 7zM241 530
q0 3 -0.5 11l-1 16t-2 15.5t-3.5 9.5q-3 3 -9 2t-13 -4.5t-13.5 -7.5t-8.5 -7q-2 -2 -1.5 -9.5t1.5 -15.5t3 -15.5t4 -10.5q3 -3 10 -2t14.5 4t13.5 7t6 7z" />
    <glyph glyph-name="igrave" unicode="&#xec;" horiz-adv-x="240" 
d="M290 130q-12 -12 -37 -31t-54.5 -39.5t-59 -38.5t-51.5 -28q-6 -2 -18.5 0t-25 9.5t-22 20t-9.5 30.5q0 16 10 41t24.5 53t32 56.5t32 52.5t24.5 40.5t11 21.5q2 12 13.5 15.5t21.5 -0.5t13.5 -14t-9.5 -26q-14 -17 -32 -41t-37 -52.5t-36 -59t-30 -60.5q-12 -26 -12 -40
q0 -13 6.5 -18.5t16.5 -5t19 2.5q19 4 48 19t59 34t56 38t40 32q9 9 13 10t4.5 -2t-2.5 -9t-9 -11zM260 397q10 -9 6.5 -16t-16.5 3q-10 8 -23.5 18t-28.5 21.5t-31 23.5t-31 24q-9 6 -8.5 14t6 13.5t13.5 6.5t14 -6q22 -25 48.5 -53t50.5 -49z" />
    <glyph glyph-name="iacute" unicode="&#xed;" horiz-adv-x="246" 
d="M290 130q-12 -12 -37 -31t-54.5 -39.5t-59 -38.5t-51.5 -28q-6 -2 -18.5 0t-25 9.5t-22 20t-9.5 30.5q0 16 10 41t24.5 53t32 56.5t32 52.5t24.5 40.5t11 21.5q2 12 13.5 15.5t21.5 -0.5t13.5 -14t-9.5 -26q-14 -17 -32 -41t-37 -52.5t-36 -59t-30 -60.5q-12 -26 -12 -40
q0 -13 6.5 -18.5t16.5 -5t19 2.5q19 4 48 19t59 34t56 38t40 32q9 9 13 10t4.5 -2t-2.5 -9t-9 -11zM312 463q-17 -9 -36.5 -19l-39 -20t-36 -18.5t-27.5 -14.5q-15 -8 -17 -0.5t10 13.5q13 8 30 19t34.5 23t34.5 24t30 22q8 6 15.5 3.5t11 -8.5t2 -13t-11.5 -11z" />
    <glyph glyph-name="icircumflex" unicode="&#xee;" horiz-adv-x="240" 
d="M290 130q-12 -12 -37 -31t-54.5 -39.5t-59 -38.5t-51.5 -28q-6 -2 -18.5 0t-25 9.5t-22 20t-9.5 30.5q0 16 10 41t24.5 53t32 56.5t32 52.5t24.5 40.5t11 21.5q2 12 13.5 15.5t21.5 -0.5t13.5 -14t-9.5 -26q-14 -17 -32 -41t-37 -52.5t-36 -59t-30 -60.5q-12 -26 -12 -40
q0 -13 6.5 -18.5t16.5 -5t19 2.5q19 4 48 19t59 34t56 38t40 32q9 9 13 10t4.5 -2t-2.5 -9t-9 -11zM305 402q6 -13 1.5 -16.5t-13.5 7.5q-12 14 -28 29.5t-26 23.5q-5 2 -6.5 1.5t-2.5 -0.5q-16 -8 -34.5 -15.5t-36 -15.5t-33 -15.5t-25.5 -14.5q-12 -8 -15.5 -0.5t6.5 13.5
q12 8 30 19.5t37 23.5t35.5 22.5t24.5 15.5q10 6 21.5 5t16.5 -8q13 -18 25 -38t23 -37z" />
    <glyph glyph-name="idieresis" unicode="&#xef;" horiz-adv-x="240" 
d="M290 130q-12 -12 -37 -31t-54.5 -39.5t-59 -38.5t-51.5 -28q-6 -2 -18.5 0t-25 9.5t-22 20t-9.5 30.5q0 16 10 41t24.5 53t32 56.5t32 52.5t24.5 40.5t11 21.5q2 12 13.5 15.5t21.5 -0.5t13.5 -14t-9.5 -26q-14 -17 -32 -41t-37 -52.5t-36 -59t-30 -60.5q-12 -26 -12 -40
q0 -13 6.5 -18.5t16.5 -5t19 2.5q19 4 48 19t59 34t56 38t40 32q9 9 13 10t4.5 -2t-2.5 -9t-9 -11zM262 409q0 -3 -6 -7t-14 -7t-15.5 -4t-10.5 2q-2 3 -4 10.5t-3 15.5t-1 15q0 8 2 10q2 3 8 7t13.5 7.5t13.5 4.5t8 -2q3 -2 4.5 -9.5t2.5 -15.5t1.5 -16t0.5 -11zM161 410
q0 -3 -6 -7t-13.5 -7t-15 -4t-9.5 2t-4 10.5t-3 16t-1.5 15.5t1.5 10t8 7t13 7t13.5 4t9.5 -2q2 -2 3.5 -9t2 -15.5t1 -16.5t0.5 -11z" />
    <glyph glyph-name="eth" unicode="&#xf0;" horiz-adv-x="444" 
d="M358 492q3 -124 -36 -244q-18 52 -41.5 94t-50.5 74q-8 9 -15.5 15t-13.5 9q-65 42 -121 -11q-46 -35 -60 -106q-8 -27 -9 -57t7 -68q15 -83 59 -133q19 -17 40 -34q77 -47 147 11q51 42 81.5 113t37.5 168q7 55 7.5 103t-4.5 93q17 -14 31 -17q17 -6 37 2.5t33 16.5
q12 7 9 11.5t-14 -1.5q-15 -8 -25 -8t-32 7q-11 4 -22 11.5t-22 16.5q-6 29 -12.5 57.5t-16 54.5t-23.5 48.5t-34 40.5q-7 -4 6 -22q42 -65 50 -154q-8 5 -15 9t-12 6q-9 2 -19.5 0t-21 -6t-20.5 -9t-17 -9q-8 -7 -8.5 -10.5t13.5 1.5t31.5 6.5t34.5 -3.5q8 -3 18 -9.5
t24 -17.5zM191 400q14 -5 27 -16.5t27 -28.5q51 -57 74 -125q-15 -97 -92 -157q-40 -37 -80 -31q-14 2 -28.5 10.5t-27.5 23.5q-20 22 -30.5 50t-18.5 62q-8 35 -4.5 67t14.5 60q8 19 18.5 33.5t25.5 26.5q51 42 95 25z" />
    <glyph glyph-name="ntilde" unicode="&#xf1;" horiz-adv-x="477" 
d="M300 -53q9 8 8 17.5t-14 -0.5q-8 -6 -22 -12t-21 -8q-22 -6 -25 3t1 38q2 14 16.5 38.5t35 54t45 62t47 63.5t40.5 58t27 46q6 13 -6.5 25t-28.5 11q-25 -2 -66 -29.5t-87.5 -67.5t-92 -84.5t-79.5 -81.5q-5 -6 -11.5 -8.5t-11 -1t-5.5 7.5t5 17q19 34 43.5 75.5t50.5 81
t50.5 72t43.5 48.5q10 9 10 17q0 9 -6 14.5t-15.5 5t-18.5 -9.5q-17 -18 -38.5 -47t-44.5 -64.5t-45 -74t-41 -73.5t-32.5 -64.5t-18.5 -46.5q-3 -11 -2.5 -21.5t3.5 -17t8 -7.5t11 5q37 42 80.5 87.5t89 88t89 78t80.5 58.5q12 8 21 8q10 0 15.5 -4.5t6 -13t-3.5 -16.5
q-6 -11 -23 -32.5t-39.5 -49.5t-47.5 -59.5t-45.5 -61t-33.5 -54t-13 -39.5q-1 -9 3 -19t11 -19t16 -15.5t20 -7.5q11 -2 30.5 9t30.5 21zM179 485q11 8 26.5 14.5t32.5 6.5q10 0 24 -5.5t29 -11.5t29 -11.5t24 -5.5q17 0 33.5 14t26.5 24q8 11 4.5 13.5t-13.5 -5.5
q-10 -10 -19 -13t-32 -3q-10 0 -24.5 5.5t-29.5 11.5t-29 11.5t-23 5.5q-8 0 -17 -4.5t-18 -11t-16.5 -14l-12.5 -12.5q-8 -9 -7 -13.5t12 4.5z" />
    <glyph glyph-name="ograve" unicode="&#xf2;" horiz-adv-x="371" 
d="M64 -17q-7 -1 -15 1.5t-14.5 7.5t-11 12t-4.5 15q2 83 134 245q4 7 -2 9q-9 5 -18 11.5t-9 12.5q0 3 3 8t26 6q37 1 38 1q4 0 11 4q22 21 44 22q16 1 45 -18q2 -1 3.5 -2t3.5 -2q23 -1 55.5 -2t74.5 -2q15 -2 15 -4q0 -6 -15 -6q-31 0 -40 -12q-2 -3 0 -6l2 -6t1 -5
q-3 -38 -32.5 -81.5t-89.5 -94.5q-117 -101 -205 -114zM50 36q-6 -11 -6 -22q0 -24 32 -18q68 11 163 98q100 89 115 162q7 30 -38 35q-24 3 -45 0.5t-39 -9.5q-2 1 -17 -9q-107 -99 -165 -237zM366 393q6 -5 2 -8.5t-8 -0.5q-15 10 -34.5 22.5t-39 26t-38 26t-31.5 22.5
q-6 4 -5 11t6 12t12 7t13 -3q11 -11 27 -25.5t33 -30.5t33.5 -31.5t29.5 -27.5z" />
    <glyph glyph-name="oacute" unicode="&#xf3;" horiz-adv-x="371" 
d="M64 -17q-7 -1 -15 1.5t-14.5 7.5t-11 12t-4.5 15q2 83 134 245q4 7 -2 9q-9 5 -18 11.5t-9 12.5q0 3 3 8t26 6q37 1 38 1q4 0 11 4q22 21 44 22q16 1 45 -18q2 -1 3.5 -2t3.5 -2q23 -1 55.5 -2t74.5 -2q15 -2 15 -4q0 -6 -15 -6q-31 0 -40 -12q-2 -3 0 -6l2 -6t1 -5
q-3 -38 -32.5 -81.5t-89.5 -94.5q-117 -101 -205 -114zM50 36q-6 -11 -6 -22q0 -24 32 -18q68 11 163 98q100 89 115 162q7 30 -38 35q-24 3 -45 0.5t-39 -9.5q-2 1 -17 -9q-107 -99 -165 -237zM224 411q-5 -4 -9 0.5t2 9.5q14 12 32.5 29t37.5 34t36 32.5t29 25.5
q5 4 11.5 1t11 -9t5.5 -13t-6 -11q-14 -9 -32.5 -21t-39.5 -25.5t-41.5 -27t-36.5 -25.5z" />
    <glyph glyph-name="ocircumflex" unicode="&#xf4;" horiz-adv-x="371" 
d="M64 -17q-7 -1 -15 1.5t-14.5 7.5t-11 12t-4.5 15q2 83 134 245q4 7 -2 9q-9 5 -18 11.5t-9 12.5q0 3 3 8t26 6q37 1 38 1q4 0 11 4q22 21 44 22q16 1 45 -18q2 -1 3.5 -2t3.5 -2q23 -1 55.5 -2t74.5 -2q15 -2 15 -4q0 -6 -15 -6q-31 0 -40 -12q-2 -3 0 -6l2 -6t1 -5
q-3 -38 -32.5 -81.5t-89.5 -94.5q-117 -101 -205 -114zM50 36q-6 -11 -6 -22q0 -24 32 -18q68 11 163 98q100 89 115 162q7 30 -38 35q-24 3 -45 0.5t-39 -9.5q-2 1 -17 -9q-107 -99 -165 -237zM306 447q-38 -11 -91 -39q-8 -5 -8 1q0 3 0.5 4.5t2.5 3.5q6 3 20.5 12
t37.5 25q39 26 40 25q2 -2 19 -17.5t49 -47.5l4 -6q0 -2 -5 -4q-2 -1 -5 2q-8 7 -17.5 13.5t-17.5 11.5q-24 17 -29 16z" />
    <glyph glyph-name="otilde" unicode="&#xf5;" horiz-adv-x="371" 
d="M64 -17q88 13 205 114q60 51 89.5 94.5t32.5 81.5q0 2 -1 5l-2 6q-2 3 0 6q9 12 40 12q15 0 15 6q0 2 -15 4q-42 1 -74.5 2t-55.5 2q-2 1 -3.5 2t-3.5 2q-29 19 -45 18q-22 -1 -44 -22q-7 -4 -11 -4q-1 0 -38 -1q-23 -1 -26 -6t-3 -8q0 -6 9 -12.5t18 -11.5q6 -2 2 -9
q-132 -162 -134 -245q0 -8 4.5 -15t11 -12t14.5 -7.5t15 -1.5zM50 36q58 138 165 237q15 10 17 9q18 7 39 9.5t45 -0.5q45 -5 38 -35q-15 -73 -115 -162q-95 -87 -163 -98q-32 -6 -32 18q0 11 6 22zM191 437q11 8 26.5 14.5t32.5 6.5q10 0 24 -5.5t29 -11.5t29 -11.5
t24 -5.5q18 0 34 14t26 24q8 10 4.5 13t-13.5 -5q-10 -10 -19 -13.5t-32 -3.5q-10 0 -24.5 5.5t-29.5 11.5t-29 11.5t-23 5.5q-8 0 -17 -4.5t-18 -11t-16.5 -13.5t-12.5 -12q-8 -10 -7 -14t12 5z" />
    <glyph glyph-name="odieresis" unicode="&#xf6;" horiz-adv-x="371" 
d="M64 -17q-7 -1 -15 1.5t-14.5 7.5t-11 12t-4.5 15q2 83 134 245q4 7 -2 9q-9 5 -18 11.5t-9 12.5q0 3 3 8t26 6q37 1 38 1q4 0 11 4q22 21 44 22q16 1 45 -18q2 -1 3.5 -2t3.5 -2q23 -1 55.5 -2t74.5 -2q15 -2 15 -4q0 -6 -15 -6q-31 0 -40 -12q-2 -3 0 -6l2 -6t1 -5
q-3 -38 -32.5 -81.5t-89.5 -94.5q-117 -101 -205 -114zM50 36q-6 -11 -6 -22q0 -24 32 -18q68 11 163 98q100 89 115 162q7 30 -38 35q-24 3 -45 0.5t-39 -9.5q-2 1 -17 -9q-107 -99 -165 -237zM376 421q0 -3 -6 -7t-13.5 -7t-15.5 -4t-11 2q-2 3 -3.5 10.5t-3 16t-1.5 15.5
t2 10t8 7t13.5 7t13.5 4t8 -2q3 -2 4.5 -9t2.5 -15.5t1.5 -16.5t0.5 -11zM275 422q0 -3 -6 -7t-13.5 -7t-14.5 -4t-10 2q-2 3 -4 10.5t-3 16t-1.5 15.5t1.5 10t8.5 7t13.5 7t13 4t9 -2q2 -2 3.5 -9t2 -15.5t1 -16.5t0.5 -11z" />
    <glyph glyph-name="divide" unicode="&#xf7;" horiz-adv-x="444" 
d="M218 274q52 2 105 6t93 15q9 4 16.5 11.5t-1.5 23.5q-5 8 -16.5 18.5t-19.5 11.5q-13 4 -2 -7q5 -3 9 -7t7 -6q5 -6 4 -10.5t-4.5 -7.5t-9.5 -5.5t-11 -3.5q-37 -12 -85 -15t-97 -2l-19 1q-38 2 -73 5.5t-63 8.5q-8 2 -19 6.5t-16 12.5q-1 2 -2.5 0t0.5 -9q2 -4 7 -9.5
t10.5 -11.5t11 -10.5t8.5 -5.5q23 -4 63 -6.5t88 -3.5h16zM237 396q-3 0 -11 -0.5t-17 -2t-16 -4t-9 -5.5q-3 -3 -1.5 -11.5t4.5 -18t6.5 -17.5t6.5 -10q3 -3 10 -3q8 0 16.5 1.5t16 4t10.5 4.5q3 4 2 14.5t-4 21t-7 18.5t-7 8zM241 241q-3 0 -11 -0.5t-16.5 -1t-16 -2.5
t-9.5 -5q-3 -4 -2 -12.5t4.5 -17.5t7.5 -17t7 -11q3 -2 10 -2q8 0 16 1.5t15.5 4t9.5 5.5q3 3 2.5 12.5t-3.5 19.5t-7 18t-7 8z" />
    <glyph glyph-name="oslash" unicode="&#xf8;" horiz-adv-x="359" 
d="M-19 -61q4 14 16 33.5t35 46.5q8 -9 19.5 -16t23.5 -11t23 -5t19 2q38 17 79 52t77 79t62.5 92.5t37.5 93.5q4 20 -7 38q16 14 31 27t30 24q9 3 9 11q0 5 -7 5q-5 0 -13 -5q-14 -11 -29 -23t-31 -25q-17 17 -40 25q-8 2 -28 0.5t-37 -6.5q5 11 0.5 21t-19.5 0
q-18 -12 -41.5 -34t-48.5 -51.5t-49 -64t-41.5 -70t-26 -71t-3.5 -66.5q0 -4 1 -7t2 -5q-48 -60 -53 -87q0 -7 1 -11t1 -6q4 0 7 14zM343 306q-5 -33 -27.5 -75.5t-52.5 -84t-63 -75.5t-60 -49q-33 -17 -58 -14.5t-28 35.5q21 24 48.5 52.5t61.5 62.5q50 49 94.5 91t85.5 78
v-11q0 -5 -1 -10zM54 70q4 31 20 67.5t38.5 72.5t48.5 68t51 54q20 8 37.5 11.5t46.5 7.5q15 2 25.5 0.5t16.5 -9.5q-81 -71 -186 -177q-30 -30 -54.5 -56t-44.5 -48q0 6 1 9z" />
    <glyph glyph-name="ugrave" unicode="&#xf9;" 
d="M561 -62q-12 -15 -28.5 -33t-35.5 -34t-40 -28.5t-40 -17.5q-15 -5 -32.5 -1.5t-33.5 11t-28.5 18.5t-16.5 23q-9 29 -8.5 63t8 69.5t19 69.5t23 63.5t22 52t15.5 33.5q3 7 3 13q0 7 -3 10.5t-8.5 2.5t-14.5 -10q-21 -21 -56 -54t-73 -67t-75 -63.5t-63 -43.5
q-42 -21 -64 -8t-20 46q2 24 13.5 55t28.5 64.5t38.5 68.5t42.5 65.5t39.5 55.5t31.5 40q5 6 11.5 8.5t10.5 1t4 -7.5t-8 -18q-19 -28 -44.5 -68t-50 -82.5t-44.5 -82t-27 -66.5q-12 -44 -0.5 -55.5t38.5 5.5q39 24 87 65.5t96 87.5t91.5 89.5t73.5 70.5q10 8 17 6t11 -9.5
t4.5 -16.5t-3.5 -14q-13 -21 -30.5 -52.5t-35 -69.5t-34.5 -79.5t-28.5 -83t-16.5 -80.5t0 -71q3 -20 26 -32t58 -1q17 6 37 16.5t39 24t36 28.5t29 29q7 7 11 4t-2 -11zM400 466q11 -9 7.5 -16t-16.5 3q-10 8 -23.5 18t-28.5 21.5t-31 23.5t-31 24q-9 7 -8.5 15t6 13
t13 6.5t13.5 -5.5q23 -25 49.5 -53.5t49.5 -49.5z" />
    <glyph glyph-name="uacute" unicode="&#xfa;" 
d="M561 -62q-12 -15 -28.5 -33t-35.5 -34t-40 -28.5t-40 -17.5q-15 -5 -32.5 -1.5t-33.5 11t-28.5 18.5t-16.5 23q-9 29 -8.5 63t8 69.5t19 69.5t23 63.5t22 52t15.5 33.5q3 7 3 13q0 7 -3 10.5t-8.5 2.5t-14.5 -10q-21 -21 -56 -54t-73 -67t-75 -63.5t-63 -43.5
q-42 -21 -64 -8t-20 46q2 24 13.5 55t28.5 64.5t38.5 68.5t42.5 65.5t39.5 55.5t31.5 40q5 6 11.5 8.5t10.5 1t4 -7.5t-8 -18q-19 -28 -44.5 -68t-50 -82.5t-44.5 -82t-27 -66.5q-12 -44 -0.5 -55.5t38.5 5.5q39 24 87 65.5t96 87.5t91.5 89.5t73.5 70.5q10 8 17 6t11 -9.5
t4.5 -16.5t-3.5 -14q-13 -21 -30.5 -52.5t-35 -69.5t-34.5 -79.5t-28.5 -83t-16.5 -80.5t0 -71q3 -20 26 -32t58 -1q17 6 37 16.5t39 24t36 28.5t29 29q7 7 11 4t-2 -11zM468 491q-17 -9 -37 -19t-39 -20.5t-36 -19t-28 -14.5q-15 -8 -17 0t10 13q13 8 30 19t34.5 23
t34.5 24t30 22q8 6 15.5 4t11 -8t2 -13t-10.5 -11z" />
    <glyph glyph-name="ucircumflex" unicode="&#xfb;" 
d="M561 -62q-12 -15 -28.5 -33t-35.5 -34t-40 -28.5t-40 -17.5q-15 -5 -32.5 -1.5t-33.5 11t-28.5 18.5t-16.5 23q-9 29 -8.5 63t8 69.5t19 69.5t23 63.5t22 52t15.5 33.5q3 7 3 13q0 7 -3 10.5t-8.5 2.5t-14.5 -10q-21 -21 -56 -54t-73 -67t-75 -63.5t-63 -43.5
q-42 -21 -64 -8t-20 46q2 24 13.5 55t28.5 64.5t38.5 68.5t42.5 65.5t39.5 55.5t31.5 40q5 6 11.5 8.5t10.5 1t4 -7.5t-8 -18q-19 -28 -44.5 -68t-50 -82.5t-44.5 -82t-27 -66.5q-12 -44 -0.5 -55.5t38.5 5.5q39 24 87 65.5t96 87.5t91.5 89.5t73.5 70.5q10 8 17 6t11 -9.5
t4.5 -16.5t-3.5 -14q-13 -21 -30.5 -52.5t-35 -69.5t-34.5 -79.5t-28.5 -83t-16.5 -80.5t0 -71q3 -20 26 -32t58 -1q17 6 37 16.5t39 24t36 28.5t29 29q7 7 11 4t-2 -11zM501 465q6 -12 1.5 -15.5t-14.5 7.5q-11 14 -27 29t-26 23q-5 3 -6.5 2t-2.5 -1q-16 -7 -34.5 -14.5
t-36.5 -15.5t-33 -15.5t-25 -14.5q-13 -8 -16 -1t7 14q12 8 30 19.5t37 23.5t35.5 22t24.5 15q10 7 21.5 6t16.5 -8q13 -18 25 -38.5t23 -37.5z" />
    <glyph glyph-name="udieresis" unicode="&#xfc;" 
d="M561 -62q-12 -15 -28.5 -33t-35.5 -34t-40 -28.5t-40 -17.5q-15 -5 -32.5 -1.5t-33.5 11t-28.5 18.5t-16.5 23q-9 29 -8.5 63t8 69.5t19 69.5t23 63.5t22 52t15.5 33.5q3 7 3 13q0 7 -3 10.5t-8.5 2.5t-14.5 -10q-21 -21 -56 -54t-73 -67t-75 -63.5t-63 -43.5
q-42 -21 -64 -8t-20 46q2 24 13.5 55t28.5 64.5t38.5 68.5t42.5 65.5t39.5 55.5t31.5 40q5 6 11.5 8.5t10.5 1t4 -7.5t-8 -18q-19 -28 -44.5 -68t-50 -82.5t-44.5 -82t-27 -66.5q-12 -44 -0.5 -55.5t38.5 5.5q39 24 87 65.5t96 87.5t91.5 89.5t73.5 70.5q10 8 17 6t11 -9.5
t4.5 -16.5t-3.5 -14q-13 -21 -30.5 -52.5t-35 -69.5t-34.5 -79.5t-28.5 -83t-16.5 -80.5t0 -71q3 -20 26 -32t58 -1q17 6 37 16.5t39 24t36 28.5t29 29q7 7 11 4t-2 -11zM443 481q0 -3 -6 -7.5t-13.5 -7.5t-15.5 -4t-11 2q-2 3 -3.5 10.5t-2.5 16t-1 15.5t2 10q1 3 7.5 7
t13.5 7t13.5 4t8.5 -2q2 -2 3.5 -9t2.5 -15t1.5 -16t0.5 -11zM342 482q0 -3 -6 -7.5t-13.5 -7.5t-14.5 -4t-10 2q-2 3 -4 10.5t-3 16t-1.5 15.5t1.5 10t8.5 7t13.5 7t13 4t9 -2q2 -2 3.5 -9t2 -15l1 -16t0.5 -11z" />
    <glyph glyph-name="yacute" unicode="&#xfd;" horiz-adv-x="668" 
d="M758 398q-8 20 -24.5 34t-31.5 21q-10 5 -13 1t6 -10q15 -9 27.5 -23.5t17.5 -31.5q3 -14 0.5 -29t-8.5 -28.5t-13 -25.5t-12 -19q-15 -24 -47 -52.5t-73.5 -58t-88.5 -57.5t-92 -51q8 37 13.5 84.5t2.5 92.5q7 17 4.5 29t-9.5 18t-16.5 5.5t-16.5 -8.5
q-23 -26 -58 -60.5t-74 -68t-77.5 -63t-67.5 -45.5q-32 -20 -45.5 -14t0.5 43q10 27 28.5 63.5t41 73.5t45 71t40.5 56q9 12 7 19.5t-9.5 9t-18 -3.5t-19.5 -18q-17 -23 -41.5 -59t-49 -77.5t-45 -85t-28.5 -82.5q-2 -10 3.5 -20t15.5 -17.5t22 -10t23 3.5q32 16 68.5 42
t72 56t68 61t56.5 56q33 36 36 -9q1 -14 0.5 -34.5t-2.5 -43t-5 -45t-6 -40.5q-62 -34 -130.5 -69.5t-139.5 -72t-141 -74.5t-135 -76t-122 -75.5t-101 -74.5q-38 -32 -60 -62.5t-29.5 -59t-2.5 -55t20 -50.5q17 -26 47 -41t68.5 -20.5t82 -3t88.5 11.5q123 25 221.5 92
t173 163.5t124.5 215t75 246.5q38 21 86 47.5t95 57t87 63.5t62 66q9 13 16.5 28.5t11.5 31t3.5 31.5t-7.5 31zM362 24q-22 -122 -72 -235t-122.5 -205t-164 -156.5t-196.5 -87.5q-36 -8 -76 -11t-75.5 2.5t-64 20.5t-42.5 44q-12 25 -10.5 52t12.5 52.5t29 48t38 40.5
q84 69 180.5 129.5t195 113.5t193 100.5t175.5 91.5zM301 480q19 7 42 15t46.5 15.5t45 14.5t36.5 12q8 2 9.5 9t-1 13.5t-8.5 11t-12 1.5l-35 -17.5t-43.5 -21.5t-44.5 -22t-40 -19q-7 -4 -4 -9.5t9 -2.5z" />
    <glyph glyph-name="thorn" unicode="&#xfe;" horiz-adv-x="714" 
d="M441 362q-34 50 -67 76t-69.5 36.5t-74.5 3t-72 -37.5q-29 -24 -50 -53.5t-35 -59.5t-22 -59t-10 -53q1 -14 -8.5 -13t-8.5 16q0 25 9 58t24.5 66.5t37 64.5t45.5 52q67 65 196.5 35t183.5 -249q8 -51 4.5 -103t-16.5 -101.5t-34.5 -93.5t-49.5 -78q-22 -26 -43.5 -46
t-61.5 -44q-34 -18 -64 -20q-5 0 -8 2.5t-3.5 6.5t2 7t7.5 3q26 3 57 20q54 33 98 83q44 51 65.5 115t25 129t-9.5 124.5t-48 112.5z" />
    <glyph glyph-name="ydieresis" unicode="&#xff;" horiz-adv-x="668" 
d="M758 398q-8 20 -24.5 34t-31.5 21q-10 5 -13 1t6 -10q15 -9 27.5 -23.5t17.5 -31.5q3 -14 0.5 -29t-8.5 -28.5t-13 -25.5t-12 -19q-15 -24 -47 -52.5t-73.5 -58t-88.5 -57.5t-92 -51q8 37 13.5 84.5t2.5 92.5q7 17 4.5 29t-9.5 18t-16.5 5.5t-16.5 -8.5
q-23 -26 -58 -60.5t-74 -68t-77.5 -63t-67.5 -45.5q-32 -20 -45.5 -14t0.5 43q10 27 28.5 63.5t41 73.5t45 71t40.5 56q9 12 7 19.5t-9.5 9t-18 -3.5t-19.5 -18q-17 -23 -41.5 -59t-49 -77.5t-45 -85t-28.5 -82.5q-2 -10 3.5 -20t15.5 -17.5t22 -10t23 3.5q32 16 68.5 42
t72 56t68 61t56.5 56q33 36 36 -9q1 -14 0.5 -34.5t-2.5 -43t-5 -45t-6 -40.5q-62 -34 -130.5 -69.5t-139.5 -72t-141 -74.5t-135 -76t-122 -75.5t-101 -74.5q-38 -32 -60 -62.5t-29.5 -59t-2.5 -55t20 -50.5q17 -26 47 -41t68.5 -20.5t82 -3t88.5 11.5q123 25 221.5 92
t173 163.5t124.5 215t75 246.5q38 21 86 47.5t95 57t87 63.5t62 66q9 13 16.5 28.5t11.5 31t3.5 31.5t-7.5 31zM362 24q-22 -122 -72 -235t-122.5 -205t-164 -156.5t-196.5 -87.5q-36 -8 -76 -11t-75.5 2.5t-64 20.5t-42.5 44q-12 25 -10.5 52t12.5 52.5t29 48t38 40.5
q84 69 180.5 129.5t195 113.5t193 100.5t175.5 91.5zM422 453q0 3 -0.5 11t-1.5 16t-2.5 15.5t-3.5 9.5q-2 3 -8.5 2t-13.5 -4.5t-13.5 -7.5t-7.5 -7q-2 -2 -2 -10q0 -7 1 -15t2.5 -15.5t3.5 -10.5q3 -3 11 -2t15.5 4t13.5 7t6 7zM321 454v11t-1 16.5t-2 15.5t-3 9
q-3 3 -9.5 2t-13.5 -4t-13 -7t-8 -7t-2 -10t1 -15.5t3 -16t4 -10.5q3 -3 10 -2t14.5 4t13.5 7t6 7z" />
    <glyph glyph-name="OE" unicode="&#x152;" horiz-adv-x="913" 
d="M968 641q5 5 5 14t-4 17.5t-10 16t-12.5 13.5t-10.5 8h-1q-14 8 -37 12t-49 4q-20 0 -41.5 -2.5t-39.5 -7.5l-6 3q-4 10 -9 19t-13 9q-2 0 -8 -2v-1q-8 -2 -16.5 -12t-16.5 -23l-3 -2q-12 -4 -32 -12t-29 -13q-8 -8 -8 -14q0 -9 3 -13q10 -15 10 -26q0 -5 -1 -9.5
t-6 -9.5q-2 -3 -4 -6.5l-6 -10.5q-8 -14 -17.5 -30t-16.5 -30l-9 3q2 10 2.5 24t0.5 26v5q0 37 -10 67t-27.5 51t-41 32t-50.5 11q-12 0 -27 -3l-6 5q-1 10 -7 14.5t-14 4.5q-11 0 -27 -7q-33 -17 -72.5 -53t-79 -85t-77 -107.5t-66 -121t-46 -126.5t-17.5 -123
q0 -8 0.5 -17t1.5 -17q4 -41 18 -69t33 -44.5t40.5 -23.5t41.5 -7q7 0 14 1t13 3q59 20 121.5 72.5t128.5 140.5l9 -5q-9 -29 -15.5 -57.5t-6.5 -47.5v-7q0 -15 3 -30.5t9.5 -28.5t16 -21.5t23.5 -8.5h15q33 0 73 3t77 8t67 12t43 16h1q18 10 18 17q0 2 -5 2t-18 -5
q-9 -5 -26.5 -9t-41 -7t-50 -4.5t-53.5 -1.5q-32 0 -59.5 2.5t-46.5 8.5q-19 7 -25 11.5t-6 18.5v9t1 11q0 2 0.5 2.5t0.5 2.5q2 25 11.5 57.5t23 68.5t29 73t29.5 70q4 9 7.5 17t6.5 16l3 2q16 9 38.5 16t46 12t47 8t41.5 3q24 0 35 -4q3 -1 6 -1q8 0 8 3q0 4 -16 7
q-14 4 -35 5.5t-44 1.5q-26 0 -50 -2.5t-42 -8.5l-7 7q13 30 30 61t35.5 61.5t38.5 59t38 52.5l2 2q33 13 74 19.5t77 6.5q44 0 68 -9q28 -9 28 -27q0 -10 -7 -21q-3 -8 -3 -11v-1q6 0 18 16v1zM558 586q0 -60 -19 -124.5t-50 -127.5t-71 -120.5t-83 -103t-85 -76.5t-76 -40
q-9 -2 -19.5 -4.5t-23.5 -2.5q-15 0 -30 5t-28 19t-21.5 38.5t-9.5 62.5v8q0 54 16 113.5t42.5 119t61.5 116.5t73.5 106.5t78 89t74.5 63.5l2 1q16 4 38 4q24 0 47.5 -7.5t41.5 -25t29.5 -45.5t11.5 -69z" />
    <glyph glyph-name="oe" unicode="&#x153;" horiz-adv-x="561" 
d="M663 238q5 5 1 7t-10 -3q-10 -11 -27 -19.5t-37 -12.5q-28 -3 -74 -3.5t-91 -0.5q39 8 73 24t49 38q6 13 5 28.5t-8.5 28.5t-20.5 19t-30 0q-49 -19 -107 -77q2 5 2 10q0 6 1 11q0 5 -2 11q-2 3 0 7q10 12 40 12q15 0 15 5q0 3 -15 5q-86 2 -130 3q-5 1 -7 4
q-27 20 -45 18q-22 -1 -44 -22q-8 -3 -11 -3q-1 0 -38 -1q-23 -1 -26 -6t-3 -9q0 -5 8.5 -11.5t18.5 -12.5q5 -2 2 -9q-132 -162 -134 -245q0 -8 4.5 -14.5t11 -11.5t14.5 -7.5t15 -1.5q89 14 205 113q6 5 12 10.5t11 10.5q-8 -20 -13 -39.5t-6 -39.5q-1 -17 7 -31.5
t21 -25.5t28.5 -16.5t29.5 -2.5q16 1 32.5 7.5t31.5 14t28 16t23 14.5q7 5 3.5 8.5t-11.5 -1.5q-23 -13 -55 -25.5t-60 -15.5q-11 -2 -22 0t-19.5 8.5t-13 18.5t-2.5 31q2 39 22.5 75.5t40.5 63.5h61q35 0 68.5 0.5t62 2t42.5 3.5q25 4 44.5 17t28.5 22zM48 52
q60 137 165 236q15 10 18 9q35 15 84 10q45 -5 38 -35q-15 -73 -115 -163q-95 -86 -163 -98q-32 -5 -32 19q0 9 5 22zM525 277q-23 -30 -67.5 -50.5t-92.5 -20.5q29 32 62.5 61t65.5 49q12 6 22 6t15.5 -5.5t4.5 -16t-10 -23.5z" />
    <glyph glyph-name="Scaron" unicode="&#x160;" horiz-adv-x="550" 
d="M176 -25q-43 -33 -87 -50t-86 -22.5t-79.5 -1.5t-68.5 13t-53 20t-32 21q-14 13 -6 15t18 -6q28 -23 73 -34.5t96.5 -9.5t105 19.5t97.5 53.5q16 13 30.5 31t25 38t15.5 41.5t3 41.5q-4 33 -21.5 71.5t-40 75.5t-45.5 69t-39 50q-23 27 -36 60.5t-12 67t17.5 65.5
t53.5 58q51 36 101 56t95.5 28t84.5 5.5t68 -11.5q23 -6 38.5 -20t24.5 -30.5t12 -32.5t1 -27q-2 -14 -15 -28t-30 -25.5t-33.5 -20t-26.5 -12.5q-8 -2 -12 -1t-4.5 3.5t2.5 5.5t9 5q7 2 20 9t27 16.5t27 21.5t19 24q5 13 4 28t-8.5 28.5t-22 23.5t-36.5 14q-48 9 -95.5 5.5
t-91 -15t-81.5 -29.5t-65 -40q-35 -27 -48.5 -57.5t-12.5 -59.5t13 -56t28 -46q17 -23 41 -54.5t47.5 -67.5t42.5 -74t26 -75q8 -44 -9.5 -91t-68.5 -87zM280 811q16 7 36.5 19t43.5 30q7 7 7 -2q0 -6 -3 -10q-5 -4 -17.5 -15.5t-33.5 -30.5q-34 -34 -35 -32q-1 1 -59 81
q-2 8 -2 9q0 4 3 6q2 1 6 -4q12 -16 29 -33q19 -19 25 -18z" />
    <glyph glyph-name="scaron" unicode="&#x161;" horiz-adv-x="499" 
d="M632 224q52 -2 85 -15t49.5 -33.5t18.5 -46t-7.5 -52t-28 -51.5t-43.5 -44q-73 -56 -161.5 -87t-184.5 -36q-11 -1 -23.5 2l-12.5 3q-13 3 -14.5 7.5t-5.5 3.5q-11 -5 -10.5 -10.5t12.5 -10.5q8 -4 24.5 -5t29.5 0q97 5 190 35.5t168 85.5q44 32 67 77t17 86t-46 70
t-122 31q-61 1 -122 -9t-118.5 -28t-110 -42t-97.5 -49q-7 4 -16 14t-17.5 22.5t-15 26t-7.5 25.5q-3 19 9 38.5t32.5 39t46.5 37t51 31t47 23t34 12.5q26 7 50.5 0t37.5 -12q4 -1 10 2t13 7.5t13 9.5t9 9q4 5 -0.5 12t-10.5 7q-37 1 -81 -10t-88.5 -29.5t-85.5 -43
t-72.5 -50.5t-49 -52.5t-14.5 -48.5q2 -16 9 -29.5t15 -25t17 -22t15 -20.5q-11 -8 -29.5 -20.5t-38 -26.5t-38 -29t-29.5 -28q-7 -10 6 -14q9 -1 17 1t19 4q15 -6 41 -2t52.5 14.5t49.5 25t32 29.5q8 14 -1.5 29.5t-19.5 29.5q50 29 102.5 54t107.5 43t111 27.5t113 7.5z
M53 -15q6 7 19.5 19t29.5 24t29.5 21.5t19.5 12.5l8 -8t9.5 -11.5t5.5 -14t-4 -14.5q-6 -8 -21 -16t-32.5 -14t-34 -9t-25.5 -1q-12 2 -4 11zM245 448q-6 -1 -25 18q-15 15 -30 33q-3 5 -5 4q-3 -2 -3 -6q0 -1 2 -9q58 -80 59 -81q1 -2 35 32q21 19 33.5 30.5t17.5 15.5
q3 4 3 10q0 9 -8 2q-23 -18 -43 -30t-36 -19z" />
    <glyph glyph-name="Ydieresis" unicode="&#x178;" horiz-adv-x="566" 
d="M697 616q-12 -25 -35 -63.5t-53 -84t-65 -95.5t-72 -100t-73 -96.5t-67 -84.5q-56 -67 -117 -134.5t-120 -123t-111 -93.5t-89 -46q-8 -2 -18.5 3.5t-19.5 14.5t-15 20.5t-5 23.5q2 15 9 31t15 31t17 28t16 23q8 9 11 7.5t-2 -12.5q-3 -9 -8.5 -23t-10.5 -30l-10 -32
t-7 -31q-5 -20 7 -27.5t37 2.5q27 11 60.5 34.5t68.5 55t71 68t69.5 73.5t62.5 71t50 61q1 34 -6.5 85t-20.5 110t-32 121t-41.5 117.5t-48 100t-52.5 68.5q-38 33 -75 21t-58 -58q-11 -26 -15.5 -53.5t-2.5 -56.5q1 -17 -5 -17q-7 0 -12 14q-5 20 -8 50.5t8 56.5
q11 22 33 43.5t48.5 34.5t55 14.5t51.5 -16.5q31 -24 58.5 -66t50.5 -94.5t41.5 -111t33 -115t25 -106.5t16.5 -86q27 31 61 77t66.5 94t60 92.5t41.5 72.5v22t8 23q9 13 21.5 30t26 34.5t25 34t17.5 28.5q7 11 14.5 9.5t12.5 -9t7.5 -18t-1.5 -17.5zM499 773q0 -3 -6 -7
t-13.5 -7t-15.5 -4t-11 2q-2 3 -3.5 10.5t-2.5 16t-1 15.5t2 10q1 3 7.5 7t13.5 7t13.5 4t8.5 -2q2 -2 3.5 -9t2.5 -15.5t1.5 -16.5t0.5 -11zM398 774q0 -3 -6 -7t-13.5 -7t-14.5 -4t-10 2q-2 3 -4 10.5t-3 16t-1 15.5t2 10t8 7t13 7t13.5 4t9.5 -2q2 -2 3 -9t2 -15.5
t1 -16.5v-11z" />
    <glyph glyph-name="florin" unicode="&#x192;" horiz-adv-x="426" 
d="M52 191q1 14 4.5 27.5t11.5 22.5q17 23 45 23q13 0 31.5 -6t44.5 -16q14 45 25.5 84t19.5 70q10 28 21.5 70.5t25 92.5t28.5 103t32.5 100.5t37.5 85t42 57.5q14 11 32.5 14t32.5 -8q20 -1 38.5 -31.5t34.5 -75t28 -95.5t18.5 -93.5t6.5 -68.5t-7 -20q-6 25 -12.5 59.5
t-15.5 71.5t-20 73.5t-26 66t-33 49t-41 22.5q-2 2 -7 2.5t-8 1.5q-15 -14 -30 -41.5t-29 -63t-27.5 -76t-25.5 -80.5t-22.5 -77t-18.5 -64q-5 -17 -6 -21t-1 -4.5t-3 -8.5q-2 -9 -2.5 -11t-0.5 -4q-14 -45 -28.5 -93t-31.5 -99q17 -8 41.5 -11.5t35.5 -1.5q7 1 20 10t22 15
t8 2.5t-22 -26.5q-17 -19 -29.5 -23.5t-27.5 -4.5q-21 0 -57 15q-32 -96 -69 -193.5t-78.5 -185.5t-87 -160t-94.5 -116q-58 -50 -115 -65t-121 21q-36 21 -59 59t-35.5 81.5t-16.5 87t-2 77.5q2 22 10 21t9 -18q1 -26 3.5 -63t12 -78t30 -80.5t57.5 -69.5q24 -20 53 -23
t58 5.5t56 24.5t48 35q44 43 88 118t85.5 165.5t78 187t64.5 181.5q-48 21 -71 21q-19 0 -32 -17t-22 -69z" />
    <glyph glyph-name="circumflex" unicode="&#x2c6;" horiz-adv-x="312" 
d="M180 549q-54 -14 -135 -48q-12 -8 -12 2q0 2 5 9q18 7 86 46q58 32 60 30q6 -2 100 -80q4 -4 4 -7q0 -4 -5 -6q-5 -1 -9 3q-13 8 -25.5 16t-25.5 16q-34 20 -43 19z" />
    <glyph glyph-name="tilde" unicode="&#x2dc;" horiz-adv-x="296" 
d="M28 502l23 13q23 13 46 13q13 0 54 -18q38 -16 53 -16q21 0 59 38q5 8 5 11t-3 3t-11 -6q-16 -16 -50 -16q-8 0 -21.5 3.5t-34.5 12.5l-32.5 13t-18.5 5q-20 0 -64 -42q-7 -11 -7 -12q0 -2 2 -2z" />
    <glyph glyph-name="afii10023" unicode="&#x401;" horiz-adv-x="598" 
d="M641 539q-11 -20 -44.5 -40t-71.5 -33q-10 -4 -10.5 3t5.5 13q31 14 56 34t45 56q8 17 2 30.5t-17 18.5q-27 9 -60 15t-67.5 9t-70.5 3q-35 0 -67 -2q-24 -25 -53.5 -62.5t-57.5 -77.5t-51.5 -78t-36.5 -63q46 6 105 11.5t119 7.5t116.5 0t98.5 -11q9 -2 15 -9t8 -13
t-2 -9.5t-16 0.5q-25 9 -62.5 13t-80.5 3.5t-89.5 -4.5t-89.5 -9t-80 -11t-61 -10q-23 -45 -38.5 -96.5t-14.5 -105.5q0 -35 9.5 -57.5t26.5 -36.5t40 -19.5t50 -5.5q49 1 97.5 14t92.5 31t81 38t64 36q8 5 10.5 -0.5t-4.5 -12.5q-27 -21 -64.5 -46t-81.5 -47t-93 -36.5
t-99 -14.5q-28 -1 -56 8.5t-50.5 28.5t-37 48t-17.5 68q-2 46 9.5 93.5t28.5 90.5q-8 0 -15 2.5t-16 7.5q-15 6 -19 19.5t16 19.5q12 3 27 6.5t29 5.5q18 34 40.5 72.5t46.5 76t48.5 71.5t46.5 58q-45 -1 -88 -4t-81 -10q-7 -2 -8.5 -7.5t7.5 -7.5q6 -2 7 -4.5t4 -4.5
q6 -3 5 -9.5t-9 -2.5q-12 1 -34 2t-47 1t-49.5 -2t-42.5 -6q-9 -2 -13 3.5t-3.5 13t5 14t12.5 8.5q36 10 81.5 17.5t93.5 12.5t94.5 8t84.5 6q10 14 20.5 26t21.5 20q8 6 16 4.5t14.5 -8t11 -16.5t5.5 -19q62 -5 121.5 -11.5t105.5 -24.5q12 -4 20.5 -16t12.5 -27t3 -30.5
t-10 -27.5zM432 820q0 -3 -6 -7.5t-14 -8t-16 -4.5t-11 2q-2 3 -3.5 11t-2.5 16.5t-1 15.5q0 8 2 11q1 3 7.5 7t14 7.5t14 4.5t8.5 -2q2 -2 3.5 -9.5t2.5 -16t1.5 -16.5t0.5 -11zM330 821q0 -3 -6 -7.5t-14 -8t-15.5 -4.5t-9.5 2t-4 11t-3 16.5t-1.5 16t1.5 10.5t8.5 7.5
t13.5 7.5t13 4.5t9 -1.5q2 -2 3.5 -9.5t2.5 -16.5t1.5 -17t0.5 -11z" />
    <glyph glyph-name="afii10053" unicode="&#x404;" horiz-adv-x="625" 
d="M58 352q4 7 11 18.5t14 23.5t14 23t12 19q18 24 40 50.5t46 53t49.5 51t51.5 44.5q33 26 61 44.5t53.5 30.5t50.5 18t53 8q30 4 49 -9t29 -37t11 -55t-5.5 -62.5t-19.5 -60t-32 -47.5q17 47 30 95t4 100q-12 35 -29.5 47t-46.5 12q-35 0 -70.5 -14t-71 -38.5t-71 -58
t-70.5 -71.5q-10 -12 -22.5 -26.5t-24.5 -30t-23 -30t-19 -25.5q-5 -8 -11.5 -19t-13 -23t-12.5 -23.5t-10 -18.5q-14 -26 -23 -53.5t-14 -53.5q-2 -12 -3.5 -24t-1.5 -24q0 -41 13.5 -72.5t37.5 -53t57.5 -32.5t74.5 -10q52 2 105.5 19.5t110.5 47.5q70 37 109.5 57
t42.5 19.5t-34 -24.5t-120 -74q-57 -34 -110 -51.5t-104 -15.5q-83 1 -146 52q-32 29 -46.5 66.5t-14.5 83.5q0 73 39 154zM195 354q-27 12 -39 12q-22 0 -47 -13l-23 -13q-1 0 -1 2q1 9 13 21.5t32 19.5t46.5 5t57.5 -21q9 -3 16 -4t12 -1q35 0 51 16q6 6 11 6q6 0 3 -5
t-5 -8q-39 -39 -60 -39q-3 0 -11 2.5t-18 5.5t-20.5 7t-17.5 7z" />
    <glyph glyph-name="uni0406" unicode="&#x406;" horiz-adv-x="595" 
d="M-56 111q9 13 12 10.5t-2 -16.5q-15 -44 -20.5 -95.5t3 -95.5t32.5 -73.5t67 -27.5q33 2 66 26t62.5 56t52 65.5t34.5 53.5q13 23 33.5 64.5t44.5 94t49.5 112.5t49.5 121t44 119t33 107q-20 -15 -47 -38t-55 -50.5t-54.5 -59.5t-47.5 -66q-13 -23 -27 -53.5t-17 -60.5
q-2 -20 -7.5 -17.5t-4.5 17.5q4 29 12.5 66t25.5 63q19 34 48.5 65.5t61.5 59.5t64 53t56 46q6 15 12 31t12.5 30.5t13.5 25.5t15 15q7 3 10 -0.5t4 -11t-1 -16.5t-5 -16q-8 -16 -17 -32t-22 -30q-5 -20 -19.5 -66t-35.5 -106.5t-47 -130t-54 -136t-56 -124.5t-54 -96
q-13 -19 -34.5 -50.5t-51 -62t-66.5 -54t-81 -26.5q-32 -2 -55.5 13.5t-39.5 42.5t-23 61.5t-7 69.5t8.5 67.5t24.5 55.5z" />
    <glyph glyph-name="afii10056" unicode="&#x407;" horiz-adv-x="595" 
d="M-56 111q9 13 12 10.5t-2 -16.5q-15 -44 -20.5 -95.5t3 -95.5t32.5 -73.5t67 -27.5q33 2 66 26t62.5 56t52 65.5t34.5 53.5q13 23 33.5 64.5t44.5 94t49.5 112.5t49.5 121t44 119t33 107q-20 -15 -47 -38t-55 -50.5t-54.5 -59.5t-47.5 -66q-13 -23 -27 -53.5t-17 -60.5
q-2 -20 -7.5 -17.5t-4.5 17.5q4 29 12.5 66t25.5 63q19 34 48.5 65.5t61.5 59.5t64 53t56 46q6 15 12 31t12.5 30.5t13.5 25.5t15 15q7 3 10 -0.5t4 -11t-1 -16.5t-5 -16q-8 -16 -17 -32t-22 -30q-5 -20 -19.5 -66t-35.5 -106.5t-47 -130t-54 -136t-56 -124.5t-54 -96
q-13 -19 -34.5 -50.5t-51 -62t-66.5 -54t-81 -26.5q-32 -2 -55.5 13.5t-39.5 42.5t-23 61.5t-7 69.5t8.5 67.5t24.5 55.5zM637 851q0 -3 -6 -7.5t-14 -8t-15.5 -4.5t-10.5 2q-2 3 -4 11.5t-3 18t-1 17.5t2 11t8 7.5t13.5 8t13.5 5t8 -1.5q3 -3 4.5 -11t2.5 -17.5t1.5 -18
t0.5 -12.5zM537 854q0 -4 -6 -9t-13.5 -8.5t-15 -4.5t-9.5 2t-4 11.5t-3 18t-1.5 17.5t1.5 11t8 8t13 8.5t13.5 4.5t9.5 -2q2 -3 3.5 -11t2 -17t1 -17.5t0.5 -11.5z" />
    <glyph glyph-name="afii10062" unicode="&#x40e;" horiz-adv-x="927" 
d="M789 50q19 25 80 152q20 41 39.5 81.5t38.5 81.5q3 10 2 11q-1 4 -6 -1q-127 -112 -276 -214q-97 -66 -176 -107t-141 -58q-9 -3 -17.5 1t-16 12t-12 19.5t-4.5 24.5q0 11 4 20q17 55 99 176q54 80 87 131t46 72q67 115 67 188q0 89 -110 97q-49 5 -108.5 -15.5
t-130.5 -63.5q-145 -90 -191 -190q-16 -38 -16 -66q0 -23 8 -41t34 -35q11 -8 21.5 -12.5t19.5 -5.5q14 -1 14 -7t-19 -3q-67 12 -85 55q-11 23 -11 58q0 37 11 63q38 100 173 190q142 95 263 98q59 1 108 -46q50 -48 50 -99q0 -34 -16.5 -79.5t-51.5 -102.5
q-17 -29 -50 -79.5t-84 -122.5q-83 -120 -101 -164q-6 -12 -8.5 -21.5t-2.5 -15.5q0 -14 14 -14q9 0 33 6q120 33 317 169q91 63 160.5 119t118.5 107l2 5q8 11 17.5 25t20.5 31q10 15 29 15q2 0 4 -2q9 -21 -1 -31q-8 -5 -16 -13l-19 -19q-27 -60 -58 -127t-66 -145
q5 -5 11 -13.5t10.5 -16.5t7.5 -15.5t3 -10.5q0 -9 -19 -34q-9 -11 -16 -17t-13 -7q-8 -1 -20.5 -5t-29.5 -9q-32 -53 -58.5 -90.5t-47.5 -63.5q-61 -76 -122 -110q-96 -55 -169 -53q-61 1 -97 31q-34 27 -34 67q0 49 49 88q130 100 458 151zM776 24q-48 -7 -98 -17.5
t-104 -25.5q-159 -42 -231 -99q-46 -36 -46 -81q0 -75 114 -73q83 1 162 53q61 41 117 113q11 16 32.5 48t53.5 82zM870 147q-8 -17 -19.5 -39t-26.5 -51q8 1 18 4t24 7q21 12 22 32q1 21 -18 47zM801 722q-11 -10 -12 -5t6 15q11 13 29 29.5t35 16.5q10 0 24 -6t29 -12.5
t29.5 -12.5t25.5 -6q23 0 31.5 3.5t19.5 15.5q10 9 13 5.5t-5 -14.5q-5 -6 -11.5 -13t-14 -14t-16 -11.5t-17.5 -4.5q-10 0 -24 6t-29 12.5t-30 12.5t-25 6q-17 0 -32 -7t-26 -16z" />
    <glyph glyph-name="afii10017" unicode="&#x410;" horiz-adv-x="1118" 
d="M1076 330q-8 5 -8 12q-2 6 4 6q3 0 5.5 -2t5.5 -4q37 -33 50 -65q6 -15 -29 -27q-11 -5 -38.5 -1.5t-73.5 12.5q-11 -57 -17 -101t-6 -78q0 -35 7 -56q0 -1 3.5 -3t7.5 -4t7 -4t3 -3q-2 -15 -20 -15q-7 0 -8 4q-16 33 -16 116q0 31 2.5 68t7.5 81q-54 11 -114 24t-127 29
q-48 -51 -105.5 -99.5t-126.5 -97.5q-193 -134 -320 -136q-63 -1 -97.5 35t-34.5 99q0 27 6 57t20 62q46 117 157 145q23 6 50.5 8.5t61.5 2.5q152 0 388 -51q58 61 162 186q57 69 101 125t73 101q5 5 13 5q17 0 38 -14t19 -21q-26 -79 -45 -137.5t-32 -98.5
q-44 -148 -56 -214q51 -15 83 -15t32 16q0 24 -33 53zM216 361q-47 -11 -80.5 -42.5t-54.5 -85.5q-19 -50 -19 -101q0 -56 26 -89q15 -19 36 -29t50 -9q129 3 308 129q111 81 218 189q-194 48 -371 48q-35 0 -63 -2.5t-50 -7.5zM741 338q57 -17 113.5 -31t112.5 -25
q12 121 103 399q2 10 2 13q0 16 -9 16q-5 0 -8 -2.5t-8 -7.5q-76 -101 -152 -191t-154 -171z" />
    <glyph glyph-name="afii10018" unicode="&#x411;" horiz-adv-x="959" 
d="M579 459q-9 4 -18 7.5t-14.5 7t-6.5 8.5t5 13q3 4 10.5 5t16 0t17.5 -2t16 -1l2 3q1 0 1.5 -0.5t1.5 -0.5q21 30 44 70.5t45 83t41.5 82.5t32.5 68q-141 -1 -281 -16t-266 -61q-38 -14 -69.5 -34.5t-52.5 -47t-29.5 -59t-0.5 -69.5q5 -24 14.5 -50.5t23 -52t29.5 -50
t34 -45.5q11 -13 6 -18t-16 9q-16 18 -34 42.5t-34 51.5t-29.5 55.5t-20.5 55.5q-19 77 20 137t144 104q80 33 183.5 52t215 27t223 7t208.5 -8q7 14 25 13q8 -1 20.5 -4t24.5 -7t22 -8t13 -7q6 -6 2 -18.5t-14 -11.5q-29 2 -66 4t-78 4t-84.5 3t-84.5 1
q-16 -30 -38.5 -69.5t-46.5 -80.5t-47 -79t-41 -65l-3.5 -7t-3.5 -6q39 -7 86 -20.5t90.5 -33.5t77 -47.5t46.5 -61.5q16 -41 2.5 -77.5t-42 -68t-66.5 -57t-71 -44.5q-66 -42 -147.5 -60t-169.5 -13q-24 3 -29 10.5t-0.5 16t15.5 14.5t19 6q72 -5 153 3.5t156 40.5
q33 13 65.5 40.5t55 60t30 66.5t-9.5 61q-5 22 -36 44t-74.5 39t-92.5 27.5t-89 10.5q-42 -63 -78.5 -117.5t-73.5 -102.5t-75.5 -89.5t-83.5 -77.5q-28 -23 -60.5 -41.5t-65 -29t-61.5 -9.5t-50 18t-33.5 48.5t-17.5 62.5q-2 14 4 15t9 -11q5 -24 20.5 -52t33.5 -42
q39 -29 87.5 -14t117.5 70q30 25 69.5 68.5t80.5 95t79.5 105.5t65.5 100q-2 0 -3 -0.5t-3 -0.5z" />
    <glyph glyph-name="afii10019" unicode="&#x412;" horiz-adv-x="734" 
d="M406 -8q-16 1 -21.5 4.5t-4.5 7t7 6t12 2.5q51 -2 102.5 7t93.5 28q18 8 31 22.5t17.5 32t-1.5 35.5t-26 33q-13 10 -38.5 19.5t-53.5 17.5t-55 13.5t-43 7.5q-6 -8 -27.5 -37.5t-47 -68t-50 -79t-36.5 -68.5q-10 -20 -15.5 -21t2.5 23q6 20 23.5 53t39.5 69t44 71.5
t39 60.5q-7 2 -12 3t-12 4q-8 3 -12 7.5t-4.5 9t2 8t5.5 3.5q9 1 26.5 2.5t30.5 5.5q22 31 43.5 64.5t40.5 65.5t34 61t25 51q2 4 4.5 11.5t3 14t-1.5 12t-9 6.5q-6 1 3 8t22 11.5t24 3t8 -16.5q-2 -14 -13 -38t-26.5 -52t-33.5 -58t-35.5 -57.5l-31.5 -49.5t-22 -34
q14 2 40.5 8t59 14.5t69 19.5t71 24.5t64 28.5t49.5 31q19 15 35 36t22 44.5t-2.5 48.5t-39.5 48q-47 35 -102 57t-114.5 34.5t-121.5 17.5t-123 6q-9 0 -31.5 1t-52 -0.5t-63 -6t-64.5 -14.5t-56.5 -27.5t-38.5 -43.5q-8 -15 -2 -31t18 -30.5t26.5 -25t23.5 -15.5
q15 -8 14 -16t-19 4q-17 10 -37 23.5t-35.5 29t-21.5 34t6 39.5q12 23 40.5 38.5t64 26.5t73.5 17.5t70.5 9.5t55.5 4t27 1q68 -1 131.5 -4.5t123.5 -15t116 -32.5t109 -58q34 -24 48 -52t10 -56.5t-23.5 -55.5t-51.5 -48q-39 -26 -86 -46.5t-94.5 -35.5t-92 -25t-77.5 -16
q-13 -2 -13 -8t12 -8q31 -4 59.5 -13t52 -20t40.5 -22t25 -19q23 -23 24.5 -43.5t-9 -38.5t-29 -33t-35.5 -27q-34 -23 -83.5 -35t-112.5 -9z" />
    <glyph glyph-name="afii10020" unicode="&#x413;" horiz-adv-x="662" 
d="M864 664q17 22 22 25t12 6.5t14 6.5t12 3q18 0 18 -37q0 -15 -8 -21q-6 -3 -39 3q-55 -48 -106.5 -108t-99.5 -132l-15 -21q-78 -103 -140.5 -171.5t-125.5 -118.5q-67 -47 -95 -62q-26 -12 -52 -20.5t-53 -14.5q-15 -3 -39 -3q-64 0 -99 27t-39 82q-2 18 2 39t14 42
q17 41 37 50q26 0 6 -25q-37 -10 -38 -107q-1 -48 40 -73q16 -9 36.5 -14.5t44.5 -5.5q9 0 16.5 0.5t15.5 1.5q45 9 89 29t87 54q50 37 76.5 63t61.5 68q58 69 104 134l35 51q13 20 37.5 50.5t60.5 73.5q43 52 70 82t38 43zM1053 749q-11 10 -5.5 11t13.5 -4
q25 -14 37.5 -38t10.5 -48.5t-20.5 -44t-54.5 -23.5q-56 -7 -114.5 4.5t-119.5 31.5t-125 44t-131.5 42t-138 26t-145.5 -3q-53 -9 -87.5 -42.5t-51 -82t-17 -105.5t14.5 -111.5t44 -101t72 -74.5q33 -20 71.5 -23t74 9.5t64 39.5t40.5 67q1 3 8 4t7 -4q-6 -41 -35.5 -71
t-68.5 -46.5t-80 -17.5t-69 16q-57 36 -94.5 90t-54.5 116.5t-14 126.5t27 120q22 51 60.5 80t88 40.5t106 9t115 -14.5t115 -30.5t106.5 -37.5q99 -39 179 -59t132 -20q53 0 73.5 20.5t0.5 62.5q-6 14 -14.5 23t-19.5 18z" />
    <glyph glyph-name="afii10021" unicode="&#x414;" horiz-adv-x="864" 
d="M670 706q-38 13 -93.5 21.5t-118 10t-126.5 -6t-119.5 -28t-97 -55t-59.5 -86.5q-14 -39 -6.5 -77.5t25.5 -73t41.5 -64t42.5 -50.5q18 -20 12.5 -25.5t-25.5 12.5q-68 66 -100.5 129t-21.5 126q11 60 53.5 102t102.5 68.5t131.5 38.5t141 14t130.5 -5t100 -19
q93 -30 157.5 -76t102 -101.5t47.5 -118t-6 -125t-58.5 -122t-110.5 -109.5q-25 -18 -65.5 -40t-87.5 -41t-97.5 -32t-95.5 -13q-44 0 -79 16.5t-52 56.5q-4 8 -6.5 8.5t-7.5 -8.5q-6 -16 -11.5 -31t-10.5 -36q-3 -17 -10.5 -17.5t-3.5 20.5q4 20 13 45.5t17 48.5
q2 5 1.5 6.5t-2.5 8.5q-20 50 24 53q4 0 2 0q-1 0 1 4q20 41 45 87.5t52 93t55 92t54 84.5t49 70.5t40 50.5q5 6 14 9.5t16 3.5q8 0 11.5 -3.5t-1.5 -10.5q-19 -24 -47.5 -64t-61.5 -88.5t-67 -101t-64 -101.5t-53 -90t-33 -66q-7 -14 -6.5 -33t8.5 -32q13 -24 42.5 -35.5
t68 -13t84 6t90.5 23t87.5 37t76.5 48.5q88 71 123.5 159t19 173.5t-86 158.5t-190.5 113z" />
    <glyph glyph-name="afii10022" unicode="&#x415;" horiz-adv-x="805" 
d="M959 637q2 -13 -9.5 -14.5t-22.5 2.5q-22 4 -57.5 8.5t-76 7.5t-82 5t-75.5 2q-61 -60 -118.5 -135t-103.5 -147q40 3 87 5t94 2.5t93 -0.5t85 -4q14 -2 14.5 -11t-14.5 -9q-24 0 -57 -1.5t-70 -3.5t-75 -5t-73.5 -6.5t-65 -8t-48.5 -9.5q-13 -23 -28 -51.5t-28 -61
t-22 -67.5t-10 -71q0 -27 11 -45t28.5 -28t39 -13t42.5 -1q30 2 69.5 10t82.5 20.5t87 30t82 39.5q11 6 12.5 -1t-5.5 -11q-36 -29 -78.5 -51t-86 -37t-86 -23t-78.5 -8q-13 0 -36.5 5.5t-47.5 19t-43 37t-22 59.5q-2 27 4.5 60.5t17.5 65.5t24 61t25 47q-8 0 -17 1t-14 9
q-3 2 -7 6.5t-6.5 10t-2.5 10.5q0 6 5 11q4 4 13 6t20 3.5t21.5 3t18.5 3.5q48 72 100 143.5t108 139.5q-42 0 -91.5 -5.5t-100.5 -17t-101 -30t-93 -44.5q-53 -36 -92 -89t-44 -124q-3 -52 12.5 -101t44.5 -93q7 -12 0.5 -15.5t-14.5 7.5q-14 19 -26 42.5t-21 50t-15 54.5
t-6 55q-3 78 33.5 135t110.5 107q48 31 98.5 51t104.5 31.5t112.5 17t123.5 9.5q10 11 18 18.5t17 14.5q6 4 9 -0.5t6 -12.5t9 -15t19 -7q74 -1 135.5 -8t110.5 -15q22 -7 22 -27z" />
    <glyph glyph-name="afii10024" unicode="&#x416;" horiz-adv-x="1600" 
d="M1029 293q3 4 7 9h-3q-29 -3 -44 2q-22 0 -58 -1q-23 0 -47 -1q-12 -20 -24 -42q-9 -15 -23 -41t-26.5 -57.5t-21.5 -65t-8 -63.5q0 -12 11 -15.5t19 0.5q6 4 8.5 0t-2.5 -9q-3 -3 -13 -10q-12 -3 -26 8.5t-17 23.5q-5 22 -1 52t13 61.5t22 62t26 53.5q11 21 22 41
l-66 -4q-38 -3 -65 -7q-53 -72 -112.5 -140.5t-124.5 -127t-135 -103.5t-143 -69q-49 -15 -84.5 -14t-58 13t-32.5 32t-7 43q3 19 12 39t21.5 38t26 33.5t25.5 26.5q8 8 13 4.5t-3 -11.5q-9 -11 -19.5 -26t-20 -32t-16.5 -36t-9 -38q-3 -30 7 -45.5t30 -20t48.5 0.5t62.5 16
q62 22 128 67t127.5 102t116 120t94.5 122q-8 -1 -21.5 -3.5t-24.5 -2.5q-9 0 -16 6.5t-10 14.5t-1 15t12 8q17 3 40 2.5t47 1.5q14 17 29 43t28.5 54t24 55.5t15.5 47.5q10 52 2 90t-32.5 60.5t-66.5 28t-100 -8.5q-97 -24 -188.5 -87.5t-167.5 -151.5q0 -13 -2 -18t-6 -11
q-8 -11 -21 -24t-26 -21q-6 -4 -11.5 0.5t-9 12.5t-3.5 17.5t5 15.5q36 55 87.5 104t109 88t115.5 65.5t108 37.5q65 13 114 4.5t79.5 -35.5t43 -70t4.5 -99q-3 -23 -11.5 -50.5t-20 -54.5t-24.5 -51t-25 -42q16 1 40 1t51 -1q15 0 31 -1q8 13 16 25q27 39 53 77
q29 38 55.5 70.5t46.5 54.5q5 6 2 8.5t-11 0.5q-5 0 -7 2.5t2 5.5q11 12 26 26t30.5 27t30 25t23.5 21q5 4 10.5 2t10.5 -7t8 -12t2 -12q-41 -39 -81.5 -84t-78.5 -94q-38 -48 -70 -95q-14 -19 -27 -41h40h43q26 0 58 1h14q43 56 92 113q63 74 132.5 139.5t143 116
t146.5 74.5q49 15 84.5 13.5t58 -13.5t32.5 -32t7 -42q-3 -20 -12 -39.5t-21.5 -37.5t-26 -33.5t-25.5 -26.5q-8 -8 -13 -4.5t3 11.5q9 11 19.5 25.5t20 32t16.5 36.5t9 38q3 30 -7 45.5t-30 20t-48.5 -0.5t-62.5 -16q-42 -15 -87 -43.5t-91 -65.5t-90.5 -80.5t-85.5 -89
t-76.5 -90.5t-61.5 -84q-14 -17 -29 -43t-28.5 -54t-24 -55.5t-15.5 -47.5q-10 -52 -2.5 -90.5t32.5 -61t66.5 -27.5t100.5 9q97 24 188.5 87.5t167.5 151.5q0 13 2 18t6 11q8 11 21 24t26 21q6 4 11.5 -0.5t9 -12.5t3.5 -17.5t-5 -15.5q-36 -55 -87.5 -104t-109 -88
t-116 -65.5t-107.5 -37.5q-65 -13 -114 -4.5t-79.5 35.5t-43 70t-4.5 99q3 23 11.5 50.5t20 54.5t24.5 51t25 42z" />
    <glyph glyph-name="afii10025" unicode="&#x417;" horiz-adv-x="1178" 
d="M926 375q83 -38 122 -82.5t43 -91t-22.5 -93.5t-74 -88.5t-111.5 -76.5t-135 -57.5t-145.5 -31.5t-141.5 2q-98 9 -176 41t-122 82.5t-46 118t54 148.5q5 4 11.5 6t11 2t6 -3t-4.5 -9q-12 -14 -20.5 -29.5t-15.5 -33.5q-8 -29 -9 -58.5t4 -57.5q7 -29 24.5 -53t43 -43
t57 -33t66.5 -24q73 -21 156 -22t182 20q94 21 157.5 47.5t113.5 60.5q46 29 71.5 62.5t32.5 67.5t-2.5 66.5t-31.5 61t-55.5 50.5t-74.5 34q-41 -19 -86 -31.5t-83 -16t-63 3t-27 26.5q24 42 58.5 57.5t71 15.5t71.5 -10.5t62 -19.5q40 25 79 54t77 58q73 62 102 96
q25 30 28 51t-14 42q-22 31 -75 42.5t-134 4.5q-173 -9 -238 -93q-11 -14 -11 -39q3 -11 5 -18t3 -10q7 -9 4 -10q-1 -3 -13 2q-5 2 -7.5 7.5t-4.5 13.5q-1 6 1 15t6 20t10.5 22.5t14.5 21.5q45 55 150 82q48 12 93 14t92 -3q47 -7 76.5 -19.5t42.5 -32.5q12 -19 7 -61
q-5 -23 -11.5 -39.5t-17.5 -28.5q-16 -19 -41.5 -42.5t-56.5 -50t-66.5 -54t-72.5 -53.5zM655 343q25 -12 101 -5q36 0 64 11t49 18q-13 3 -44.5 11.5t-66.5 10.5t-64.5 -6.5t-38.5 -39.5z" />
    <glyph glyph-name="afii10026" unicode="&#x418;" horiz-adv-x="961" 
d="M829 1q4 -9 4 -40q-2 -14 -12 -14q-9 0 -11 17q0 37 7 65q15 58 86 213q38 85 57 127t20 44q9 26 -1 26q-6 0 -13 -8q-95 -89 -266 -227q-113 -90 -188 -141t-114 -63q-6 -2 -12 -2q-12 0 -23.5 5.5t-20 15.5t-12.5 23t-2 27q11 72 85 196q32 53 63.5 105t63.5 106
q34 58 50 103.5t16 76.5q0 29 -22 57q-24 30 -67 33q-119 9 -256 -75q-67 -41 -115 -89t-79 -103q-9 -17 -13 -35t-4 -38q0 -64 62 -105q8 -4 8 -10q0 -4 -6 -4q-4 0 -11 4q-27 21 -44 40t-23 38q-7 22 -7 48q0 38 17 73q52 108 185 192q144 92 286 86q37 -1 76 -45
q37 -42 36 -80q-3 -76 -63 -191q-2 -4 -30 -54t-84 -147q-34 -59 -55 -105t-28 -79q-3 -9 -3 -17q0 -28 28 -28q15 0 30 8q43 19 116.5 70.5t177.5 138.5q66 54 131.5 109.5t130.5 112.5q14 11 28 28t34 38q4 6 13 6t15 -7.5t4 -17.5l-4.5 -18t-6.5 -21q-22 -29 -53 -83.5
t-73 -135.5q-45 -89 -71.5 -150.5t-36.5 -98.5z" />
    <glyph glyph-name="afii10027" unicode="&#x419;" horiz-adv-x="961" 
d="M829 1q4 -9 4 -40q-2 -14 -12 -14q-9 0 -11 17q0 37 7 65q15 58 86 213q38 85 57 127t20 44q9 26 -1 26q-6 0 -13 -8q-95 -89 -266 -227q-113 -90 -188 -141t-114 -63q-6 -2 -12 -2q-12 0 -23.5 5.5t-20 15.5t-12.5 23t-2 27q11 72 85 196q32 53 63.5 105t63.5 106
q34 58 50 103.5t16 76.5q0 29 -22 57q-24 30 -67 33q-119 9 -256 -75q-67 -41 -115 -89t-79 -103q-9 -17 -13 -35t-4 -38q0 -64 62 -105q8 -4 8 -10q0 -4 -6 -4q-4 0 -11 4q-27 21 -44 40t-23 38q-7 22 -7 48q0 38 17 73q52 108 185 192q144 92 286 86q37 -1 76 -45
q37 -42 36 -80q-3 -76 -63 -191q-2 -4 -30 -54t-84 -147q-34 -59 -55 -105t-28 -79q-3 -9 -3 -17q0 -28 28 -28q15 0 30 8q43 19 116.5 70.5t177.5 138.5q66 54 131.5 109.5t130.5 112.5q14 11 28 28t34 38q4 6 13 6t15 -7.5t4 -17.5l-4.5 -18t-6.5 -21q-22 -29 -53 -83.5
t-73 -135.5q-45 -89 -71.5 -150.5t-36.5 -98.5zM801 722q-11 -10 -12 -5t6 15q11 13 29 29.5t35 16.5q10 0 24 -6t29 -12.5t29.5 -12.5t25.5 -6q23 0 31.5 3.5t19.5 15.5q10 9 13 5.5t-5 -14.5q-5 -6 -11.5 -13t-14 -14t-16 -11.5t-17.5 -4.5q-10 0 -24 6t-29 12.5t-30 12.5
t-25 6q-17 0 -32 -7t-26 -16z" />
    <glyph glyph-name="afii10028" unicode="&#x41a;" horiz-adv-x="726" 
d="M371 190q-4 -4 -5.5 -8.5t-1.5 -7.5q0 -6 5 -6q4 0 16 10q26 26 74 68q6 35 16 41q9 4 17 -8q66 56 131.5 103.5t131.5 89.5q195 118 306 110q17 -2 17 -9q0 -8 -17 -5q-60 4 -142 -28t-186 -104q-73 -49 -229 -183q29 -85 52.5 -145t41.5 -100q47 -99 95 -163.5
t100 -95.5q36 -22 77 -22q88 0 156 74q11 9 15 9q3 0 3 -5t-8 -14q-84 -78 -169 -78q-44 0 -85 20q-152 69 -313 491q-12 -5 -37.5 -29.5t-65.5 -70.5q-77 -87 -97 -120q-3 -6 -14 -6q-17 0 -17 9q0 4 2 6q27 38 69.5 107.5t101.5 174.5q132 235 165 332q6 15 6 33
q0 55 -57 58q-47 4 -112.5 -21.5t-150.5 -82.5q-170 -110 -203 -205q-4 -12 -4 -20q0 -17 20 -24q13 -7 39 -7q13 -3 13 -7q0 -7 -11 -7q-17 -3 -28.5 -4.5t-16.5 1.5q-5 4 -12 10t-13 14t-9 17.5t-1 21.5q1 2 1 6t1 6q37 109 216 224q85 57 151.5 82.5t113.5 23.5
q42 -3 66 -53q12 -20 16.5 -37t2.5 -31q-9 -89 -233 -435z" />
    <glyph glyph-name="afii10029" unicode="&#x41b;" horiz-adv-x="982" 
d="M813 321q44 90 78.5 153.5t78.5 123.5q4 6 4 10q0 5 -1 9t-1 8t3 9q9 13 23 26.5t26 29.5q28 33 49.5 48.5t33.5 18.5t12 -5q0 -7 -14 -20q-28 -27 -62.5 -72.5t-68.5 -98.5t-64.5 -110.5t-49.5 -108.5q1 0 -10.5 -25.5t-25 -65t-22 -79t-11.5 -75t3.5 -59t23.5 -30
t47 12.5q19 11 24.5 11.5t-1.5 -11.5q-14 -25 -40 -32t-46 7q-13 9 -26 29.5t-16.5 58t7.5 95.5t46 142zM645 324q-104 -130 -180.5 -204t-135.5 -112t-103 -47t-75 -1t-51 26t-31 33q-12 17 -23 44t-16 61.5t-1.5 75.5t21.5 85q10 24 15.5 17t-2.5 -28q-14 -35 -17.5 -71.5
t0 -68.5t12.5 -56.5t19 -36.5t27 -28.5t44.5 -25t68 -2.5t96.5 40.5t130.5 104t122.5 128t76 88.5q18 20 42.5 51.5t52 66t56.5 68.5t56.5 59t51.5 38t42 5q7 -3 0.5 -5.5t-9.5 -3.5q-22 -7 -53.5 -35t-67.5 -68t-74 -86.5t-94 -111.5z" />
    <glyph glyph-name="afii10030" unicode="&#x41c;" horiz-adv-x="1376" 
d="M1296 591q-146 -32 -521 -535q-10 -13 -31 -13q-16 0 -16 10q0 2 0.5 3.5l1.5 4.5q87 165 135.5 281t61.5 185q4 33 -46 12q-99 -158 -211 -282t-225 -212.5t-168 -118.5q-37 -19 -101 -31q-64 -9 -91 0q-56 20 -71 97q-17 77 18 162q39 92 124 138q28 15 62.5 24.5
t50.5 11.5q26 -1 34 -10t2 -11t-17 2q-4 4 -40 4q-37 0 -58 -12q-120 -66 -141 -215q-20 -143 67 -178q31 -10 61.5 -5.5t77.5 30.5q49 24 139 93q49 37 95 73t88 79q39 37 128 143q45 53 74.5 92.5t86.5 129.5q26 29 52 18t29 -36q-15 -118 -139 -374q-8 -17 7 -17
q8 0 14 10q55 89 216 269t273 203q26 2 42 -29q14 -28 14 -56q0 -17 -5 -22q-56 -89 -93.5 -151.5t-57.5 -98.5q-101 -184 -119 -303q-1 -4 -1 -7v-7q0 -39 31 -32q14 4 33.5 14.5t44.5 29.5q47 36 70 65q9 12 14 12q3 0 3 -3q0 -6 -8 -17q-21 -31 -65 -68
q-26 -23 -48.5 -36t-42.5 -19q-17 -5 -32 19q-16 24 -16 49q-1 88 88 276q36 74 78 150t92 154q8 11 11 20.5t3 16.5q0 22 -30 22q-13 0 -28 -4z" />
    <glyph glyph-name="afii10031" unicode="&#x41d;" horiz-adv-x="891" 
d="M217 586q-43 -31 -78.5 -68t-59.5 -75t-35.5 -76t-7 -69t27 -54.5t66.5 -32.5q12 -2 17.5 -6t5.5 -8t-6 -6t-18 0q-51 8 -78 37t-32 69.5t10.5 89.5t48.5 98t82.5 93t113.5 76q92 46 160.5 53t109.5 -19.5t51.5 -84t-13.5 -139.5q-3 -8 -10.5 -30.5l-15.5 -46.5t-21 -61
q44 0 88 -2.5t79 -5.5t79 -8q18 44 44 99t57 111t65.5 108.5t69 92t67.5 61t61 16.5q11 -3 19 -7.5t15 -18.5q9 -18 4 -21.5t-9 6.5q-18 33 -47.5 26.5t-65 -40t-73 -87t-72 -114.5t-62 -122.5t-35 -86t-1.5 -26t36 -5.5q10 -1 9 -7.5t-21 -6.5h-13q-4 0 -16 -1q-6 0 -9 -3
t-6 -12q-12 -32 -24.5 -75t-23 -85.5t-16.5 -79t-5 -55.5q1 -16 8 -17t18 5q23 14 38 36t29 51q5 12 10 12t1 -14q-15 -51 -42 -78.5t-47 -35.5q-8 -3 -20.5 -1t-19.5 21q-9 27 -3 70.5t18.5 90t26.5 89.5t22 68q2 9 0 11t-13 3q-66 8 -123 8t-95 -2q-12 0 -18 -5t-10 -13
q-7 -18 -18.5 -48.5t-24.5 -63.5t-24 -64t-16 -49q-2 -8 4 -6.5t29 12.5q12 6 16 2t-12 -13q-33 -20 -45 -39q-2 -4 -4.5 -8.5t-6 -6.5t-7.5 -0.5t-9 10.5q-6 11 2.5 43.5t24.5 73.5t34 83.5t30 74.5q3 12 -10 11t-32 -9q-15 -5 -21 -3t-6.5 7.5t3 12t6.5 9.5q7 6 17 9.5
t19.5 5t17.5 1.5q9 0 15 1q8 2 10 5.5t7 17.5q13 32 25 64.5t22 64t15.5 62t4.5 57.5q-2 53 -37.5 73.5t-88 16t-115 -30.5t-117.5 -66z" />
    <glyph glyph-name="afii10032" unicode="&#x41e;" horiz-adv-x="785" 
d="M53 319q25 97 119 189q-4 13 -4 29q0 56 52 119q60 69 155 109q91 36 189 36q39 0 75 -6q118 -18 186 -119q58 -82 58 -172q0 -7 -0.5 -13.5t-1.5 -11.5q-11 -74 -42.5 -140t-83.5 -127q-90 -102 -225 -164q-123 -57 -234 -51q-103 5 -174 62q-81 66 -81 173q0 42 12 87z
M675 712q10 -1 10 -7q0 -10 -11 -7q-26 6 -56 6q-120 0 -265 -77q-126 -65 -165 -121q2 -17 13 -32.5t28 -29.5q37 -28 78 -28q11 0 11 -7q0 -10 -16 -7q-22 1 -42 8.5t-39 21.5q-35 28 -46 60q-14 -13 -29.5 -32t-32.5 -46q-32 -56 -44 -96q-5 -22 -8 -42.5t-3 -40.5
q0 -93 63 -147.5t175 -59.5q118 -6 252 64q68 36 123.5 80.5t99.5 99.5q96 118 96 238q0 95 -56 168q-32 41 -78.5 64.5t-106.5 33.5q-14 2 -29 3t-29 1q-98 0 -192 -39q-90 -36 -144 -93q-48 -51 -48 -101q0 -10 2 -20q71 71 187 126q132 64 245 64q15 0 29 -1.5t28 -3.5z
" />
    <glyph glyph-name="afii10033" unicode="&#x41f;" horiz-adv-x="908" 
d="M549 733q44 -2 69 -41q23 -32 23 -85q0 -23 -5 -46q-14 -54 -59.5 -146.5t-125.5 -226.5q-7 -11 -7 -18q0 -4 4 -4q7 0 16 16q41 52 90.5 106t109.5 112q162 159 250 173q14 3 24 -4.5t21 -20.5q14 -16 16 -29.5t2 -27.5q0 -6 -0.5 -12t-2.5 -10q-36 -67 -72 -131.5
t-71 -131.5q-18 -33 -45.5 -90t-57.5 -125t-59.5 -139.5t-51 -133.5t-32 -107.5t-2.5 -61.5q2 -5 0 -10.5t-2 -10.5q0 -30 16 -30q42 0 146 103q12 12 15 12q2 -2 2 -4q0 -4 -9 -17q-17 -28 -66 -68q-53 -42 -80 -42q-11 0 -19 7t-14 17t-9 22t-3 23q1 16 13.5 61.5
t32.5 107t45 132t50.5 137t48.5 122.5t39 89l145 294q11 21 11 38q0 21 -23 21q-15 0 -36 -9q-89 -38 -215 -155q-51 -49 -100 -103t-98 -116q-41 -52 -68.5 -89t-42.5 -62q-11 -16 -25 -16q-13 0 -13 11q0 3 1.5 6.5t3.5 8.5q243 400 286 536q5 16 7.5 31t2.5 29
q0 83 -73 89q-69 4 -194 -66q-63 -37 -116 -77t-99 -88q-100 -103 -100 -178q0 -27 26 -32q15 -3 30.5 -3.5t29.5 2.5q12 2 12 -4q0 -5 -12 -8q-35 -11 -60 -6q-48 9 -45 75q3 64 97 164q47 51 99.5 92.5t111.5 76.5q66 37 120 55t97 16z" />
    <glyph glyph-name="afii10034" unicode="&#x420;" horiz-adv-x="869" 
d="M530 267q4 -12 21 -17q32 -16 89 -16q53 0 96.5 10t77.5 28q79 40 79 131q0 112 -105 213q-57 53 -120 96.5t-133 75.5q-77 35 -149.5 52t-144.5 17q-157 0 -177 -114q-3 -20 -3 -39q0 -106 45 -173q5 -8 5 -12l-2 -2q-5 0 -10 8q-29 26 -47 84q-15 49 -15 101q0 18 3 33
q8 55 70 93q71 43 166 37q81 -4 159.5 -25.5t157.5 -59.5q60 -30 113 -65.5t101 -79.5q128 -111 128 -233q0 -110 -117 -156q-80 -33 -192 -33q-23 0 -44 2t-37 5.5t-26 8.5t-10 11q0 8 21 19zM164 -40q-30 15 -47 41q-6 9 -6 15t5 6q4 0 13 -9q17 -21 46 -33
q12 -5 27.5 -3.5t35.5 6.5q70 26 206 262q124 215 177 374q4 4 3 4q3 0 5 -18q2 -19 -1 -26q-56 -159 -131 -305q-124 -243 -234 -302q-15 -9 -32.5 -13t-36.5 -4q-17 0 -30 5z" />
    <glyph glyph-name="afii10035" unicode="&#x421;" horiz-adv-x="939" 
d="M341 -4q-122 2 -208 55q-96 57 -96 149q0 109 129 240q112 114 280 205q159 86 266 99q27 3 54 3q76 0 109 -30l13 13q1 5 7 3q5 -1 5 -7q0 -3 -13 -19q14 -17 14 -57q0 -39 -13 -73.5t-49 -74.5q-41 -50 -98 -82q-3 -1 -17 0q-16 3 -16 7q0 56 57 146q43 70 86 116
q-18 40 -99 40q-11 0 -23.5 -1t-26.5 -3q-169 -32 -367 -179q-209 -158 -255 -309q-7 -24 -7 -49q0 -74 63 -120q74 -53 206 -50q76 2 154.5 19.5t159.5 49.5q75 31 135 66.5t107 78.5q6 7 11 7q4 0 4 -5q0 -4 -7 -11q-91 -93 -248 -159q-84 -35 -163 -52.5t-154 -15.5z
M734 447q-1 -7 2 -9q4 -3 9 0q75 49 109 128q6 16 9.5 31t3.5 31q0 28 -10 45q-19 -20 -38 -46t-37 -61q-35 -67 -48 -119z" />
    <glyph glyph-name="afii10036" unicode="&#x422;" horiz-adv-x="1178" 
d="M483 414q-137 -271 -248 -391q-3 -4 -10.5 -9.5t-18.5 -10.5q-22 -13 -31 -13q-8 0 -8 22q0 59 108 200q43 57 89.5 108.5t97.5 100.5q22 42 40 85.5t33 88.5q27 84 27 120q0 34 -15.5 46t-52.5 8q-108 -12 -281 -148q-180 -141 -180 -229q0 -16 25 -25q26 -8 34 -6
q14 2 14 -2t-16 -9q-16 -6 -34 0q-11 4 -23 21t-12 37q0 62 92 156q85 85 198 152q115 69 180 74q30 1 62 -23q32 -25 31 -52q-2 -42 -21 -104.5t-54 -144.5q127 111 177 111q20 0 35 -16.5t13 -35.5q-15 -118 -139 -374q-8 -17 7 -17q8 0 14 10q96 127 264 292
q209 201 295 206q26 2 42 -29q14 -28 14 -56q0 -17 -5 -22q-56 -89 -93.5 -151.5t-57.5 -98.5q-101 -184 -119 -303q-1 -4 -1 -7v-7q0 -39 31 -32q14 4 33.5 14.5t44.5 29.5q47 36 70 65q9 12 14 12q3 0 3 -3q0 -6 -8 -17q-21 -31 -65 -68q-26 -23 -48.5 -36t-42.5 -19
q-17 -5 -32 19q-16 24 -16 49q-1 88 88 276q36 74 78 150t92 154q8 11 11 20.5t3 16.5q0 22 -30 22q-13 0 -28 -4q-89 -23 -286 -217q-173 -170 -305 -344q-10 -13 -31 -13q-16 0 -16 10q0 2 0.5 3.5l1.5 4.5q87 165 135.5 281t61.5 185q4 33 -23 33q-39 0 -112 -57
q-62 -47 -96 -89zM223 35q23 26 53.5 68.5t67.5 101.5q76 118 98 173q-58 -50 -127 -143q-82 -108 -109 -184q-11 -27 2 -27q7 0 15 11z" />
    <glyph glyph-name="afii10037" unicode="&#x423;" horiz-adv-x="927" 
d="M789 50q19 25 80 152q20 41 39.5 81.5t38.5 81.5q3 10 2 11q-1 4 -6 -1q-127 -112 -276 -214q-97 -66 -176 -107t-141 -58q-9 -3 -17.5 1t-16 12t-12 19.5t-4.5 24.5q0 11 4 20q17 55 99 176q54 80 87 131t46 72q67 115 67 188q0 89 -110 97q-49 5 -108.5 -15.5
t-130.5 -63.5q-145 -90 -191 -190q-16 -38 -16 -66q0 -23 8 -41t34 -35q11 -8 21.5 -12.5t19.5 -5.5q14 -1 14 -7t-19 -3q-67 12 -85 55q-11 23 -11 58q0 37 11 63q38 100 173 190q142 95 263 98q59 1 108 -46q50 -48 50 -99q0 -34 -16.5 -79.5t-51.5 -102.5
q-17 -29 -50 -79.5t-84 -122.5q-83 -120 -101 -164q-6 -12 -8.5 -21.5t-2.5 -15.5q0 -14 14 -14q9 0 33 6q120 33 317 169q91 63 160.5 119t118.5 107l2 5q8 11 17.5 25t20.5 31q10 15 29 15q2 0 4 -2q9 -21 -1 -31q-8 -5 -16 -13l-19 -19q-27 -60 -58 -127t-66 -145
q5 -5 11 -13.5t10.5 -16.5t7.5 -15.5t3 -10.5q0 -9 -19 -34q-9 -11 -16 -17t-13 -7q-8 -1 -20.5 -5t-29.5 -9q-32 -53 -58.5 -90.5t-47.5 -63.5q-61 -76 -122 -110q-96 -55 -169 -53q-61 1 -97 31q-34 27 -34 67q0 49 49 88q130 100 458 151zM776 24q-48 -7 -98 -17.5
t-104 -25.5q-159 -42 -231 -99q-46 -36 -46 -81q0 -75 114 -73q83 1 162 53q61 41 117 113q11 16 32.5 48t53.5 82zM870 147q-8 -17 -19.5 -39t-26.5 -51q8 1 18 4t24 7q21 12 22 32q1 21 -18 47z" />
    <glyph glyph-name="afii10038" unicode="&#x424;" horiz-adv-x="869" 
d="M692 705q-59 12 -118.5 17.5t-117 5t-110 -6.5t-95.5 -18q-31 -8 -64 -23t-56 -47q-11 -17 -13.5 -35.5t-2.5 -30.5q0 -6 -3.5 -7.5t-5.5 4.5q-4 14 -1 35.5t9 39.5q12 33 44.5 53.5t83.5 36.5q42 12 95.5 18.5t114.5 7t127 -5t132 -16.5q7 10 11.5 15.5t6.5 8.5
q4 4 10 3.5t10.5 -4t7 -8.5t0.5 -9q-44 -96 -97 -200q25 21 57 39q87 50 152 40q42 -5 74 -38q34 -31 45 -88q5 -10 6 -25.5t0 -28.5q-2 -138 -123 -229q-117 -88 -245 -56q-9 2 -22.5 8.5t-27.5 15.5t-27 19t-21 18q-25 27 -37 43q-51 -72 -104.5 -129.5t-109.5 -92.5
q-27 -18 -56.5 -28t-58 -12.5t-53 2.5t-40.5 18q-11 10 -18 29t-11 36q-3 9 4 11t9 -7q5 -17 15.5 -31.5t22.5 -24.5q13 -11 32.5 -15t43 -2t49 11t49.5 25q43 29 86.5 76.5t85.5 107.5q-30 -26 -68 -47q-43 -25 -84 -40t-74 -10q-20 2 -40 10.5t-35 24.5q-13 12 -22 30.5
t-14 39.5t-7.5 43t-1.5 41q1 69 32 133t92 110q30 22 64 38t69 23.5t69.5 6.5t65.5 -12q16 -6 33.5 -16.5t34 -24t31.5 -29t26 -31.5q26 52 45.5 95.5t38.5 88.5zM445 586q-61 11 -118.5 -5.5t-111.5 -58.5q-111 -84 -111 -204q-2 -35 4 -59q16 -81 103 -98q37 -7 78.5 5
t92.5 44q54 33 83 62l27 40.5t31 45.5t30.5 46t25.5 43l-26 -23q-12 -12 -16 -6q-9 3 -14 13.5t3 19.5q2 8 19 15t43 28q-12 25 -33 42t-42.5 27.5t-40.5 15.5t-27 7zM525 245q44 -46 98 -58.5t108 0.5t103.5 45.5t85 76.5t52 94.5t5.5 98.5q-8 42 -35.5 65t-74.5 23
q-38 0 -85.5 -17t-98.5 -49q-20 -14 -30.5 -23t-22.5 -17q-31 -57 -63 -110.5t-67 -103.5z" />
    <glyph glyph-name="afii10039" unicode="&#x425;" horiz-adv-x="770" 
d="M0 -118q-5 -21 -11 -21q-4 0 -2 20q9 85 67 165q26 38 74.5 84t117.5 100q61 48 119.5 87t117.5 74q7 116 10.5 172.5t3.5 54.5q0 13 -0.5 22.5t-1.5 18.5q-5 39 -46 30q-101 -24 -192 -152q-2 -3 -3.5 -5.5t-3.5 -3.5q-3 -2 -5 0q-2 4 0 10q2 7 3 8q15 31 42 60.5
t62 57.5q38 28 69.5 42.5t59.5 12.5q15 0 35 -18q21 -18 21 -29q2 -44 -0.5 -108t-10.5 -150q103 59 188.5 115.5t154.5 112.5q14 13 10 34q9 5 23 16.5t31 28.5q2 2 4 2q15 0 15 -38q0 -9 -4 -13q-44 -52 -208 -157q-60 -40 -114.5 -72.5t-103.5 -60.5q-6 -87 -6 -145
q0 -138 31 -182t90 -41q35 3 74.5 18.5t84.5 45.5q10 6 14 0q6 -6 -5 -11q-103 -71 -165 -80q-9 -2 -23 2t-29.5 11.5t-30.5 17.5t-27 22q-48 45 -48 225v54q0 20 0.5 31t0.5 12q-63 -37 -121 -76.5t-113 -84.5q-122 -97 -174 -169q-28 -38 -46 -75t-29 -75z" />
    <glyph glyph-name="afii10040" unicode="&#x426;" horiz-adv-x="1002" 
d="M838 28q-2 27 1.5 49.5t11.5 46t21 51.5t31 67q19 43 33.5 74.5t24.5 53.5q11 25 19 43q4 8 4 19q0 7 -5 7t-13 -8q-48 -45 -113 -101.5t-153 -125.5q-121 -97 -201.5 -151.5t-112.5 -54.5q-23 0 -41 18.5t-18 44.5q1 35 24.5 87.5t61.5 116.5q4 7 14 23.5t22.5 37.5
t27 44.5t27 44.5t22.5 37.5t14 23.5q34 58 50 103.5t16 76.5q0 38 -29 64.5t-83 26.5q-40 0 -88.5 -14t-98 -38t-95.5 -56.5t-82 -70.5t-58 -79.5t-22 -82.5q0 -64 62 -105q8 -5 8 -10q0 -4 -6 -4q-4 0 -11 4q-44 34 -59 62t-15 64t15.5 71.5t43 69.5t64.5 65.5t79 58.5
q137 86 269 86h17q17 -1 37 -13t36.5 -30t27.5 -39t11 -40q0 -38 -16.5 -86t-46.5 -108q-2 -4 -29.5 -54t-84.5 -147q-38 -66 -62 -118.5t-24 -82.5q0 -28 28 -28q32 -1 113.5 55t210.5 162q66 54 131 109.5t131 112.5q4 3 14 15t21 24.5t22 22.5t18 10q8 0 13.5 -6t5.5 -14
t-3.5 -20t-7.5 -24q-22 -29 -53 -83.5t-73 -135.5q-14 -27 -27.5 -55t-24.5 -54t-18 -48.5t-7 -38.5q10 -18 28 -17q3 10 6 21q7 28 16 50t21 34t29 3q14 -19 13.5 -41t-11.5 -42.5t-29 -36.5q-14 -13 -29 -20q-3 -25 -6 -57q-8 -54 -19 -101t-31.5 -84t-54 -62t-85.5 -33
q-29 -5 -50 7.5t-44 35.5q-17 15 -22 23t-7 10q0 6 3 5l20 -15q8 -6 16 -12.5t13 -10.5q21 -14 35 -18.5t34 -5.5q27 -1 52 17t46 51t36.5 79t23.5 102q2 11 7 33q3 16 7 30q-8 0 -15 2q-16 5 -25 27zM944 76q12 15 14.5 25t0.5 15t-6.5 7t-7.5 2q-20 -1 -30 -49
q-2 -14 -5 -31q14 10 34 31z" />
    <glyph glyph-name="afii10041" unicode="&#x427;" horiz-adv-x="986" 
d="M949 439q-50 -43 -106 -86t-108 -78.5t-93.5 -60t-60.5 -30.5q-8 -2 -12 -2q-25 0 -43.5 21t-14.5 50q5 36 26.5 84.5t58.5 111.5q17 29 32 59t26.5 58t18 51.5t6.5 38.5q0 29 -22 57q-24 30 -67 33q-119 9 -256 -75q-132 -82 -194 -192q-17 -33 -17 -73q0 -64 62 -105
q8 -5 8 -10q0 -4 -6 -4q-4 0 -11 4q-27 21 -44 40t-23 38q-7 21 -7 48q0 37 17 73q53 109 185 192q145 92 286 86q37 -1 76 -45q38 -42 36 -80t-19.5 -94t-47.5 -114q-34 -60 -55 -105.5t-28 -78.5q-3 -9 -3 -17q0 -28 28 -28q14 0 30 8q21 9 58 32.5t83 56.5t98 73.5
t104 84.5q14 11 28 28t34 38q4 6 13 6t15 -7.5t4 -17.5l-4.5 -18t-6.5 -21q-22 -29 -53 -83.5t-73 -135.5q-89 -176 -108 -249q4 -8 4 -40q-2 -14 -12 -14q-9 0 -11 17q0 38 7 65q8 29 29.5 82t56.5 131q76 169 77 171q9 26 -1 26z" />
    <glyph glyph-name="afii10042" unicode="&#x428;" horiz-adv-x="1397" 
d="M1013 462q-7 -9 -36 -61.5t-86 -149.5q-34 -60 -55 -105.5t-28 -78.5q-3 -9 -3 -17q0 -28 28 -28q14 0 30 8q43 19 116 70t178 139q66 54 128 109.5t128 112.5q14 11 28 28t34 38q4 6 13 6t15 -7.5t4 -17.5l-5 -18q-2 -10 -6 -21q-22 -29 -53 -83.5t-73 -135.5
q-89 -176 -108 -249q4 -8 4 -40q-2 -14 -12 -14q-9 0 -11 17q0 38 7 65q8 29 29.5 82t56.5 131q76 169 77 171q9 26 -1 26q-3 0 -3 -2t-4 -6q-95 -89 -266 -227q-114 -91 -188.5 -141.5t-113.5 -62.5q-8 -2 -12 -2q-25 0 -43.5 21t-14.5 50q5 36 26.5 84.5t58.5 111.5
q32 54 63 105q10 17 20 33q-90 -82 -235 -199q-114 -91 -188.5 -141.5t-113.5 -62.5q-8 -2 -12 -2q-25 0 -43.5 21t-14.5 50q5 36 26.5 84.5t58.5 111.5q32 54 63.5 105.5t63.5 105.5q34 58 50 103.5t16 76.5q0 29 -22 57q-24 30 -67 33q-119 9 -256 -75q-132 -82 -194 -192
q-17 -33 -17 -73q0 -64 62 -105q8 -5 8 -10q0 -4 -6 -4q-4 0 -11 4q-27 21 -44 40t-23 38q-7 21 -7 48q0 37 17 73q53 109 185 192q145 92 286 86q37 -1 76 -45q38 -42 36 -80q-3 -75 -63 -191q-2 -4 -29.5 -54t-84.5 -147q-34 -60 -55 -105.5t-28 -78.5q-3 -9 -3 -17
q0 -28 28 -28q14 0 30 8q43 19 116 70t178 139q66 54 128 111q60 55 123 110l10 16q14 11 24.5 33.5t30.5 43.5q4 6 13 6t11.5 -7t0.5 -17q-1 -4 -7.5 -14t-14.5 -21t-15 -21.5t-9 -16.5z" />
    <glyph glyph-name="afii10043" unicode="&#x429;" horiz-adv-x="1397" 
d="M1278 33q-5 28 -3 49.5t9.5 44.5t20.5 50t31 65l77 171q9 26 -1 26q-3 0 -3 -2t-4 -6q-95 -89 -266 -227q-115 -91 -189 -141.5t-113 -62.5q-10 -2 -12 -2q-12 0 -23.5 5.5t-20 15.5t-12.5 22.5t-2 27.5q5 36 26.5 84.5t58.5 111.5q31 54 63 105l42 69l-22 -22
q-48 -46 -109 -104t-126 -109q-115 -91 -189 -141.5t-113 -62.5q-10 -2 -12 -2q-12 0 -23.5 5.5t-20 15.5t-12.5 22.5t-2 27.5q5 36 26.5 84.5t58.5 111.5q32 54 63.5 105.5t63.5 105.5q34 58 50 103.5t16 76.5q0 29 -22 57q-24 30 -67 33q-119 9 -256 -75
q-133 -83 -194 -192q-17 -34 -17 -73q0 -64 62 -105q8 -5 8 -10q0 -4 -6 -4q-4 0 -11 4q-27 21 -44 40t-23 38q-7 20 -7 48q0 36 17 73q52 109 185 192q146 92 286 86q37 -1 76 -45q38 -42 36 -80q-3 -76 -63 -191q-2 -4 -29.5 -54t-84.5 -147q-34 -60 -55 -105.5t-28 -78.5
q-3 -9 -3 -17q0 -28 28 -28q12 0 30 8q43 19 115.5 70t178.5 139q49 40 105.5 94t108.5 105q17 16 33 31t32 29q2 3 6 11q10 21 31 44q4 6 13 6t11.5 -7t0.5 -17q-1 -4 -7.5 -13.5t-14.5 -21t-15 -22t-9 -16.5q-7 -9 -36 -61.5t-86 -149.5q-34 -60 -55 -105.5t-28 -78.5
q-3 -9 -3 -17q0 -28 28 -28q12 0 30 8q43 19 115.5 70t178.5 139q66 54 128 109.5t128 112.5q14 11 28 28t34 38q4 6 13 6t15 -7.5t4 -17.5l-5 -18q-2 -11 -6 -21q-22 -29 -55.5 -92t-75.5 -144q-16 -31 -29.5 -59t-22.5 -51t-11 -41t4 -28q10 -18 28 -17q3 10 6 21
q7 28 16 50t21 34t29 3q14 -20 11.5 -42t-14.5 -41.5t-31 -35.5q-11 -8 -21 -14q-4 -28 -7 -64q-8 -54 -19 -101t-31.5 -84t-54 -62t-85.5 -33q-29 -5 -50 7.5t-44 35.5q-17 15 -22 23t-7 10q0 6 3 5l20 -15q8 -6 16 -12.5t13 -10.5q21 -14 35 -18.5t34 -5.5q27 -1 52 17
t46 51t36.5 79t23.5 102q2 11 7 33q4 18 8 33q-14 -2 -26 3q-15 6 -21 28zM1390 76q12 15 14.5 25t0.5 15t-6.5 7t-7.5 2q-20 -1 -30 -49q-2 -14 -5 -31q14 10 34 31z" />
    <glyph glyph-name="afii10047" unicode="&#x42d;" horiz-adv-x="879" 
d="M800 245q-72 -54 -149.5 -104t-157.5 -87.5t-161.5 -59t-161.5 -18.5q-53 2 -88 14.5t-55 32t-25 43t4 47.5q9 18 23 35t30.5 31.5t33 26t30.5 19.5q11 5 15 0t-7 -11q-11 -8 -24.5 -20t-27 -26.5t-25 -31.5t-18.5 -36q-11 -30 -5 -49.5t25 -30.5t48.5 -15.5t66.5 -5.5
q67 1 145 24t155.5 59.5t148.5 83t125 94.5q28 23 47 39q13 11 22 19h-5q-35 -2 -79 -5t-93 -6t-95 -4.5t-85.5 -0.5t-64.5 5q-3 0 -2.5 1t2 3.5t2.5 5.5t-2 7q-2 6 -0.5 17t8.5 11q39 -6 99.5 -13t135.5 -9q51 -1 100 4.5t86 7.5q9 0 16 -1l6 7q10 12 21 25q21 25 39 49
t27 43q48 100 8 166t-165 78q-103 9 -212 -24.5t-209 -96.5q-1 -13 -5 -18t-9 -9q-12 -9 -28 -18t-32 -13q-7 -3 -11 4t-5 17t1 20t7 13q51 45 115.5 77.5t132.5 52.5t133.5 27t118.5 1q69 -10 116.5 -36t72.5 -64.5t26.5 -87t-21.5 -103.5q-9 -23 -24.5 -48t-34.5 -49
l-18 -22q-9 -11 -19 -22q-10 -10 -26.5 -26t-41.5 -39z" />
    <glyph glyph-name="afii10048" unicode="&#x42e;" horiz-adv-x="1452" 
d="M741 319q26 99 119 189q-4 12 -4 29q0 57 52 119q59 68 155 109q91 36 189 36q39 0 75 -6q118 -18 186 -119q58 -82 58 -172q0 -7 -0.5 -13.5t-1.5 -11.5q-11 -75 -42.5 -140.5t-83.5 -126.5q-91 -103 -225 -164q-123 -57 -234 -51q-103 4 -174 62q-81 66 -81 173
q0 28 5 58q-22 2 -43 4q-30 2 -59 2t-52.5 -0.5t-42.5 -1.5q-12 0 -18 -5t-10 -13q-7 -18 -18.5 -48.5t-24.5 -63.5t-24 -64t-16 -49q-2 -8 4 -6.5t29 12.5q12 6 16 2t-12 -13q-33 -20 -45 -39q-2 -4 -4.5 -8.5t-6 -6.5t-7.5 -0.5t-9 10.5q-6 11 2.5 43.5t24.5 73.5t34 83.5
t30 74.5q3 12 -10 11t-32 -9q-15 -5 -21 -3t-6.5 7.5t3 12t6.5 9.5q11 9 27 12.5t27 3.5t15 1q8 2 10 5.5t7 17.5q13 31 25.5 64t22 64.5t15 62t4.5 57.5q-1 35 -18 55.5t-44.5 29t-63 5t-75 -16t-80 -33t-77.5 -47.5q-42 -30 -77.5 -67.5t-60 -76t-36 -76t-7 -69t27 -54.5
t66.5 -32q23 -4 23 -14q0 -4 -6 -6t-18 0q-51 8 -78 36.5t-32 69.5t10.5 90t48.5 97.5t82.5 93t113.5 76.5q92 46 160.5 53t109.5 -19.5t51.5 -84t-13.5 -139.5q-3 -8 -11 -31l-24 -73q-5 -15 -12 -34q45 0 88.5 -2.5t78.5 -5.5q15 -2 37 -4q1 2 2 5zM1363 712q10 -1 10 -7
q0 -10 -11 -7q-26 6 -56 6q-119 0 -265 -77q-125 -64 -165 -121q2 -17 13 -32.5t28 -29.5q37 -28 78 -28q11 0 11 -7q0 -10 -16 -7q-44 1 -81 30q-36 30 -46 60q-28 -25 -62 -78q-33 -57 -44 -96q-1 -3 -2 -5q20 -2 38 -3q1 0 8 -1t16.5 -2t19 -2.5t17.5 -2.5q10 -1 9 -7.5
t-21 -6.5h-19q-4 0 -10 -1q-11 0 -16.5 -0.5t-10 -0.5t-11 0.5t-20.5 1.5h-4l-2 -13q-3 -20 -3 -40q0 -94 63 -148t175 -59q119 -6 252 64q135 71 223 180q96 118 96 238q0 94 -56 168q-32 42 -78.5 65t-106.5 33q-14 2 -29 3t-29 1q-98 0 -192 -39q-90 -36 -144 -93
q-48 -51 -48 -101q0 -5 0.5 -10t1.5 -10q70 70 187 126q131 64 245 64q15 0 29 -1.5t28 -3.5z" />
    <glyph glyph-name="afii10049" unicode="&#x42f;" horiz-adv-x="907" 
d="M440 121q-10 -7 -48 -35t-96 -63q-29 -18 -52.5 -30t-43.5 -20q-23 -8 -56 -11.5t-64.5 3t-54.5 26t-25 58.5q0 22 1 34t3.5 22t7 23t11.5 38q9 10 8.5 -1.5t-3.5 -33.5t-4.5 -49t4.5 -48q6 -35 26.5 -48t46 -13.5t52 8t44.5 17.5q49 22 101.5 57t104.5 72q22 18 50 42
t57 48.5t55.5 46.5t45.5 37q-14 10 -29 28q-58 62 -71 135q-22 105 62 198q93 105 246 128q60 8 115 8.5t110 -7.5q69 -13 125.5 -39t101.5 -68q53 -50 56 -125q1 -33 -8 -63t-29 -56q-5 -7 -11 -14.5t-12 -15.5q-22 -21 -43.5 -40t-44.5 -36q-53 -39 -89 -45q-9 -4 -11 -2
v4q3 3 12 7q76 30 158 121q8 8 15.5 16.5t13.5 18.5q79 109 -2 197q-37 40 -86.5 67t-116.5 41q-63 12 -128.5 11t-137.5 -15q-134 -27 -218 -122q-72 -76 -64 -156q5 -34 19 -67t40 -62q19 -23 42.5 -30.5t47.5 -4.5q0 -2 -3.5 -6t-7.5 -8.5t-7.5 -8t-4.5 -5.5zM752 -6
q-11 4 -26 12q-27 21 -34 49q-28 99 92 332q37 72 78.5 142t89.5 139q2 4 7.5 8t15.5 11l18 10v-4q-49 -69 -98 -157t-97 -197q-108 -233 -77 -290q8 -14 17.5 -23.5t23.5 -11.5q31 -8 63 -3q13 1 16 0q2 -3 -2 -7q-3 -3 -16 -7q-17 -4 -35 -5t-36 2z" />
    <glyph glyph-name="afii10065" unicode="&#x430;" horiz-adv-x="421" 
d="M55 13q-13 -8 -23 -8q-25 0 -25 35q0 71 111 182q51 51 96 82.5t84 47.5q9 3 19.5 5.5t21.5 2.5q12 0 24 -2.5t24 -6.5q17 -2 19 -1q18 3 26 13q2 2 6 2t7 -5t2 -7q-29 -45 -57.5 -88.5t-55.5 -88.5q-21 -35 -41 -80.5t-36.5 -92t-28.5 -88.5t-16 -71q-1 -5 -1 -9v-10
q0 -34 21 -50.5t57 -16.5t71 12q53 18 138 86q41 33 73.5 68t56.5 66q9 10 12 10q1 -1 1 -3q0 -4 -4 -11q-23 -34 -55.5 -72t-77.5 -76q-42 -34 -75.5 -56t-61.5 -32q-14 -5 -28 -7.5t-30 -2.5q-24 0 -44 7.5t-36 18.5q-19 11 -26.5 31.5t-6.5 46.5q1 21 8.5 56t19.5 74.5
t26 78.5t28 69q17 36 33.5 67t33.5 57q7 11 -1 11q-1 0 -3 -2q-24 -29 -57.5 -61t-77.5 -70q-88 -74 -151 -111zM71 98q-4 -11 -4 -23q0 -24 18 -24q7 0 15 5q56 35 118 94.5t133 144.5q3 3 3 7q0 11 -13 20.5t-33 9.5q-11 0 -23 -3q-47 -12 -119 -91q-34 -38 -57.5 -73
t-37.5 -67z" />
    <glyph glyph-name="afii10066" unicode="&#x431;" horiz-adv-x="497" 
d="M102 102q-24 -20 -32 -55v-1q1 0 1 -1q-1 -1 -1 -2t-1 -2l1 -4q-3 -13 5 -15q11 -3 46 4q38 8 75.5 26.5t76.5 46.5q82 60 108 122l4 16q1 31 -22 31q-22 0 -130 -72q-45 -29 -76.5 -53t-54.5 -41zM87 106l26 20t28.5 21t34.5 23.5t43 28.5q119 79 178 103q7 4 20 4
q34 0 33 -37q-5 -14 -12 -30q-58 -96 -180 -170q-123 -73 -226 -72l-6 2q-4 1 -4 9.5t2 19t4.5 20.5t2.5 14q19 43 33 71.5t27.5 53.5t29.5 52t39 68q13 23 34.5 58t51.5 77t66.5 87.5t79.5 88.5t91.5 81t102.5 65q71 35 136 48t125.5 16t116 2.5t106.5 7.5t97.5 31.5
t88.5 75.5q11 14 17.5 14t0.5 -14q-14 -32 -29 -57t-40.5 -45t-67 -36.5t-107.5 -31.5q-50 -12 -103 -7.5t-108 9t-111.5 2.5t-114.5 -27q-40 -18 -81 -49.5t-80 -72t-76 -87t-69.5 -92.5t-59 -89.5t-44.5 -78.5z" />
    <glyph glyph-name="afii10067" unicode="&#x432;" horiz-adv-x="458" 
d="M142 326q2 4 3 5q2 6 3.5 8t-2.5 -6v7q372 839 795 866q145 8 256 -87q113 -95 101 -214q-3 -36 -22 -74q-95 -181 -510 -338q-144 -55 -291 -96t-299 -70q-14 -26 -31 -66t-37 -97q-8 -17 -12.5 -31.5t-8.5 -26.5q17 16 50 38.5t82 54.5q60 40 104.5 65.5t73.5 37.5
q8 4 20 4q34 0 33 -37q-2 -7 -5 -14.5t-7 -15.5q-58 -97 -180 -170q-123 -74 -226 -72q-2 0 -6 2q-8 2 -13.5 9t-5.5 15q4 10 14 24q20 46 48 112t65 152q2 0 3 5v3q0 1 1 1.5t1 1.5l1 1v-2q2 4 3 7q0 -1 -1 -2zM1255 858q7 16 11 31.5t7 32.5q9 107 -89 187
q-101 84 -243 79q-243 -11 -492 -362q-155 -215 -267 -484q367 75 651 199q339 149 422 317zM102 102q-24 -20 -32 -55v-1q1 0 1 -1q-1 -1 -1 -2t-1 -2l1 -4q-3 -14 5 -15q10 -3 46 4q38 8 75.5 26.5t76.5 46.5q82 60 108 122l4 16q2 31 -22 31q-22 0 -130 -72
q-44 -29 -76 -53t-55 -41z" />
    <glyph glyph-name="afii10068" unicode="&#x433;" horiz-adv-x="291" 
d="M45 191l3 21q46 37 89.5 64t95.5 38q6 1 15 -6.5t9 -15.5q0 -4 -1 -5q-17 -21 -36 -50.5t-40 -66.5q-49 -88 -49 -125q0 -26 27 -26q49 0 160 84q3 2 5.5 3t3.5 2q1 -1 1 -1.5t1 -1.5l-7 -7q-130 -106 -188 -106q-18 0 -37 18q-23 18 -18 41q20 81 107 195q4 4 4 13
q0 14 -15 14q-10 0 -20 -7q-16 -8 -27.5 -17t-22.5 -17z" />
    </font>
</defs>
</svg>
